{"glyphs":{"\u0000":{"ha":0,"x_min":0,"x_max":0,"o":""},"\u001d":{"ha":0,"x_min":0,"x_max":0,"o":""}," ":{"ha":345,"x_min":0,"x_max":0,"o":""}," ":{"ha":345,"x_min":0,"x_max":0,"o":""},"A":{"ha":941,"x_min":20,"x_max":921,"o":"m 282 214 l 273 214 l 273 210 l 282 210 l 282 214 m 575 285 l 580 285 l 580 304 l 575 304 l 575 285 m 826 162 l 829 162 q 831 166 831 163 q 831 171 831 168 q 807 163 830 171 q 826 162 820 162 m 264 176 q 257 175 259 176 q 256 172 256 174 q 256 166 256 170 q 280 175 257 166 q 264 176 271 176 m 293 45 l 302 45 l 298 71 l 293 70 l 293 45 m 884 134 l 877 140 l 870 139 q 862 137 865 138 q 864 127 863 134 l 865 121 q 867 113 866 117 l 884 134 m 671 168 q 693 172 678 169 q 682 186 689 178 l 677 194 q 671 202 674 199 l 671 168 m 627 303 q 635 285 634 287 l 636 285 q 656 303 652 285 l 627 303 m 642 279 l 642 245 l 647 246 l 652 248 q 664 250 659 249 q 642 279 654 262 m 710 186 l 710 159 q 725 167 716 162 l 731 171 l 737 174 l 734 186 l 710 186 m 793 214 l 786 217 l 777 221 q 758 229 766 226 l 758 201 l 766 197 l 774 194 q 793 186 785 189 l 793 214 m 262 145 q 263 130 262 130 l 267 120 q 273 111 270 115 q 294 94 273 110 q 292 113 292 102 l 292 131 q 286 163 292 151 q 273 153 280 159 l 262 145 m 151 264 q 171 273 162 264 q 180 285 175 277 l 188 298 q 167 301 174 301 q 159 300 161 301 q 142 276 154 297 q 117 273 136 275 l 117 267 l 118 258 l 119 238 q 144 265 132 251 q 151 264 148 264 m 698 387 l 698 416 l 682 429 l 676 433 q 661 416 669 425 l 654 407 l 646 398 q 675 375 662 386 q 698 387 687 380 m 470 665 q 460 637 467 654 l 454 624 l 449 610 q 438 557 438 581 l 438 555 q 456 556 446 556 l 473 555 l 478 555 q 505 559 495 555 q 488 611 498 582 l 479 637 l 475 651 l 470 665 m 570 1057 l 589 1008 l 606 959 q 642 863 629 896 q 703 699 673 786 q 745 584 718 655 l 787 468 l 826 361 q 867 255 848 302 q 895 182 878 229 l 907 144 l 920 108 q 921 104 921 106 l 921 101 l 920 97 l 920 92 l 727 92 l 728 81 l 728 62 q 727 49 728 55 l 723 21 l 720 -7 q 717 -46 717 -28 q 718 -63 717 -55 l 718 -79 l 719 -95 q 726 -127 721 -113 q 728 -138 728 -132 l 728 -149 l 728 -157 l 728 -161 q 736 -186 728 -177 l 737 -191 l 743 -248 l 745 -277 l 748 -304 q 707 -343 729 -322 l 674 -343 q 642 -306 668 -336 q 641 -291 642 -301 l 640 -283 l 639 -274 l 639 -267 q 644 -242 639 -251 q 648 -224 648 -235 l 648 -216 l 648 -207 l 648 -203 q 659 -176 648 -184 q 659 -174 659 -175 l 659 -171 q 662 -130 659 -153 l 667 -89 q 671 -26 671 -53 q 670 -5 671 -15 q 667 7 669 0 l 663 20 q 658 42 658 33 q 659 48 658 45 l 661 61 q 661 68 661 64 q 661 74 661 71 q 650 98 660 88 q 649 102 649 99 l 649 104 l 650 108 l 650 112 q 650 123 650 117 q 639 179 650 147 l 633 195 l 627 211 q 618 244 621 230 l 602 260 l 601 182 q 602 110 601 140 q 606 85 602 101 l 608 73 l 611 61 l 612 50 l 613 39 q 619 16 615 25 q 621 7 621 12 q 618 -7 621 1 l 615 -18 q 612 -29 613 -26 l 604 -34 l 597 -38 q 585 -44 590 -43 q 576 -45 582 -45 l 564 -45 l 558 -44 l 534 -21 l 534 -9 l 533 4 l 533 9 q 536 29 533 21 q 552 123 549 72 q 554 188 554 152 q 553 254 554 218 q 548 292 552 269 l 544 312 l 541 332 l 361 332 l 355 309 l 348 285 q 336 237 340 256 l 333 222 l 329 206 q 321 175 323 186 q 319 155 319 165 q 330 112 319 131 q 328 84 329 100 l 329 56 l 329 50 q 323 -1 329 18 q 318 -55 318 -22 l 318 -62 l 320 -94 q 321 -126 321 -114 q 332 -149 332 -135 q 332 -163 332 -155 l 330 -169 l 330 -175 q 329 -181 329 -178 q 334 -203 329 -190 l 338 -216 q 340 -229 340 -223 l 342 -256 q 348 -283 343 -271 q 352 -315 352 -296 l 352 -321 l 351 -340 q 350 -359 350 -352 l 316 -393 l 276 -393 q 237 -380 252 -392 q 214 -334 227 -361 q 254 3 254 -146 q 251 79 254 42 l 237 92 l 23 92 q 20 108 20 100 q 24 127 20 117 q 30 144 26 134 l 36 159 q 66 243 48 195 l 98 327 l 112 363 l 125 398 q 151 469 142 440 q 174 535 158 492 l 186 568 l 197 600 q 226 677 206 628 l 241 716 q 255 755 249 738 q 266 786 259 768 l 279 816 q 300 877 294 853 q 310 907 304 890 l 322 935 q 341 996 338 972 q 353 1026 343 1008 l 370 1057 l 570 1057 z "},"B":{"ha":776,"x_min":20,"x_max":755,"o":"m 445 220 l 455 220 l 455 223 l 445 223 l 445 220 m 426 239 l 435 239 l 435 243 l 426 243 l 426 239 m 309 123 l 319 123 l 319 127 l 309 127 l 309 123 m 359 293 l 361 284 l 376 288 l 376 293 l 359 293 m 376 257 l 375 266 l 359 262 l 359 257 l 376 257 m 50 128 l 51 120 l 66 123 l 66 128 l 50 128 m 109 161 q 98 172 104 165 l 92 178 q 84 185 88 182 q 87 168 86 175 l 89 162 l 90 158 q 98 159 94 159 l 103 161 l 109 161 m 37 264 l 38 259 l 39 254 q 41 245 40 248 l 44 252 l 47 256 q 53 264 51 261 l 37 264 m 291 275 l 294 275 q 309 284 309 275 q 305 295 309 288 l 298 294 l 291 292 l 291 275 m 307 224 l 307 255 q 289 242 296 248 l 307 224 m 568 344 q 558 357 564 350 l 554 361 l 551 366 q 529 344 536 351 l 568 344 m 659 247 l 667 252 q 682 264 675 259 l 647 264 l 648 258 l 650 253 q 652 241 651 247 l 659 247 m 40 186 l 50 197 l 55 202 l 59 206 q 73 221 68 216 l 64 226 l 56 231 q 40 239 47 235 l 40 186 m 171 263 l 128 263 q 115 231 115 243 q 121 217 115 222 l 150 217 q 178 247 169 237 q 176 252 178 248 l 174 257 l 171 263 m 368 193 q 408 214 380 199 q 393 244 397 235 l 342 244 q 330 190 338 227 q 364 172 340 184 q 368 193 368 189 m 435 714 q 476 763 474 739 l 476 766 q 444 823 476 790 q 347 837 404 836 l 323 837 l 299 836 q 252 838 270 836 l 252 701 l 276 701 l 316 701 q 343 701 332 701 q 387 707 361 703 l 410 710 l 435 714 m 513 425 q 473 465 491 459 l 446 473 q 420 477 431 477 q 336 479 386 479 l 294 478 l 252 478 l 251 361 q 253 323 251 338 l 294 323 l 336 323 l 359 323 q 415 324 391 323 q 472 336 452 326 q 513 381 500 349 l 513 425 m 522 174 q 532 158 522 165 l 536 155 l 541 151 q 545 140 545 146 l 564 151 l 581 163 q 554 178 572 178 l 553 178 l 545 177 l 537 176 q 525 175 530 175 l 522 175 l 522 181 q 512 215 522 199 q 500 231 508 222 l 494 238 l 488 245 q 481 247 486 247 l 477 247 l 470 246 l 460 246 q 474 204 471 212 q 458 177 467 192 q 441 206 450 191 l 429 190 q 417 172 422 179 l 417 131 l 439 131 q 465 165 458 157 q 523 179 505 172 q 522 174 522 176 m 118 134 l 115 136 l 111 138 q 99 127 106 134 l 94 122 l 90 118 l 96 106 l 101 95 l 112 73 l 119 87 l 127 103 q 121 110 125 106 l 117 115 l 119 118 q 120 121 119 119 q 121 125 121 123 q 119 135 121 129 q 159 121 138 121 q 177 123 168 121 q 168 138 173 130 l 163 146 l 158 153 q 127 127 135 142 l 118 134 m 201 189 q 206 206 204 200 q 219 209 216 208 l 208 222 l 197 237 q 190 218 193 224 l 174 213 q 179 185 174 196 l 170 190 l 162 193 q 145 201 153 198 l 146 192 l 146 182 q 148 163 147 171 q 174 189 168 177 l 201 189 m 20 92 l 20 1059 l 62 1059 l 248 1059 q 434 1060 357 1059 q 494 1053 460 1060 l 522 1046 l 551 1039 q 570 1031 559 1037 l 578 1025 l 587 1019 q 699 888 673 962 q 702 884 699 886 l 705 881 l 711 835 q 715 789 715 807 q 716 777 716 783 q 678 654 716 722 l 678 589 q 753 445 749 527 q 755 390 755 415 q 745 298 755 331 q 681 186 733 258 l 676 168 l 672 149 q 669 123 669 134 q 669 114 669 118 l 673 97 l 675 79 q 677 58 677 68 q 676 44 677 51 l 649 44 q 650 52 650 47 q 649 62 650 56 l 648 79 l 648 82 q 657 115 648 102 q 660 124 660 119 q 644 159 660 137 q 596 131 625 144 l 570 119 l 545 109 q 531 -26 532 54 l 532 -60 l 532 -94 q 533 -132 533 -115 q 532 -161 533 -149 q 536 -189 532 -172 l 542 -216 l 545 -240 q 550 -265 546 -254 q 553 -294 553 -276 l 553 -300 l 552 -320 q 551 -341 551 -333 l 546 -345 q 539 -350 543 -348 q 519 -365 530 -357 q 492 -361 507 -363 q 458 -357 474 -359 q 444 -291 444 -321 q 453 -245 444 -267 q 454 -235 454 -241 l 465 -119 l 470 -92 q 473 -67 473 -77 l 473 -64 q 464 62 472 -15 q 458 76 463 68 l 454 83 l 451 90 l 148 90 l 144 69 l 141 48 q 136 7 137 24 q 134 -35 134 -14 q 136 -75 134 -55 q 153 -174 140 -126 q 153 -183 153 -178 q 152 -198 153 -189 l 149 -211 l 147 -224 q 104 -241 119 -235 l 87 -220 q 68 -199 75 -208 q 88 -36 88 -117 q 75 92 88 28 l 20 92 z "},"C":{"ha":890,"x_min":20,"x_max":870,"o":"m 103 623 l 106 623 l 106 633 l 103 633 l 103 623 m 185 248 l 184 256 l 168 252 l 169 248 l 185 248 m 466 244 l 457 244 l 461 228 l 466 228 l 466 244 m 397 277 q 395 281 397 280 q 389 281 394 281 q 375 281 384 281 q 387 273 381 277 l 392 271 l 395 268 q 397 277 397 274 m 467 121 l 458 117 l 451 112 q 433 102 441 106 l 467 102 l 467 121 m 594 298 l 614 307 l 610 314 l 597 313 l 590 311 l 582 311 l 594 298 m 631 397 l 637 391 l 644 392 q 652 393 648 393 l 650 404 l 649 410 l 648 418 q 637 406 642 412 l 634 401 l 631 397 m 448 121 l 448 124 q 439 139 448 139 q 428 135 435 139 l 429 128 l 431 121 l 448 121 m 245 345 l 265 345 q 262 363 262 359 l 257 362 l 252 361 l 245 359 l 245 345 m 156 392 q 134 387 152 391 l 139 380 l 144 373 q 156 357 151 364 l 156 392 m 192 516 l 199 531 l 205 545 l 199 549 l 177 532 l 181 528 l 185 524 l 192 516 m 534 288 q 562 271 543 282 l 563 279 l 564 288 q 565 306 564 298 q 534 288 551 298 m 300 166 l 322 182 q 314 191 319 186 l 306 199 q 292 174 301 191 l 300 166 m 255 260 l 254 264 l 254 267 l 253 272 q 240 273 245 273 q 227 270 230 273 q 215 241 222 266 q 255 260 237 252 m 363 156 q 355 149 358 152 q 353 140 353 144 q 356 127 353 134 q 389 140 372 134 l 385 146 l 381 151 q 374 163 377 158 l 363 156 m 174 366 l 180 349 l 187 332 l 196 337 l 203 341 q 217 349 212 347 l 209 366 q 202 380 204 375 q 189 373 196 377 l 182 370 l 174 366 m 498 153 q 489 136 496 149 l 484 125 l 478 113 q 491 111 485 111 q 505 114 498 111 q 516 120 509 116 l 526 126 l 498 153 m 639 155 l 630 159 q 616 168 621 164 q 608 158 612 164 l 601 149 q 583 133 593 136 q 578 125 580 132 l 576 119 l 574 113 q 649 149 595 123 q 639 155 644 151 m 72 404 q 90 395 85 395 q 94 394 91 394 q 109 396 99 394 l 103 417 l 96 439 l 72 439 l 72 404 m 743 348 l 726 353 q 692 363 705 359 q 690 338 690 353 l 704 325 l 719 312 q 738 326 726 317 l 748 334 q 760 342 755 338 l 743 348 m 538 238 l 534 251 l 530 262 q 523 283 526 275 l 467 283 l 477 271 l 486 260 l 503 238 l 538 238 m 723 257 q 713 273 719 264 l 710 278 l 707 283 q 684 262 696 273 l 673 252 l 668 248 l 663 243 l 663 209 l 701 209 l 699 220 l 697 232 q 693 257 695 247 l 723 257 m 303 749 q 264 576 264 675 q 276 460 264 522 l 291 460 l 294 495 l 298 530 q 302 601 301 572 q 303 647 303 621 l 303 749 m 374 817 q 370 791 373 806 l 366 766 q 361 720 361 739 l 361 709 q 361 680 361 697 l 360 640 l 360 633 q 370 559 360 590 q 373 542 372 552 l 374 524 q 378 486 374 499 q 382 457 382 475 l 382 452 l 381 434 q 380 418 380 423 l 374 410 l 368 403 q 355 389 360 395 l 313 389 q 359 331 330 349 q 436 307 385 315 q 467 304 452 304 q 603 378 546 304 l 603 452 q 608 486 603 465 l 612 505 q 613 519 613 512 l 613 524 q 612 584 612 545 l 612 614 l 612 645 q 598 770 610 718 q 536 831 570 815 q 441 848 500 848 q 408 846 425 848 q 381 832 391 837 l 381 827 q 380 823 381 825 l 376 818 l 374 817 m 400 170 q 401 159 400 163 q 419 161 410 160 l 418 165 l 418 170 l 418 177 q 407 178 412 178 q 398 177 402 178 l 398 205 l 371 205 l 371 203 q 399 178 371 180 l 400 170 m 341 87 l 340 94 l 337 101 q 336 96 336 97 q 336 96 336 96 q 340 102 337 96 l 342 100 l 351 106 l 347 110 l 345 107 q 342 102 345 106 q 330 77 338 96 q 341 87 341 87 m 661 671 l 661 565 q 675 460 662 503 l 870 460 l 865 433 l 861 406 q 850 351 854 371 q 807 252 836 290 q 806 235 806 245 l 806 227 l 806 218 l 806 215 q 800 186 806 197 q 795 171 796 180 l 795 163 l 796 155 l 796 150 q 787 123 796 132 q 785 88 787 109 l 782 71 l 779 53 q 775 7 775 27 q 777 -18 775 -7 q 798 -159 788 -81 l 801 -175 l 803 -191 q 806 -222 806 -210 l 789 -240 l 772 -257 l 735 -257 q 698 -220 718 -239 q 702 -189 700 -208 l 705 -158 q 719 -95 710 -120 q 720 -88 720 -92 l 720 -83 l 719 -77 l 719 -71 q 720 -64 720 -68 q 719 -54 720 -60 l 719 -38 q 728 -7 720 -19 q 730 -1 730 -5 l 730 2 l 729 7 l 728 12 l 724 37 l 719 62 q 718 73 718 66 l 718 84 q 711 107 718 98 q 707 122 707 111 l 707 125 l 709 136 q 709 145 709 142 l 682 132 l 598 90 q 589 64 592 77 q 583 31 584 47 q 578 -3 583 19 l 576 -20 l 574 -37 l 574 -47 q 579 -111 574 -72 l 584 -146 q 585 -176 585 -162 l 585 -184 q 595 -256 585 -227 q 601 -291 600 -271 l 602 -309 l 604 -326 q 608 -336 604 -330 l 614 -347 l 598 -370 l 589 -382 l 581 -395 q 511 -386 536 -389 q 495 -318 495 -350 q 504 -273 495 -294 q 506 -264 505 -270 l 506 -255 l 511 -186 q 515 -119 515 -146 q 516 -51 516 -91 l 516 34 q 515 51 516 44 q 511 60 515 55 l 508 65 l 505 69 q 479 72 493 72 l 456 72 l 440 71 l 436 71 q 376 83 398 71 q 352 -13 355 47 q 350 -112 350 -56 l 351 -161 l 352 -212 q 355 -243 352 -224 l 358 -259 l 361 -275 q 361 -281 361 -278 q 361 -290 361 -286 l 361 -305 q 370 -334 361 -323 q 371 -336 371 -334 l 370 -339 l 376 -412 l 379 -448 l 382 -483 l 338 -527 l 280 -527 q 264 -516 271 -521 q 244 -502 254 -509 q 230 -457 230 -481 q 237 -421 230 -440 q 241 -401 241 -413 l 242 -382 q 254 -346 243 -357 q 253 -330 253 -338 q 257 -292 253 -313 l 260 -279 l 262 -265 q 264 -238 264 -250 l 264 -3 q 259 31 264 18 q 256 47 257 37 l 256 63 q 245 93 256 83 q 243 102 243 95 l 244 108 l 245 115 l 230 128 l 215 142 q 182 167 197 158 q 156 189 170 174 l 146 201 l 134 214 q 96 265 114 234 l 81 294 l 67 322 q 45 379 54 345 l 38 408 l 31 438 q 20 549 20 486 l 20 557 q 22 616 20 579 l 24 676 q 55 808 25 741 l 67 834 l 79 861 q 109 911 94 891 q 339 1070 208 1040 q 395 1077 363 1076 l 424 1078 l 452 1078 l 481 1078 l 510 1079 q 569 1069 544 1078 q 583 1065 576 1067 q 601 1059 593 1061 q 642 1043 623 1050 q 707 1007 692 1023 l 732 983 l 757 960 q 801 906 785 931 q 845 798 834 849 q 856 769 856 789 l 856 753 q 860 736 857 743 q 865 707 865 726 l 865 671 l 661 671 z "},"D":{"ha":852,"x_min":20,"x_max":831,"o":"m 190 507 l 186 507 l 186 498 l 190 498 l 190 507 m 260 276 q 227 257 245 268 l 260 257 l 260 276 m 456 297 l 456 262 q 478 288 463 269 q 467 293 473 290 l 463 295 l 456 297 m 718 312 q 725 332 725 319 l 725 334 q 694 300 698 330 q 718 312 712 307 m 703 279 l 695 284 q 685 290 690 287 q 686 279 686 285 l 688 269 q 690 250 690 258 q 718 271 709 264 q 703 279 713 274 m 48 157 q 59 159 54 159 l 63 160 l 67 161 l 67 174 l 68 180 l 67 186 q 48 204 66 201 l 48 157 m 588 294 l 562 294 l 562 256 l 588 256 l 588 294 m 361 161 q 372 189 366 174 l 376 201 l 380 213 q 351 228 369 219 l 349 215 l 346 203 q 342 180 343 189 q 349 173 344 178 l 351 171 l 361 161 m 313 279 q 357 303 348 279 l 349 310 l 342 317 q 326 332 332 326 q 330 316 330 323 q 323 301 330 307 l 316 296 l 310 292 q 300 279 302 286 q 313 279 307 279 m 551 726 q 551 686 551 710 l 551 659 l 551 625 l 551 592 q 576 458 552 512 q 581 481 578 468 l 586 505 q 591 541 591 526 q 590 551 591 546 q 589 575 589 562 l 591 600 l 591 611 q 589 647 591 633 q 576 690 586 665 l 568 711 l 560 731 l 551 726 m 262 836 l 262 324 l 286 324 l 293 388 l 300 451 q 304 471 300 458 l 307 481 l 309 490 l 313 513 l 317 535 q 324 566 319 547 l 333 597 q 339 647 339 625 q 338 663 339 655 l 338 667 q 342 680 338 674 q 351 715 351 697 q 345 744 351 729 q 340 770 341 753 l 339 783 q 336 795 338 790 q 321 816 330 804 l 313 826 l 307 836 l 262 836 m 473 347 l 471 358 l 469 368 l 464 386 q 463 391 463 389 q 467 411 463 399 l 471 423 q 473 435 473 429 l 473 441 q 477 479 473 456 l 481 500 q 484 523 484 513 l 484 718 q 469 815 481 775 q 421 828 440 823 q 414 814 418 822 l 410 807 l 406 799 l 406 713 q 406 673 406 690 l 407 640 l 406 607 q 414 541 407 568 q 420 486 419 521 l 420 457 q 423 429 422 441 l 427 405 l 430 380 q 440 332 435 353 l 456 339 l 473 347 m 665 193 l 672 188 l 680 184 q 694 174 688 178 q 687 222 694 198 l 690 218 q 693 216 692 216 q 695 212 694 215 l 697 208 q 699 206 699 206 q 704 211 701 206 q 705 219 705 214 l 705 223 l 705 239 q 694 214 694 229 q 694 207 694 210 q 665 193 689 204 m 20 1059 l 292 1059 q 461 1057 389 1059 q 513 1048 484 1057 l 540 1040 l 566 1031 q 746 896 652 1004 q 814 755 784 852 q 831 638 829 706 l 831 515 q 752 268 831 392 q 743 236 751 267 q 735 203 735 205 q 732 169 734 189 l 727 135 q 724 84 724 106 q 724 66 724 75 l 724 64 q 724 57 724 60 l 720 47 q 716 28 716 35 l 716 27 l 720 -1 l 724 -29 q 726 -65 726 -49 q 725 -85 726 -76 q 735 -109 734 -94 l 735 -134 q 740 -157 736 -142 l 742 -168 l 745 -179 q 745 -184 745 -181 q 745 -191 745 -187 l 745 -204 q 727 -220 739 -210 l 718 -229 l 707 -238 q 696 -239 702 -239 q 640 -182 652 -239 l 642 -181 l 644 -179 q 648 -174 648 -176 q 646 -157 646 -166 q 650 -116 646 -139 l 655 -87 q 658 -58 658 -71 l 657 -28 q 666 2 658 -10 q 670 20 670 8 q 667 40 669 29 l 663 52 l 660 64 q 657 85 657 75 l 657 90 q 658 116 658 100 l 657 146 q 650 153 655 148 l 641 161 q 467 100 551 109 q 444 52 455 87 q 425 -45 425 -6 l 425 -110 q 426 -134 425 -125 q 429 -166 427 -149 l 435 -198 q 435 -208 435 -203 l 435 -214 l 434 -231 l 434 -235 q 444 -262 434 -252 q 445 -267 445 -263 l 445 -271 q 456 -413 450 -332 l 437 -433 l 429 -442 l 421 -450 l 362 -450 q 327 -381 327 -420 q 336 -341 327 -362 q 338 -332 338 -338 l 338 -323 q 340 -291 338 -309 l 342 -275 l 345 -260 q 349 -216 349 -235 q 348 -197 349 -205 q 359 -113 359 -163 l 359 -106 l 357 -62 l 357 -16 l 358 -5 l 358 6 q 349 28 357 19 q 347 37 347 32 l 347 47 q 338 68 347 62 q 337 73 337 69 l 337 76 l 338 82 l 338 89 l 252 89 q 250 60 252 77 l 244 31 q 240 -9 240 9 q 241 -27 240 -19 q 230 -134 230 -72 l 230 -148 l 231 -178 l 232 -209 q 233 -270 233 -248 q 239 -316 233 -288 l 245 -340 q 249 -363 248 -354 l 255 -401 q 260 -438 259 -424 q 262 -471 262 -456 q 258 -515 262 -496 q 243 -530 252 -521 l 229 -545 l 217 -548 l 206 -551 q 185 -558 193 -555 l 160 -546 l 134 -532 q 115 -473 115 -514 q 121 -404 115 -444 l 127 -369 l 133 -335 l 138 -305 l 144 -275 q 146 -237 146 -254 q 145 -214 146 -224 l 145 -210 q 146 -197 145 -205 l 149 -188 q 151 -176 151 -181 q 150 -172 151 -175 l 149 -169 l 148 -165 q 145 -151 145 -157 l 145 -149 q 146 -125 146 -138 q 143 -71 146 -100 l 139 -32 l 134 7 l 131 24 l 127 41 q 125 68 125 56 l 125 75 q 120 83 125 78 l 116 87 l 111 91 l 20 91 l 20 1059 z "},"E":{"ha":690,"x_min":20,"x_max":670,"o":"m 435 140 l 433 140 l 433 130 l 435 130 l 435 140 m 191 391 l 194 391 l 194 401 l 191 401 l 191 391 m 229 342 l 233 342 l 233 353 l 229 353 l 229 342 m 110 476 l 90 476 l 90 471 l 110 471 l 110 476 m 625 141 l 633 142 l 629 158 l 625 157 l 625 141 m 650 180 l 649 189 l 633 184 l 634 180 l 650 180 m 605 128 l 606 120 l 622 123 l 621 128 l 605 128 m 399 122 l 397 130 l 382 126 l 382 122 l 399 122 m 343 549 l 338 573 q 328 549 331 557 l 343 549 m 214 141 l 214 150 l 179 147 l 179 141 l 214 141 m 206 435 l 208 428 l 209 420 l 219 422 l 225 422 q 233 424 229 423 q 212 441 221 434 l 206 435 m 589 155 q 566 159 571 159 l 566 125 q 578 141 572 132 l 583 148 l 589 155 m 478 132 l 505 132 q 507 140 507 136 q 500 149 507 146 l 496 149 l 491 151 q 486 156 486 153 l 478 156 l 478 132 m 330 570 l 330 608 l 322 604 l 315 600 q 300 590 307 594 q 330 570 313 582 m 277 604 l 277 564 q 294 582 290 575 q 295 589 295 585 q 289 604 295 596 l 277 604 m 205 253 l 198 258 q 187 267 191 264 q 168 233 168 256 q 170 216 168 225 q 193 227 183 216 l 203 237 q 214 245 208 242 q 205 253 210 249 m 108 259 q 121 266 117 263 q 141 289 136 274 l 128 298 q 115 307 121 304 q 92 314 103 314 q 85 313 88 314 q 94 253 87 297 l 108 259 m 307 256 q 342 246 331 256 l 358 231 l 375 214 q 382 234 382 226 q 372 250 382 244 q 362 265 362 255 l 363 269 l 363 273 l 363 275 q 363 277 363 276 q 340 293 352 285 l 330 300 l 320 307 l 313 294 l 307 281 q 293 255 299 267 q 307 256 300 256 m 583 271 q 555 285 564 285 l 554 285 q 524 269 545 285 l 530 245 l 536 221 q 517 212 525 216 l 517 200 q 535 197 526 197 q 583 221 562 197 l 583 271 m 265 325 l 302 325 l 302 453 q 279 469 294 469 q 265 465 273 469 l 265 325 m 312 702 q 314 736 314 720 q 300 837 314 786 l 282 836 l 267 835 l 267 702 l 312 702 m 401 467 l 395 458 l 390 449 q 379 432 384 439 q 365 429 374 431 l 359 428 l 353 427 l 353 336 l 366 325 l 444 325 q 458 389 457 351 l 458 454 l 446 467 l 401 467 m 487 701 l 487 736 l 488 771 l 488 788 q 486 805 488 798 q 473 835 484 823 l 380 835 q 381 816 381 826 q 380 801 381 809 l 376 767 q 375 748 375 757 q 387 701 375 720 l 487 701 m 171 90 q 158 8 160 55 l 158 -32 l 159 -72 l 157 -90 l 157 -106 q 163 -138 157 -127 q 166 -153 166 -144 l 166 -170 q 178 -195 166 -188 l 178 -201 q 180 -229 178 -214 l 182 -247 l 186 -264 q 187 -275 187 -270 q 157 -315 187 -304 q 147 -320 153 -317 l 136 -327 l 120 -320 l 104 -314 l 94 -293 q 83 -271 87 -281 l 85 -269 l 87 -266 q 90 -259 90 -262 q 88 -237 88 -249 q 91 -207 88 -223 q 96 -182 93 -197 l 102 -157 q 109 -81 109 -127 l 109 -43 q 110 -5 109 -21 l 110 0 q 87 91 110 35 l 28 91 q 20 527 22 121 l 20 678 q 24 1057 20 958 l 669 1057 l 669 838 l 568 838 l 567 832 l 565 827 l 562 819 l 555 812 l 555 703 q 602 701 572 701 l 626 701 q 650 700 640 701 l 650 469 l 576 469 l 576 427 l 559 414 l 543 401 q 557 325 549 370 l 570 324 l 583 324 l 611 323 l 670 323 l 670 92 l 556 92 q 555 72 556 84 l 554 62 l 553 52 l 553 45 q 558 18 553 28 q 564 1 562 11 l 564 -7 l 564 -16 q 572 -49 564 -37 q 576 -66 576 -57 q 571 -87 576 -75 q 537 -121 560 -107 q 528 -126 534 -123 l 524 -128 l 518 -132 q 459 -120 482 -132 q 460 -136 460 -127 q 459 -155 460 -144 l 459 -172 l 458 -189 l 458 -195 q 467 -257 458 -232 q 475 -304 473 -275 l 476 -330 q 478 -354 477 -345 l 479 -364 l 482 -374 q 487 -394 486 -387 q 488 -415 488 -402 l 488 -436 q 456 -474 467 -469 q 400 -480 445 -480 q 351 -404 351 -465 l 351 -401 q 355 -366 351 -387 l 359 -349 l 361 -332 q 362 -325 362 -328 q 361 -316 362 -321 l 361 -299 q 371 -269 361 -280 q 374 -234 371 -254 l 376 -217 l 378 -200 q 382 -156 382 -176 q 380 -132 382 -143 q 370 -44 375 -100 l 366 0 l 361 44 q 355 66 360 53 l 351 77 l 347 90 l 171 90 z "},"F":{"ha":676,"x_min":20,"x_max":656,"o":"m 196 294 l 199 294 l 199 304 l 196 304 l 196 294 m 58 330 l 47 330 l 47 327 l 58 327 l 58 330 m 151 410 l 148 410 l 148 401 l 151 401 l 151 410 m 50 470 l 58 471 l 54 487 l 50 486 l 50 470 m 156 128 l 157 120 l 172 123 l 172 128 l 156 128 m 56 157 l 47 157 l 51 131 l 56 132 l 56 157 m 154 324 q 170 332 160 327 l 179 336 q 190 340 184 338 l 154 340 l 154 324 m 194 120 l 195 120 q 212 130 212 120 q 208 140 212 134 l 201 139 l 194 138 l 194 120 m 164 473 l 178 460 l 195 472 q 185 481 189 477 l 178 488 l 164 473 m 56 206 l 73 246 l 75 243 l 79 248 l 82 252 q 90 264 87 258 l 59 264 q 45 212 53 243 l 56 206 m 118 286 l 121 273 q 124 252 124 260 l 124 248 q 117 224 123 238 l 112 211 l 106 197 q 124 200 121 199 q 125 209 125 205 l 126 212 l 127 213 q 161 207 144 210 q 164 222 163 214 l 165 229 l 166 235 q 180 238 178 237 q 190 286 186 264 l 179 293 l 168 300 q 145 315 153 309 q 115 300 127 306 l 118 286 m 309 683 l 309 734 q 309 784 309 764 q 305 799 309 790 l 302 806 l 299 814 q 290 831 294 829 q 271 833 286 833 l 262 833 l 262 683 l 309 683 m 445 696 q 444 731 444 709 l 445 766 q 431 835 444 808 l 399 835 l 395 816 l 391 796 q 386 758 387 773 q 385 743 385 750 q 399 682 385 709 l 431 682 l 445 696 m 551 477 l 570 481 l 569 488 q 560 486 563 487 q 552 477 555 484 l 550 479 l 542 473 l 545 469 l 547 471 l 549 475 q 551 486 550 479 l 551 477 m 20 1058 l 656 1058 l 656 838 l 557 838 q 541 769 541 807 l 541 761 q 554 682 542 733 l 627 682 l 627 450 l 575 450 l 561 435 l 560 420 l 560 404 q 561 371 560 385 l 562 356 l 561 341 q 567 311 562 323 q 572 278 572 298 l 571 259 q 572 239 571 247 l 545 212 q 529 196 535 201 q 512 178 520 186 q 511 159 512 172 l 511 149 l 510 138 l 510 128 q 514 96 510 109 q 518 75 517 87 l 519 65 l 519 54 q 532 16 520 29 q 545 -136 540 -85 l 530 -150 q 515 -163 521 -158 q 469 -180 492 -180 q 442 -174 456 -180 q 397 -111 397 -153 q 399 -62 397 -91 l 402 -37 l 404 -10 q 369 21 383 8 q 368 39 368 30 q 370 66 368 52 l 372 87 l 375 107 l 380 155 l 385 201 q 388 265 388 236 q 387 297 388 282 l 386 313 l 386 329 q 395 361 387 347 q 398 376 398 367 q 397 383 398 379 q 391 410 396 393 q 382 392 389 406 q 356 385 373 390 l 327 378 q 290 420 317 390 q 290 431 290 422 l 289 439 l 289 448 l 261 448 l 261 92 l 20 92 l 20 1058 z "},"G":{"ha":915,"x_min":20,"x_max":895,"o":"m 633 269 l 643 269 l 643 272 l 633 272 l 633 269 m 807 298 l 817 298 l 817 301 l 807 301 l 807 298 m 720 694 l 730 694 l 730 698 l 720 698 l 720 694 m 378 197 l 375 197 l 375 188 l 378 188 l 378 197 m 810 555 l 814 555 l 814 566 l 810 566 l 810 555 m 210 401 l 214 401 l 214 410 l 210 410 l 210 401 m 827 320 l 817 320 l 817 317 l 827 317 l 827 320 m 126 323 l 123 323 l 123 314 l 126 314 l 126 323 m 373 228 l 382 229 l 378 245 l 373 244 l 373 228 m 684 227 l 688 227 l 688 246 l 684 246 l 684 227 m 757 477 l 749 476 l 753 460 l 757 460 l 757 477 m 302 332 l 294 331 l 298 315 l 302 315 l 302 332 m 185 130 l 180 130 l 180 111 l 185 111 l 185 130 m 683 622 l 684 614 l 700 617 l 699 622 l 683 622 m 271 385 q 272 393 272 390 q 271 397 272 396 q 264 398 269 398 q 250 397 259 398 q 262 389 256 393 l 267 387 l 271 385 m 652 191 l 673 191 q 669 208 670 203 l 665 207 l 660 206 l 652 205 l 652 191 m 256 451 q 237 448 241 448 q 244 433 240 441 l 248 425 q 254 414 252 418 q 255 433 254 423 l 256 441 l 256 451 m 776 334 q 766 332 772 334 l 761 332 l 755 330 q 776 305 762 322 l 776 334 m 442 432 l 452 456 l 460 474 q 439 481 449 478 q 442 432 440 463 m 655 316 l 633 300 l 637 296 l 641 292 q 649 283 646 286 q 663 309 659 302 l 655 316 m 179 151 l 184 151 l 189 150 q 195 149 193 149 l 197 149 q 207 165 207 150 l 207 167 l 179 167 l 179 151 m 688 323 l 688 354 q 671 350 675 351 q 673 323 673 334 l 688 323 m 673 409 q 691 436 691 422 q 688 448 691 442 l 673 448 l 673 409 m 569 195 l 572 203 l 576 211 l 561 227 q 547 203 547 210 q 560 177 547 197 q 569 195 564 185 m 729 401 q 750 382 736 385 q 756 381 753 381 q 777 385 764 381 l 778 395 l 779 406 q 769 424 779 417 q 764 428 767 426 l 760 430 l 755 433 l 743 417 l 736 410 l 729 401 m 532 257 q 547 301 547 280 q 543 321 547 311 q 532 323 537 323 q 506 306 517 323 l 510 298 q 513 292 513 293 l 511 283 l 509 274 q 506 257 507 264 l 532 257 m 140 299 l 151 288 q 140 267 144 273 l 144 256 l 147 245 l 153 226 l 162 256 l 171 287 l 208 287 q 206 301 207 293 l 205 314 q 195 308 199 311 l 187 302 q 170 315 176 310 q 140 299 160 310 m 209 275 l 192 275 l 180 250 l 190 233 l 201 216 l 224 218 q 248 219 238 218 q 229 248 239 233 l 218 261 l 209 275 m 730 167 q 741 175 734 171 l 744 178 q 747 180 746 180 l 747 225 q 737 227 742 227 q 714 214 724 227 l 709 208 l 703 201 q 690 191 697 193 q 705 158 691 174 l 711 152 l 718 145 q 730 132 726 137 l 730 167 m 545 163 q 532 185 538 174 l 526 182 l 520 180 l 509 176 l 508 170 l 507 163 q 504 152 506 157 q 483 138 498 140 q 476 129 479 138 l 473 121 l 470 114 l 485 99 l 504 102 l 524 106 q 566 113 551 111 l 562 132 q 540 122 547 125 l 537 127 l 534 134 l 528 146 l 545 163 m 457 104 l 451 117 q 446 127 447 124 q 429 134 438 130 l 422 138 l 416 140 l 413 137 l 410 135 l 407 132 q 392 142 399 135 l 382 157 q 354 179 371 178 l 353 166 l 352 153 q 349 120 351 135 q 342 130 345 125 q 336 137 339 133 q 327 148 330 145 q 323 135 323 142 q 330 117 323 126 l 341 105 q 347 90 347 98 l 401 97 l 457 104 m 549 429 q 545 404 545 417 q 549 378 545 391 q 558 356 552 369 l 563 345 l 568 334 q 616 373 597 345 q 630 400 623 383 l 636 414 l 642 429 l 549 429 m 546 813 l 546 772 q 536 734 545 750 q 546 694 545 720 l 546 673 q 547 654 546 662 l 701 654 l 700 668 l 699 683 l 654 683 l 640 725 q 623 765 632 748 q 562 827 601 807 q 555 821 560 825 l 551 818 l 546 813 m 419 846 q 415 846 416 846 l 409 840 q 404 837 406 837 q 350 815 374 836 q 316 772 333 800 q 265 614 265 690 l 265 610 l 267 549 q 273 488 269 515 q 314 387 283 434 q 408 318 353 330 l 413 347 l 418 377 l 416 380 l 414 384 q 411 391 411 388 l 410 648 q 412 649 410 648 l 414 651 l 425 652 l 436 654 q 450 736 450 694 q 426 846 450 791 l 419 846 m 324 324 l 317 332 l 315 329 l 317 328 l 319 326 q 328 325 322 325 l 319 307 l 311 291 l 296 258 l 309 246 q 330 290 318 264 q 345 277 336 285 l 357 266 l 362 271 l 367 275 l 372 270 l 376 267 l 379 264 l 388 269 l 397 274 q 408 265 402 265 q 412 266 410 265 q 419 269 414 267 l 426 273 l 431 269 l 437 266 q 440 276 438 271 l 441 281 l 443 285 l 458 285 l 458 278 l 458 271 q 459 259 459 264 q 444 240 458 245 q 439 239 441 239 q 433 241 436 239 l 428 245 l 423 249 q 410 254 416 254 q 400 251 405 254 l 416 218 l 423 203 l 430 189 q 424 174 427 181 l 419 162 q 439 177 427 171 l 450 181 l 462 184 q 502 205 492 193 l 511 201 q 520 194 516 197 q 528 204 524 198 l 535 213 l 523 225 l 490 225 l 488 220 l 486 216 l 484 208 l 471 208 l 471 292 q 496 310 488 295 q 503 324 500 315 l 510 340 l 457 340 q 428 286 441 310 l 378 286 q 322 322 345 312 l 324 324 m 895 682 l 810 682 q 803 671 808 678 l 798 665 l 793 657 q 833 652 808 652 l 861 652 q 884 651 874 652 l 885 592 l 886 534 l 886 511 q 883 416 886 456 q 877 370 881 388 q 861 324 871 343 q 846 294 855 313 l 838 278 l 831 263 q 791 208 812 227 q 778 186 783 200 l 774 174 l 770 163 q 762 125 764 149 l 760 106 l 759 85 q 756 67 758 78 l 752 50 q 748 18 748 32 l 748 12 q 758 -66 751 -24 q 760 -85 760 -73 l 759 -94 l 759 -103 q 768 -140 759 -126 q 769 -147 769 -142 l 769 -151 l 768 -157 l 768 -163 q 772 -189 770 -174 l 773 -197 l 774 -204 q 777 -222 777 -214 q 748 -267 765 -241 l 703 -267 l 696 -258 l 689 -248 q 675 -227 681 -235 q 671 -218 673 -222 l 671 -214 q 672 -209 671 -211 q 680 -176 680 -197 l 680 -172 l 680 -153 q 683 -136 680 -143 q 689 -102 689 -124 l 689 -80 q 692 -62 689 -70 q 701 -3 701 -34 q 700 21 701 9 q 692 71 698 41 l 687 95 l 682 121 q 447 71 575 71 q 415 72 431 71 l 412 68 l 409 65 q 401 57 405 61 q 401 45 401 52 q 396 0 401 28 l 393 -14 l 391 -29 q 390 -53 390 -42 l 390 -60 q 391 -102 391 -77 l 391 -181 q 395 -205 392 -191 l 398 -218 l 401 -230 q 401 -236 401 -233 q 401 -243 401 -239 l 401 -250 l 400 -256 l 400 -258 q 408 -280 400 -272 q 410 -286 410 -282 l 410 -294 q 410 -308 410 -299 l 408 -321 l 408 -328 q 412 -346 408 -340 q 414 -356 414 -351 l 414 -358 q 412 -368 414 -361 q 409 -380 409 -375 q 411 -388 409 -385 l 398 -399 l 385 -412 l 325 -412 l 319 -404 l 314 -394 q 301 -376 307 -383 q 293 -358 293 -366 q 298 -347 293 -352 q 304 -331 303 -340 l 304 -311 q 313 -251 304 -281 q 315 -237 315 -245 l 315 -229 l 314 -221 q 322 -192 314 -203 q 325 -182 325 -189 l 325 -179 l 323 -171 l 323 -163 l 323 -8 l 323 18 l 323 45 q 311 96 321 75 q 232 130 277 111 q 216 29 216 89 q 219 -32 216 1 l 223 -71 l 227 -111 q 231 -135 228 -120 l 236 -159 q 237 -171 237 -164 l 237 -182 q 245 -205 237 -196 q 248 -215 248 -208 q 247 -222 248 -218 l 246 -233 l 246 -243 q 250 -260 247 -250 l 252 -271 l 255 -281 q 240 -303 250 -289 l 232 -314 l 224 -325 l 173 -325 l 139 -291 q 140 -279 140 -286 l 140 -272 l 139 -252 l 139 -246 q 149 -211 139 -224 q 149 -209 149 -210 l 149 -201 l 153 -132 l 157 -64 q 160 24 160 -16 q 159 75 160 52 q 155 91 158 81 l 153 98 l 151 105 q 145 130 149 115 l 138 154 q 129 203 130 183 q 117 241 127 222 q 94 276 110 255 q 63 340 81 294 q 51 374 57 355 q 46 389 48 381 l 44 395 l 43 399 q 20 572 20 471 q 25 672 20 618 q 136 935 41 833 q 278 1047 212 1016 q 402 1078 345 1078 l 405 1078 l 456 1078 q 507 1079 486 1078 l 517 1079 q 560 1076 538 1079 l 587 1070 l 612 1064 q 674 1039 641 1057 q 703 1022 687 1032 l 732 1004 q 818 916 782 972 q 872 806 842 879 q 875 793 875 800 l 876 781 q 880 756 876 765 q 890 722 887 743 l 892 702 l 895 682 m 533 294 l 530 294 l 530 304 l 533 304 l 533 294 z "},"H":{"ha":844,"x_min":20,"x_max":824,"o":"m 151 488 l 155 488 l 155 498 l 151 498 l 151 488 m 235 301 l 226 301 l 226 298 l 235 298 l 235 301 m 222 227 l 219 227 l 219 217 l 222 217 l 222 227 m 77 342 l 74 342 l 74 333 l 77 333 l 77 342 m 161 120 l 164 120 l 164 130 l 161 130 l 161 120 m 720 143 l 729 143 l 729 146 l 720 146 l 720 143 m 669 383 l 669 391 l 652 388 l 653 383 l 669 383 m 59 342 l 54 342 l 54 323 l 59 323 l 59 342 m 214 449 l 209 449 l 209 430 l 214 430 l 214 449 m 631 277 q 623 275 629 277 l 612 271 l 615 267 l 631 267 l 631 277 m 140 268 q 151 274 142 269 q 158 278 155 276 q 168 283 163 281 l 140 283 l 140 268 m 199 152 q 189 162 196 155 l 174 176 q 178 158 177 165 l 179 153 l 180 149 q 189 150 184 149 l 193 151 l 199 152 m 83 294 q 98 265 87 286 l 98 294 l 83 294 m 621 235 l 612 235 l 616 208 l 621 209 l 621 235 m 234 206 l 227 207 l 219 207 q 216 193 216 199 q 234 169 216 178 l 234 206 m 165 292 q 180 285 170 285 q 185 286 182 285 l 185 314 q 155 312 168 313 q 165 292 161 296 m 234 408 q 216 411 224 411 q 187 395 197 411 l 187 367 l 201 353 l 234 353 l 234 408 m 743 247 l 760 241 l 769 237 q 780 234 774 235 q 768 254 772 246 q 783 283 769 264 q 792 298 789 292 q 798 317 797 307 q 777 309 790 313 l 766 306 l 757 302 q 729 274 736 293 l 735 262 l 743 247 m 132 223 l 128 231 l 125 239 q 119 254 121 249 l 77 254 q 101 206 95 223 l 99 208 l 91 201 l 94 199 q 104 209 98 203 l 132 223 m 734 454 l 745 448 q 757 439 751 443 q 758 458 758 450 q 741 460 745 459 q 725 469 735 469 q 709 465 718 469 l 711 456 q 713 446 712 451 q 739 459 730 455 l 734 454 m 264 1057 l 264 703 l 583 703 l 583 1058 l 824 1058 l 824 92 l 585 92 l 585 467 l 519 467 q 496 317 496 390 q 497 289 496 303 q 501 257 498 277 l 504 241 l 506 225 q 507 218 507 222 q 506 209 507 214 l 505 192 q 504 182 504 186 q 508 163 504 170 q 517 118 517 147 l 518 95 q 524 73 519 82 q 528 36 528 59 l 528 26 l 527 1 q 526 -16 526 -9 l 526 -24 q 530 -45 526 -31 l 534 -57 l 535 -68 l 535 -75 q 516 -127 535 -107 q 458 -151 495 -150 l 441 -151 q 390 -110 416 -130 l 390 -66 q 391 -23 390 -41 q 395 1 391 -13 l 400 26 q 401 32 401 28 q 400 39 401 35 l 399 45 l 399 54 q 408 76 399 68 q 410 79 410 77 l 410 85 q 419 235 415 132 q 421 321 421 287 q 418 376 421 360 q 387 467 410 431 l 264 467 l 264 93 l 27 93 q 20 527 22 123 l 20 693 q 24 1057 20 959 l 264 1057 z "},"I":{"ha":279,"x_min":20,"x_max":259,"o":"m 94 135 l 101 140 l 108 146 q 79 163 100 150 q 77 145 78 156 l 77 140 l 77 135 q 76 121 77 128 q 94 135 85 129 m 64 274 l 69 265 q 102 269 77 266 q 81 296 85 292 l 73 285 l 64 274 m 149 399 q 155 391 152 395 l 157 387 l 159 384 q 167 374 165 376 l 174 377 l 181 380 q 193 387 189 385 l 193 399 l 149 399 m 99 109 q 112 97 107 104 l 116 90 l 119 82 q 140 60 126 64 q 144 75 144 67 q 142 87 144 81 l 138 93 l 136 98 q 131 109 132 104 l 99 109 m 162 350 q 151 353 157 353 l 149 353 q 136 350 143 353 q 119 346 125 346 q 113 347 115 346 q 102 342 110 346 q 96 339 98 340 q 86 335 91 337 q 127 323 106 330 l 162 313 l 162 350 m 208 285 l 222 289 q 218 290 218 290 l 218 290 l 230 285 l 220 285 l 220 256 l 197 256 q 192 267 195 260 l 190 273 l 186 280 q 167 262 169 264 q 174 247 170 256 l 179 233 q 194 242 193 241 l 201 245 l 209 246 q 216 225 213 235 l 220 229 l 224 233 q 232 243 229 239 l 231 252 q 227 264 230 258 q 198 296 220 279 l 208 285 m 20 1058 l 259 1058 l 259 83 l 182 83 l 180 66 l 177 52 q 174 22 174 34 l 174 0 l 175 -22 q 176 -37 176 -30 q 173 -65 176 -54 q 163 -164 163 -104 l 163 -179 l 164 -208 l 165 -237 l 165 -252 q 163 -294 165 -275 q 163 -304 163 -299 q 165 -335 163 -319 l 170 -356 l 173 -376 q 176 -397 175 -385 l 176 -418 q 181 -460 176 -444 q 186 -495 186 -474 l 186 -505 l 185 -517 l 184 -530 q 183 -555 183 -545 q 138 -587 155 -575 q 86 -534 99 -575 l 86 -529 q 96 -484 86 -513 q 97 -473 97 -479 l 97 -462 l 96 -454 l 96 -452 q 106 -425 96 -435 l 106 -420 q 105 -407 105 -414 q 107 -375 105 -392 l 111 -353 l 113 -330 q 118 -276 118 -300 q 115 -241 118 -256 q 106 -137 106 -201 l 106 -127 l 107 -98 l 107 -69 q 105 -12 107 -37 q 98 34 104 7 l 87 81 l 20 81 l 20 1058 z "},"J":{"ha":661,"x_min":20,"x_max":641,"o":"m 76 256 l 73 256 l 73 246 l 76 246 l 76 256 m 260 256 l 256 256 l 256 246 l 260 246 l 260 256 m 273 278 l 282 278 l 282 281 l 273 281 l 273 278 m 111 188 l 115 188 l 115 197 l 111 197 l 111 188 m 598 536 l 595 536 l 595 527 l 598 527 l 598 536 m 53 391 l 56 391 l 56 401 l 53 401 l 53 391 m 66 342 l 63 342 l 63 333 l 66 333 l 66 342 m 92 362 l 95 362 l 95 372 l 92 372 l 92 362 m 243 114 l 253 114 l 253 117 l 243 117 l 243 114 m 465 332 l 456 331 l 460 315 l 465 315 l 465 332 m 338 157 l 330 157 l 334 140 l 338 141 l 338 157 m 203 157 l 195 157 l 199 140 l 203 141 l 203 157 m 389 158 l 389 157 q 398 140 389 140 q 409 144 402 140 l 408 151 l 406 158 l 389 158 m 158 142 q 157 154 157 149 l 155 163 q 153 180 154 174 l 137 163 l 158 142 m 510 188 l 496 174 l 509 157 q 517 167 513 162 l 521 170 l 524 174 l 510 188 m 425 250 q 415 256 421 251 l 410 260 l 404 262 q 392 266 398 266 q 380 262 387 266 q 400 246 387 247 q 413 248 405 246 l 419 248 l 425 250 m 357 271 l 351 275 l 342 279 l 342 237 l 355 237 q 368 263 359 246 q 357 271 365 266 m 241 268 q 227 285 235 275 l 220 292 l 213 299 q 189 268 197 279 l 241 268 m 273 115 l 273 110 l 273 106 l 274 103 l 315 103 q 301 144 307 127 q 273 115 275 119 m 552 280 q 529 285 541 285 q 505 280 517 285 l 495 275 l 485 270 q 463 260 471 263 l 477 208 l 511 208 q 530 231 519 217 l 541 242 q 552 255 547 250 l 552 280 m 156 204 l 165 201 q 178 195 175 197 q 184 189 181 193 l 191 184 q 203 172 197 178 l 203 208 q 193 217 199 212 l 184 225 q 168 239 174 234 q 158 243 165 241 l 152 245 l 146 248 l 155 264 l 165 281 q 134 294 146 292 q 121 296 127 296 q 101 291 111 296 q 83 286 94 287 l 75 286 l 66 285 q 63 282 64 284 l 60 279 l 67 272 l 74 266 q 77 268 75 266 l 79 271 q 83 273 81 273 q 87 272 85 273 l 90 248 q 146 246 128 248 l 146 208 l 127 204 l 128 198 q 138 200 134 199 q 146 208 143 202 l 156 204 m 398 1058 l 640 1058 l 640 869 l 641 710 q 640 391 641 522 q 602 227 638 298 q 445 91 556 136 l 433 86 q 420 82 425 83 q 412 81 416 81 l 392 81 q 378 -52 378 4 q 379 -79 378 -66 l 379 -114 q 387 -149 380 -134 q 391 -164 391 -155 l 391 -186 q 397 -218 391 -207 q 399 -226 399 -220 q 397 -238 399 -231 l 391 -262 l 380 -267 l 372 -271 q 355 -277 360 -275 q 329 -260 339 -274 q 321 -248 326 -256 l 319 -242 l 315 -237 q 331 -58 331 -139 q 320 68 331 11 l 284 75 l 266 79 l 248 82 l 242 52 l 237 22 q 233 -23 233 -3 q 233 -38 233 -31 q 235 -77 235 -54 l 234 -96 l 234 -115 q 233 -141 234 -125 l 231 -167 l 231 -178 q 236 -216 231 -201 q 240 -239 239 -226 l 241 -251 l 241 -262 q 253 -306 241 -291 q 256 -343 253 -321 l 261 -381 q 264 -420 264 -402 q 260 -458 264 -441 q 200 -490 234 -490 q 181 -488 191 -490 q 137 -422 137 -475 l 137 -415 l 138 -399 l 138 -383 q 146 -351 140 -365 q 149 -328 149 -344 l 149 -323 q 150 -307 149 -313 q 153 -292 151 -298 q 163 -247 161 -273 l 165 -223 l 165 -200 q 167 -117 167 -164 q 165 -11 167 -69 l 166 1 l 166 14 q 157 39 165 28 q 155 50 155 43 l 155 65 q 147 88 155 80 q 145 97 145 91 l 145 100 l 146 115 l 131 132 l 115 147 q 84 178 97 165 q 50 226 64 196 q 40 253 45 237 l 31 281 q 20 354 21 311 l 21 391 q 20 429 21 414 l 260 429 l 260 347 q 286 318 268 328 q 300 311 291 315 l 315 306 q 332 302 323 302 q 358 311 345 302 q 389 347 380 324 q 399 401 399 373 l 398 1058 z "},"K":{"ha":872,"x_min":20,"x_max":852,"o":"m 499 256 l 496 256 l 496 246 l 499 246 l 499 256 m 86 191 l 96 191 l 96 195 l 86 195 l 86 191 m 93 227 l 90 227 l 90 217 l 93 217 l 93 227 m 473 511 l 484 511 l 484 514 l 473 514 l 473 511 m 751 188 l 748 188 l 748 178 l 751 178 l 751 188 m 684 140 l 680 140 l 680 130 l 684 130 l 684 140 m 530 254 l 522 253 l 526 237 l 530 238 l 530 254 m 79 519 l 87 519 l 83 536 l 79 535 l 79 519 m 125 84 l 144 84 l 144 89 l 125 89 l 125 84 m 612 260 l 612 245 l 616 246 l 620 247 q 625 248 623 247 l 612 260 m 447 575 l 447 555 l 452 555 l 456 556 q 465 558 461 557 l 464 563 l 463 567 l 461 575 l 447 575 m 229 227 l 224 227 l 224 188 l 229 188 l 229 227 m 791 136 l 772 126 l 776 119 l 789 121 q 804 123 797 123 l 791 136 m 203 286 q 201 297 203 290 l 200 302 l 199 309 l 191 303 l 184 298 q 169 286 176 292 l 203 286 m 203 135 l 209 129 q 215 123 212 124 q 222 121 218 121 q 234 126 227 121 l 226 138 l 218 150 l 203 135 m 524 441 l 530 437 l 542 448 l 555 460 q 547 466 551 463 l 543 469 q 538 473 540 471 q 524 441 532 460 m 143 507 l 127 507 l 127 479 l 143 479 l 143 507 m 106 336 q 102 331 104 334 l 98 327 q 104 317 100 324 l 107 311 l 111 304 l 117 304 l 123 305 q 141 307 132 306 l 135 317 l 130 328 q 118 352 123 342 q 106 336 111 343 m 193 587 q 172 614 193 609 q 151 601 157 604 q 181 576 161 576 q 193 578 186 576 q 193 587 193 583 m 565 227 l 559 214 l 553 203 q 569 180 560 193 l 583 160 l 608 160 l 608 191 q 584 227 593 214 l 565 227 m 519 543 l 519 703 l 484 667 l 468 652 l 452 635 q 519 543 484 579 m 123 168 l 130 168 l 136 167 q 127 142 131 153 q 136 135 130 138 l 140 132 l 145 130 q 157 113 157 123 l 168 117 l 176 119 l 193 124 l 193 126 q 172 148 193 144 l 163 150 q 155 152 159 151 q 146 163 148 155 l 151 172 l 157 180 q 148 188 152 184 l 146 190 q 116 161 123 178 l 115 170 l 96 165 l 97 159 q 105 161 103 160 q 107 165 107 163 q 106 170 107 167 q 123 168 115 169 m 81 299 l 75 289 q 67 277 71 282 q 85 275 77 276 q 86 287 86 282 q 85 295 86 292 l 87 294 l 95 300 l 92 303 l 89 299 q 87 294 87 297 l 81 299 m 134 52 l 140 43 l 144 47 l 142 48 l 138 50 q 127 52 135 52 l 136 53 l 132 71 l 125 71 q 127 62 126 64 q 136 54 130 57 l 134 52 m 20 1058 l 260 1058 l 260 772 q 266 771 263 771 q 275 775 271 771 q 278 781 277 777 l 280 783 l 281 785 q 310 823 291 803 l 343 856 l 400 917 q 456 979 433 952 q 490 1019 470 995 l 522 1058 l 840 1058 q 834 1046 840 1051 l 829 1042 q 825 1038 826 1040 q 817 1029 821 1034 l 808 1020 l 797 1010 q 787 1000 791 1004 q 780 988 784 996 l 777 982 l 773 977 q 765 968 770 972 l 735 938 l 735 907 l 734 876 l 734 829 q 726 783 733 802 q 724 766 724 776 q 727 742 724 755 l 732 722 q 735 701 735 709 l 732 656 l 732 650 q 737 614 732 628 q 741 595 740 606 l 741 585 l 741 576 q 747 541 741 552 q 753 507 753 528 l 753 484 q 755 466 753 474 q 713 429 735 448 q 692 435 707 431 l 680 438 l 667 441 l 661 452 l 656 463 q 646 481 650 473 q 658 528 657 500 l 657 551 q 658 574 657 566 l 660 596 l 663 618 q 667 662 666 646 l 667 686 l 667 711 l 667 725 q 668 759 667 746 q 669 767 669 763 q 667 781 669 774 l 665 793 l 663 804 q 658 840 658 825 q 659 852 658 847 q 637 829 648 841 l 628 818 l 618 806 l 612 774 q 605 739 607 752 q 599 680 599 707 q 600 666 599 673 q 589 623 590 649 l 590 600 q 589 578 590 587 q 587 566 589 573 l 584 553 q 582 538 582 544 q 583 530 582 534 q 589 505 589 520 l 589 492 q 589 479 589 485 q 633 391 596 437 l 689 320 l 745 249 l 759 231 l 773 212 l 785 195 l 798 179 l 823 143 l 848 108 q 850 102 850 106 l 851 98 l 852 93 l 770 93 q 754 8 754 62 l 754 -72 q 753 -96 754 -81 l 751 -121 l 751 -131 q 756 -168 751 -153 q 761 -191 760 -178 l 762 -202 l 762 -214 q 772 -258 763 -242 q 776 -274 776 -264 l 776 -277 l 774 -289 q 774 -300 774 -296 l 740 -334 l 701 -334 l 667 -301 l 667 -292 q 684 -186 667 -250 q 686 -172 686 -180 l 686 -158 l 687 -64 q 686 31 687 -9 q 682 60 686 43 l 679 75 l 675 90 l 642 90 q 633 64 637 79 l 630 52 l 627 38 q 621 -31 622 14 l 621 -64 q 617 -98 619 -83 l 613 -121 l 610 -142 q 608 -164 608 -154 q 610 -186 608 -176 q 616 -224 614 -202 l 621 -263 q 636 -340 626 -311 q 646 -391 643 -359 l 646 -404 l 647 -416 q 648 -440 648 -431 q 568 -499 623 -499 q 548 -497 559 -499 q 500 -450 534 -482 l 503 -424 l 505 -399 q 514 -351 507 -370 q 519 -323 518 -341 l 519 -310 q 522 -296 521 -302 q 532 -229 532 -269 l 532 -62 q 532 -20 532 -37 q 529 5 532 -9 l 526 18 l 522 29 q 521 41 521 34 l 520 52 q 516 75 520 66 q 511 108 511 87 l 511 117 l 511 147 l 484 184 l 456 221 l 399 296 q 285 450 334 385 l 273 437 l 267 430 l 260 422 l 260 92 l 188 92 q 174 39 174 73 l 174 33 l 174 10 l 176 -12 l 176 -19 q 172 -54 176 -40 q 163 -168 163 -100 l 163 -176 l 163 -206 l 165 -237 q 165 -270 165 -255 q 165 -298 165 -286 l 165 -303 q 168 -336 165 -317 l 171 -356 l 174 -376 l 175 -394 l 176 -412 q 181 -450 176 -435 q 185 -484 185 -463 l 185 -507 l 184 -519 q 183 -545 183 -535 q 161 -561 175 -551 l 150 -569 l 138 -577 q 88 -532 99 -568 q 87 -519 87 -526 q 96 -475 87 -500 q 97 -465 97 -470 l 97 -460 l 96 -452 l 96 -441 q 106 -416 96 -425 l 106 -411 q 105 -397 105 -404 q 107 -366 105 -383 l 110 -344 l 113 -321 q 117 -266 117 -290 q 115 -231 117 -246 q 106 -127 106 -191 l 106 -89 l 107 -60 q 105 -3 107 -27 q 98 43 104 16 l 92 67 l 87 91 l 20 91 l 20 1058 z "},"L":{"ha":686,"x_min":20,"x_max":666,"o":"m 229 275 l 225 275 l 225 265 l 229 265 l 229 275 m 170 178 l 167 178 l 167 169 l 170 169 l 170 178 m 267 227 l 264 227 l 264 217 l 267 217 l 267 227 m 486 208 l 490 208 l 490 217 l 486 217 l 486 208 m 183 524 l 174 524 l 174 520 l 183 520 l 183 524 m 535 227 l 538 227 l 538 236 l 535 236 l 535 227 m 229 333 l 225 333 l 225 323 l 229 323 l 229 333 m 210 378 q 195 378 200 378 q 187 378 189 378 q 186 374 186 377 q 187 367 186 372 l 210 378 m 553 241 l 553 226 q 566 228 564 228 l 553 241 m 177 406 q 191 416 183 410 l 199 422 q 208 429 204 426 l 173 429 q 175 418 174 424 l 176 412 l 177 406 m 242 248 l 247 248 l 252 247 q 259 246 256 246 l 261 246 q 270 262 270 247 l 270 264 l 242 264 l 242 248 m 637 172 l 628 168 l 621 163 q 605 154 612 158 q 621 145 611 151 l 629 141 l 637 137 l 637 172 m 263 290 q 223 306 237 300 l 223 288 l 239 281 l 256 273 q 259 281 257 276 l 261 285 l 263 290 m 319 157 q 347 183 347 163 l 347 186 l 319 186 l 319 157 m 357 138 l 336 140 l 334 140 q 317 134 324 140 q 344 111 324 111 q 357 113 350 111 l 357 138 m 59 583 l 64 576 l 60 575 l 56 574 l 57 574 q 72 541 63 561 q 79 553 75 547 l 85 564 q 96 583 92 576 l 59 583 m 580 212 l 601 205 q 624 197 614 200 l 632 209 l 637 216 q 644 225 641 221 q 608 227 623 227 q 580 224 591 227 l 580 212 m 20 1058 l 259 1058 l 259 325 l 666 325 l 666 93 l 476 93 l 464 68 q 455 44 457 54 q 445 -58 447 -3 q 444 -133 444 -98 q 445 -199 444 -168 l 446 -225 l 446 -252 q 452 -307 446 -284 q 463 -357 458 -326 l 467 -383 l 472 -410 q 475 -447 475 -425 l 475 -454 l 474 -478 l 473 -501 q 422 -547 459 -540 q 404 -549 414 -549 q 355 -538 382 -549 q 342 -519 349 -530 l 336 -511 l 328 -500 q 328 -481 328 -494 l 326 -461 l 326 -452 q 331 -420 326 -433 q 334 -403 333 -413 l 335 -395 l 336 -386 q 348 -355 337 -365 l 348 -350 q 350 -328 348 -340 l 352 -315 l 355 -301 q 359 -261 359 -277 q 358 -248 359 -254 l 357 -239 l 357 -231 q 364 -216 357 -222 q 368 -208 367 -214 l 368 -204 q 367 -199 368 -201 q 356 -155 356 -181 l 356 -153 l 357 -129 q 358 -105 358 -114 q 349 -34 358 -79 l 342 1 q 338 37 339 21 q 317 71 338 38 q 318 50 318 60 q 317 33 318 41 l 315 16 l 313 -1 q 308 -47 308 -28 q 309 -64 308 -57 q 314 -98 313 -79 l 317 -131 q 328 -197 319 -174 q 328 -205 328 -201 q 326 -221 328 -212 l 322 -234 l 319 -247 q 267 -259 283 -255 l 260 -252 l 254 -245 l 240 -232 l 241 -220 l 243 -207 l 246 -180 l 247 -177 l 249 -174 q 251 -168 251 -170 l 255 -123 l 260 -80 q 262 -28 262 -52 q 260 7 262 -9 q 255 47 259 23 l 251 68 l 247 90 l 248 90 l 246 90 l 244 91 l 20 91 l 20 1058 z "},"M":{"ha":985,"x_min":20,"x_max":965,"o":"m 541 153 l 551 153 l 551 156 l 541 156 l 541 153 m 160 623 l 157 623 l 157 614 l 160 614 l 160 623 m 134 336 l 144 336 l 144 340 l 134 340 l 134 336 m 415 349 l 406 349 l 406 346 l 415 346 l 415 349 m 393 382 l 389 382 l 389 372 l 393 372 l 393 382 m 525 72 l 528 72 l 528 81 l 525 81 l 525 72 m 552 218 l 561 220 l 557 235 l 552 235 l 552 218 m 376 404 l 395 404 l 395 408 l 376 408 l 376 404 m 776 197 l 781 197 l 781 217 l 776 217 l 776 197 m 842 277 l 851 277 l 847 294 l 842 293 l 842 277 m 871 293 l 872 284 l 888 288 l 888 293 l 871 293 m 868 257 l 867 266 l 852 262 l 852 257 l 868 257 m 193 248 l 212 248 l 212 253 l 193 253 l 193 248 m 582 595 l 587 595 l 587 614 l 582 614 l 582 595 m 543 171 q 533 181 540 174 q 527 187 529 185 q 519 195 523 191 q 522 178 521 184 l 524 172 l 524 168 q 533 170 528 168 l 538 170 l 543 171 m 765 121 l 774 123 l 770 148 l 765 147 l 765 121 m 163 319 q 182 294 163 304 q 182 299 182 297 q 164 323 182 314 q 163 319 163 321 m 447 188 l 447 168 l 452 168 l 456 170 q 464 171 461 170 l 463 176 l 463 180 l 460 188 l 447 188 m 444 365 l 465 365 q 461 382 463 376 l 456 381 l 452 380 l 444 378 l 444 365 m 300 366 l 310 370 l 317 374 q 302 393 311 382 l 300 385 q 299 378 299 381 q 300 371 299 375 l 300 368 l 300 366 m 49 326 l 57 326 l 55 361 l 49 361 l 49 326 m 444 515 l 424 515 q 427 497 426 503 l 432 498 l 436 499 l 444 500 l 444 515 m 220 315 q 210 313 216 314 l 206 313 l 201 311 l 203 298 l 204 283 q 213 286 208 284 l 220 287 l 220 315 m 502 234 l 510 238 l 510 266 q 475 263 494 264 q 490 246 482 255 l 502 234 m 96 495 q 87 496 91 496 q 65 471 70 496 l 96 471 l 96 495 m 606 359 q 621 351 612 355 l 635 344 l 642 352 q 647 360 646 357 q 648 366 648 362 l 648 377 q 618 391 640 381 l 606 359 m 890 152 q 905 149 899 149 q 922 158 916 149 q 928 172 925 163 l 930 180 l 932 188 q 944 179 941 181 l 949 182 l 941 196 q 933 212 937 203 q 912 178 917 185 q 890 178 898 178 l 890 152 m 500 113 q 511 126 506 120 q 528 145 519 135 l 516 150 l 506 154 q 488 163 494 159 q 481 152 485 158 l 475 142 q 464 124 469 132 l 481 119 l 490 116 l 500 113 m 115 347 l 109 351 l 104 355 q 96 361 98 358 q 89 376 93 366 l 82 389 q 77 391 81 391 l 68 391 l 68 364 q 86 358 77 361 q 80 337 83 349 l 74 315 l 115 315 l 115 347 m 147 145 q 172 155 159 145 l 180 161 l 186 166 q 203 172 195 172 l 197 178 l 193 182 q 183 192 187 189 q 167 198 176 198 q 157 196 162 198 l 151 179 l 134 178 l 116 177 q 117 173 117 175 q 113 163 117 168 l 102 151 q 94 135 94 142 q 100 121 94 127 q 109 120 105 120 q 137 146 131 120 q 147 145 142 145 m 570 264 l 576 265 l 595 233 q 621 267 613 242 l 628 286 q 641 303 633 296 q 586 324 597 319 q 570 311 577 317 l 570 264 m 348 235 l 356 242 l 353 245 l 350 241 q 349 235 349 239 l 347 237 l 338 231 l 342 228 l 345 232 q 347 237 346 234 l 348 235 m 735 92 l 735 446 q 659 277 701 375 l 623 191 l 587 104 q 559 84 566 103 q 555 67 557 79 l 553 58 l 551 50 q 540 -52 540 9 l 540 -58 l 541 -85 l 541 -113 q 542 -144 542 -130 q 541 -168 542 -157 q 551 -206 550 -183 l 550 -227 q 551 -246 550 -239 q 555 -271 552 -256 l 560 -296 q 561 -300 561 -298 q 560 -307 561 -303 l 560 -313 l 559 -319 q 570 -340 559 -332 l 570 -423 q 564 -436 567 -429 l 560 -442 l 557 -448 l 545 -454 l 532 -460 q 504 -474 517 -467 l 474 -452 q 446 -432 457 -440 q 444 -407 446 -422 l 444 -395 l 443 -382 l 443 -373 q 448 -339 443 -352 q 452 -318 452 -330 l 452 -308 l 451 -297 l 451 -294 q 463 -258 451 -271 q 464 -256 464 -258 l 463 -254 q 462 -234 462 -245 q 466 -193 462 -216 l 471 -163 q 473 -132 473 -145 l 473 -100 l 475 -68 l 475 -58 q 471 -6 475 -27 l 468 20 q 465 47 466 37 q 447 94 459 77 l 439 100 l 401 101 l 387 138 l 372 178 l 359 178 l 355 146 l 351 114 q 348 74 348 92 q 349 52 348 62 l 353 22 l 357 -7 q 370 -67 362 -43 q 355 -79 364 -72 l 347 -85 q 338 -92 342 -89 l 302 -92 l 300 -90 l 298 -87 q 294 -79 296 -83 q 279 -58 287 -70 l 279 -55 q 286 -17 279 -42 l 289 -5 l 292 7 q 298 33 296 22 q 303 89 303 64 q 297 138 303 117 q 289 193 290 162 l 290 219 l 290 245 l 290 252 q 289 272 290 261 l 287 284 l 284 297 q 279 338 279 322 q 279 348 279 344 q 271 373 273 358 l 270 386 l 270 399 q 252 451 269 435 l 252 92 l 20 92 l 20 1058 l 254 1058 l 313 915 l 372 772 q 491 483 443 601 l 494 488 l 498 494 q 502 503 500 499 l 515 532 l 528 562 q 553 621 543 597 q 601 742 583 703 l 629 806 q 654 869 644 842 q 671 907 661 886 l 688 945 q 715 1023 709 991 q 724 1041 718 1031 l 730 1050 l 736 1058 l 965 1058 l 965 92 l 918 92 q 919 66 919 80 q 914 -5 919 36 l 911 -28 l 909 -52 q 907 -89 907 -72 l 907 -100 q 928 -290 910 -180 l 924 -294 l 921 -298 q 913 -307 916 -304 q 887 -315 902 -315 l 882 -315 q 878 -302 881 -311 l 874 -293 l 871 -283 l 860 -292 l 866 -245 l 873 -197 q 881 -102 880 -142 l 881 -96 q 876 -7 881 -64 l 873 17 l 871 41 q 869 92 869 69 l 735 92 z "},"N":{"ha":831,"x_min":20,"x_max":810,"o":"m 123 178 l 119 178 l 119 169 l 123 169 l 123 178 m 720 285 l 723 285 l 723 294 l 720 294 l 720 285 m 774 239 l 784 239 l 784 243 l 774 243 l 774 239 m 781 788 l 777 788 l 777 779 l 781 779 l 781 788 m 639 123 l 648 123 l 648 127 l 639 127 l 639 123 m 629 146 l 619 146 l 619 143 l 629 143 l 629 146 m 781 149 l 777 149 l 777 140 l 781 140 l 781 149 m 629 404 l 639 404 l 639 408 l 629 408 l 629 404 m 203 229 l 222 229 l 222 234 l 203 234 l 203 229 m 376 283 l 368 282 l 371 267 l 376 267 l 376 283 m 145 519 l 165 519 l 165 524 l 145 524 l 145 519 m 205 176 l 205 168 l 222 172 l 221 176 l 205 176 m 498 479 l 494 488 l 490 498 l 486 496 l 486 479 l 498 479 m 38 292 q 42 267 39 282 q 46 276 44 272 l 49 283 q 54 292 53 290 l 38 292 m 106 220 q 104 226 106 224 q 100 227 102 227 l 98 227 l 94 226 l 90 225 q 101 203 97 212 q 106 220 106 215 m 39 158 l 39 157 q 48 140 39 140 q 59 144 52 140 l 58 151 l 56 158 l 39 158 m 389 352 q 403 354 394 353 l 411 355 q 421 357 416 356 q 411 361 416 359 l 402 364 q 387 370 393 368 l 388 361 l 388 357 l 389 352 m 766 322 l 770 315 q 783 299 777 307 l 783 334 q 760 330 770 332 l 766 322 m 138 127 l 144 134 q 127 165 138 144 q 119 155 123 161 l 116 151 l 113 146 q 126 136 119 142 l 138 127 m 421 623 q 439 631 429 623 q 401 646 425 636 q 421 623 408 623 m 709 238 q 738 261 730 238 q 728 265 732 263 l 716 271 q 707 259 713 267 l 699 251 q 691 241 695 245 q 709 238 701 238 m 401 293 q 395 276 398 283 l 416 276 l 416 317 q 415 334 416 329 l 404 332 q 391 328 397 329 q 396 321 393 324 l 400 316 q 407 308 404 311 l 401 293 m 106 337 q 67 319 80 325 l 68 302 l 70 286 l 106 286 l 106 337 m 221 268 l 221 330 l 209 342 l 203 330 l 197 318 q 183 291 189 302 q 221 268 202 272 m 494 423 l 509 411 l 525 397 q 555 445 538 417 q 522 463 538 454 q 494 423 511 447 m 164 449 q 186 446 175 449 l 182 437 l 179 429 q 172 414 174 420 q 188 410 178 412 l 193 420 l 198 431 l 205 429 l 211 427 q 224 418 212 427 q 222 440 223 428 l 222 468 q 219 502 222 488 q 198 490 205 494 l 190 495 q 184 498 186 497 l 174 493 l 164 488 l 146 477 l 125 488 l 106 498 l 98 490 l 91 484 q 77 471 81 475 q 83 427 83 446 q 81 404 83 414 q 164 449 121 449 m 524 276 l 517 284 l 514 281 q 524 277 518 277 l 526 277 l 543 259 l 562 241 q 571 238 565 239 l 576 237 l 582 237 q 604 228 597 237 q 623 241 610 232 l 633 249 q 644 257 639 254 l 637 260 l 632 262 q 623 267 626 264 q 616 277 620 270 l 613 283 q 608 292 610 288 q 602 279 605 287 l 597 267 q 578 256 591 256 l 577 256 q 557 288 570 267 q 522 274 534 279 l 524 276 m 144 247 l 136 240 l 140 237 l 142 241 q 144 247 144 244 l 146 245 l 154 252 l 151 255 l 148 251 q 146 245 146 248 l 144 247 m 764 -252 l 742 -275 l 703 -275 l 690 -263 l 684 -256 l 677 -250 q 679 -233 679 -243 l 678 -223 l 677 -214 l 677 -208 q 684 -177 677 -189 q 688 -159 688 -170 l 688 -151 l 688 -141 l 688 -136 q 696 -104 688 -115 q 698 -98 698 -102 l 697 -94 l 696 79 q 657 92 682 92 l 631 92 q 607 94 618 92 l 589 119 l 572 145 q 534 198 551 175 q 458 308 492 258 l 452 286 l 446 264 q 435 222 439 239 q 426 163 428 189 q 425 132 425 148 q 426 100 425 116 q 430 66 427 87 l 435 32 q 436 24 436 28 q 435 16 436 20 l 435 7 l 435 -1 q 445 -32 435 -20 l 450 -96 q 454 -159 454 -133 l 454 -163 q 444 -205 454 -193 q 398 -229 433 -218 q 391 -232 395 -229 l 386 -234 l 377 -233 l 368 -231 q 353 -228 359 -230 q 310 -165 310 -212 l 310 -157 q 318 -62 310 -109 q 321 -12 321 -39 l 321 -2 l 321 28 l 319 59 l 319 66 q 322 98 319 80 l 326 118 q 329 137 328 129 l 330 157 l 332 176 q 336 216 333 200 q 340 261 340 234 l 340 275 l 339 306 l 339 336 q 333 385 339 355 l 328 408 q 323 431 324 421 q 311 486 321 452 l 307 500 l 303 513 q 296 544 298 530 q 278 566 290 551 l 268 579 l 258 593 l 256 593 l 254 592 l 252 591 l 252 589 l 252 93 l 20 93 l 20 1057 l 228 1057 l 239 1039 l 250 1019 q 276 983 264 996 q 318 925 293 964 l 337 895 q 358 867 349 879 q 412 790 379 841 l 439 751 q 466 713 454 729 q 517 640 488 684 l 542 603 l 566 566 l 568 567 l 569 568 q 571 573 571 571 l 571 1057 l 810 1057 l 810 92 l 759 92 l 755 73 l 751 55 q 746 18 747 33 q 745 -9 745 7 l 745 -20 l 745 -59 l 745 -75 l 746 -91 q 754 -123 747 -109 q 757 -138 757 -130 l 757 -154 q 763 -187 757 -175 q 767 -210 767 -195 l 767 -217 l 766 -235 l 764 -252 z "},"O":{"ha":941,"x_min":20,"x_max":921,"o":"m 366 91 l 363 91 l 363 81 l 366 81 l 366 91 m 392 62 l 395 62 l 395 72 l 392 72 l 392 62 m 532 132 l 531 140 l 515 136 l 516 132 l 532 132 m 174 176 l 165 176 l 170 160 l 174 161 l 174 176 m 595 378 q 595 363 595 369 q 595 357 595 358 q 600 355 596 355 q 607 356 603 355 l 595 378 m 424 161 q 425 177 425 172 q 424 184 425 182 q 419 185 422 185 q 412 184 416 185 l 424 161 m 874 451 l 883 452 l 879 477 l 874 477 l 874 451 m 372 157 l 378 163 q 386 172 382 168 q 368 168 376 170 l 363 167 l 359 165 q 362 146 360 157 q 372 157 366 151 m 351 244 l 352 236 l 378 239 l 377 244 l 351 244 m 787 188 l 793 188 l 794 199 q 795 210 794 205 q 799 218 796 213 l 802 222 l 805 229 l 785 224 l 786 205 l 787 188 m 245 370 l 256 351 q 271 367 268 363 l 264 374 l 258 382 q 251 374 255 378 l 248 372 l 245 370 m 642 254 l 644 248 l 646 241 q 652 231 649 234 q 659 227 653 229 l 670 226 l 669 235 l 669 242 q 668 254 668 250 l 642 254 m 694 355 q 669 328 669 345 q 673 314 669 321 q 691 325 682 319 q 698 330 694 328 l 704 334 l 699 345 l 694 355 m 448 106 l 448 101 l 489 101 q 492 103 490 101 l 494 106 l 470 131 q 448 106 448 125 m 83 557 l 67 550 l 58 546 l 50 542 q 52 517 51 528 l 75 517 l 81 533 l 85 542 l 90 551 l 83 557 m 575 476 l 567 499 q 543 474 543 489 l 543 473 l 545 467 l 545 464 l 545 462 l 564 456 q 584 451 575 454 q 575 476 581 461 m 288 160 l 278 165 l 269 170 l 252 153 q 316 129 281 142 q 325 141 319 134 l 330 149 q 336 158 333 154 q 313 159 314 159 q 303 163 309 160 l 295 167 q 291 163 293 165 l 289 161 l 288 160 m 551 278 l 562 289 q 572 301 568 295 q 583 335 582 316 l 570 332 l 559 329 l 538 323 q 526 336 533 329 q 506 288 516 311 q 551 278 530 283 m 204 256 q 166 222 185 239 l 166 218 q 186 188 166 193 l 205 198 l 225 208 l 233 203 l 240 199 q 247 205 243 201 q 252 211 250 210 l 229 256 l 204 256 m 442 217 q 451 186 446 203 l 454 172 l 458 159 l 468 159 l 477 159 q 494 159 487 159 q 507 154 499 157 l 515 151 l 522 148 l 522 209 l 499 209 q 503 236 500 221 l 495 239 l 488 229 q 479 217 484 223 l 442 217 m 590 187 l 590 158 l 585 159 l 581 160 q 575 161 576 161 q 584 191 581 182 l 568 208 l 560 192 l 553 177 q 566 155 561 163 l 553 146 l 543 138 l 557 123 l 571 111 q 592 119 579 115 l 614 123 q 651 149 642 129 l 613 187 l 590 187 m 297 496 l 306 532 q 320 604 316 575 q 323 641 323 621 q 320 682 323 660 q 314 720 318 699 l 307 758 q 273 670 277 701 q 269 602 269 648 q 273 473 269 551 l 280 466 q 288 458 284 461 l 297 496 m 608 798 l 602 796 l 602 736 q 602 677 602 701 q 597 618 600 657 l 594 589 l 593 559 l 593 557 q 593 551 593 555 l 597 543 q 601 526 601 532 l 601 519 q 610 462 601 497 l 614 446 l 618 431 q 624 397 623 412 q 669 515 661 442 q 674 575 674 554 q 673 604 674 588 l 669 632 l 665 667 q 659 701 663 686 q 652 717 658 707 l 647 725 l 643 732 l 608 798 m 484 302 q 486 332 485 314 l 488 360 q 496 414 491 393 q 513 517 506 454 q 515 559 515 534 l 515 572 l 515 628 l 515 704 q 514 739 515 724 q 509 792 513 760 l 505 819 l 501 847 q 473 846 490 846 l 458 846 l 444 847 q 389 831 410 846 l 384 804 l 379 777 l 376 762 l 373 747 q 370 718 370 730 q 370 701 370 710 q 370 679 370 691 l 369 640 l 369 633 q 378 562 369 591 q 381 545 380 555 l 382 528 q 387 493 383 505 q 390 477 389 486 l 391 469 l 391 460 q 397 425 391 437 q 398 421 398 423 q 397 413 398 418 l 394 406 l 392 399 q 371 372 389 382 q 354 363 366 369 l 345 359 l 334 355 l 340 351 l 346 348 l 356 342 l 379 328 l 390 322 l 400 317 q 441 309 417 314 l 463 306 l 484 302 m 714 198 l 719 198 q 734 200 725 198 l 740 201 l 747 203 l 768 211 q 764 215 766 213 l 760 218 q 755 223 758 221 q 789 245 768 231 q 763 246 777 245 q 729 216 745 230 q 717 222 723 218 l 710 226 l 703 229 l 701 224 l 697 219 q 689 208 694 213 l 680 207 q 669 206 673 206 l 670 197 l 671 188 l 675 189 l 680 189 l 688 189 q 690 205 688 201 q 714 198 701 198 m 119 305 l 112 313 l 109 310 l 111 308 l 114 307 q 125 304 118 305 l 117 304 l 121 285 l 127 286 q 125 295 126 292 q 117 303 123 300 l 119 305 m 821 -308 q 755 -299 793 -304 q 728 -258 736 -272 l 727 -255 l 727 -247 q 728 -240 727 -243 l 731 -221 l 733 -203 q 739 -167 736 -178 q 741 -149 741 -160 l 742 -140 l 743 -131 q 756 -97 745 -109 l 760 -56 l 762 -14 q 765 57 765 26 l 765 68 q 758 113 764 86 l 751 134 l 745 155 l 722 142 l 699 130 q 651 107 671 115 l 625 97 q 600 87 611 91 q 557 81 577 81 q 545 81 551 81 q 497 71 527 71 l 490 71 l 475 72 l 460 72 q 429 69 443 72 q 407 -72 409 -18 l 407 -88 q 410 -153 407 -117 l 415 -193 l 420 -232 q 428 -325 425 -281 q 431 -333 428 -328 l 434 -336 l 436 -340 l 410 -391 l 342 -391 l 334 -381 l 327 -370 q 313 -351 317 -357 q 315 -331 314 -342 l 316 -322 l 317 -314 q 321 -283 319 -296 q 331 -224 325 -258 q 332 -218 332 -221 q 331 -210 332 -214 l 330 -195 l 330 -193 q 339 -165 330 -176 q 342 -153 342 -161 l 340 -144 l 340 -137 l 340 -76 q 340 -16 340 -40 l 340 -12 q 333 34 340 7 l 326 58 q 320 83 322 73 q 297 102 319 94 q 258 119 281 108 l 239 130 l 219 140 l 216 134 q 214 129 215 131 l 214 111 l 213 94 q 205 60 212 75 q 201 28 202 50 l 201 12 q 197 -5 199 3 q 191 -37 191 -22 q 200 -74 191 -56 q 205 -92 203 -81 l 207 -120 l 208 -148 q 216 -203 211 -182 q 224 -270 224 -237 l 224 -275 q 171 -316 199 -294 q 122 -292 131 -300 q 99 -253 113 -284 l 101 -250 l 104 -248 q 107 -243 106 -245 q 108 -224 108 -235 l 108 -204 q 117 -165 109 -180 l 117 -156 q 119 -113 117 -136 l 121 -87 l 124 -61 q 129 9 129 -20 q 127 43 129 28 l 123 75 l 118 107 q 117 117 117 111 l 117 137 q 109 167 117 155 q 106 178 106 171 l 106 182 l 107 191 l 108 200 q 109 215 109 208 q 85 292 109 254 q 56 357 71 315 l 50 375 l 45 391 q 31 425 38 411 q 32 435 32 429 q 28 469 32 450 l 25 479 l 22 490 q 20 512 20 503 l 20 568 q 21 624 20 604 q 88 871 26 759 q 110 904 96 884 l 133 935 q 178 985 149 961 q 205 1004 189 994 l 233 1023 q 343 1069 278 1053 q 442 1079 382 1079 l 450 1079 l 477 1078 l 504 1078 l 524 1078 q 557 1078 543 1078 q 764 980 706 1039 q 866 838 840 903 q 903 723 892 775 q 906 701 905 713 l 907 680 q 913 640 907 654 q 920 597 920 623 l 920 570 q 921 556 920 562 l 921 551 q 916 517 921 539 l 913 508 l 911 498 q 910 483 910 490 l 910 470 q 900 405 910 444 q 888 370 896 389 l 880 352 l 872 334 l 866 321 l 859 309 q 846 282 850 292 l 842 271 l 837 260 q 833 234 833 246 l 833 229 q 830 200 833 217 l 827 183 l 824 165 l 823 150 l 822 134 q 817 101 821 115 q 812 69 812 84 q 823 28 812 47 q 826 10 826 22 l 826 3 l 825 -11 l 825 -24 q 825 -33 825 -28 q 825 -42 825 -37 l 823 -60 l 823 -63 q 831 -95 823 -83 q 837 -125 837 -104 l 837 -133 l 838 -141 q 842 -158 838 -151 q 852 -207 849 -176 l 853 -233 q 855 -258 854 -249 q 821 -308 831 -292 m 474 200 l 477 205 l 481 212 q 482 199 482 203 q 481 192 482 193 q 477 191 481 191 q 469 192 475 191 q 474 200 471 195 z "},"P":{"ha":757,"x_min":20,"x_max":736,"o":"m 191 265 l 187 265 l 187 256 l 191 256 l 191 265 m 56 273 l 48 273 l 52 257 l 56 258 l 56 273 m 191 140 l 186 140 l 186 120 l 191 120 l 191 140 m 233 285 l 233 287 q 206 302 231 295 q 205 285 205 292 q 206 275 205 278 q 218 255 208 269 q 233 285 233 276 m 105 196 q 74 190 79 195 q 71 171 71 186 l 71 159 l 89 159 l 105 160 l 105 196 m 96 228 l 102 226 l 109 224 q 130 217 122 220 l 136 222 l 140 227 l 146 221 q 151 218 149 218 q 163 216 155 216 l 169 217 l 176 217 q 139 242 164 236 l 129 245 l 119 247 q 99 254 106 250 q 81 233 98 252 l 96 228 m 433 625 q 490 685 481 655 q 494 714 494 696 q 484 791 494 744 q 440 825 469 815 q 414 831 429 829 l 400 833 l 387 836 q 339 838 367 838 l 325 838 l 262 836 l 262 625 l 433 625 m 552 396 l 553 374 l 553 366 q 551 333 553 347 q 541 226 541 290 l 541 210 l 542 178 l 543 148 l 543 125 q 542 85 543 102 l 542 73 q 551 22 542 43 q 555 -9 554 12 l 555 -26 q 559 -43 557 -35 q 564 -73 564 -54 l 564 -82 l 562 -104 l 562 -125 l 553 -133 l 543 -141 q 522 -159 532 -151 l 469 -159 q 435 -118 464 -153 q 436 -87 435 -107 l 437 -71 l 437 -54 q 447 17 440 -12 q 454 98 454 49 l 454 138 q 454 178 454 161 q 455 204 455 189 l 455 288 q 454 313 455 302 q 449 352 453 329 l 442 390 q 435 391 439 391 q 424 382 427 391 l 422 378 l 421 372 q 417 364 420 367 q 415 355 415 362 l 415 352 l 416 344 l 416 336 l 416 259 q 416 181 416 213 q 420 113 417 153 l 426 45 l 427 41 q 428 36 427 38 q 435 12 435 26 q 428 -20 435 -2 q 409 -43 422 -35 l 403 -45 l 397 -48 q 387 -54 391 -52 q 328 0 344 -50 q 330 12 329 3 l 332 19 l 333 27 q 338 62 336 47 q 339 74 339 67 l 339 81 l 338 90 l 338 100 l 338 102 q 348 136 338 123 q 349 143 349 138 l 349 146 l 349 153 l 349 389 l 262 389 l 262 93 l 20 93 l 20 1059 l 62 1059 l 155 1059 l 248 1058 q 434 1060 359 1058 l 440 1060 q 600 1008 524 1060 q 712 873 678 954 l 722 848 q 730 822 728 834 q 736 780 736 800 q 736 767 736 774 q 735 742 735 757 l 735 685 q 674 517 732 597 q 551 418 642 471 l 552 396 z "},"Q":{"ha":956,"x_min":20,"x_max":936,"o":"m 141 265 l 144 265 l 144 275 l 141 275 l 141 265 m 606 178 l 609 178 l 609 188 l 606 188 l 606 178 m 138 471 l 157 471 l 157 476 l 138 476 l 138 471 m 697 72 l 692 72 l 692 52 l 697 52 l 697 72 m 408 205 l 399 205 l 403 189 l 408 189 l 408 205 m 814 -7 l 806 -8 l 809 -24 l 814 -23 l 814 -7 m 422 342 l 432 322 l 436 326 l 436 342 l 422 342 m 710 358 l 720 362 l 730 366 l 726 370 l 710 370 l 710 358 m 205 578 q 211 579 210 578 q 212 584 212 580 q 212 591 212 587 l 208 589 l 203 587 q 191 579 197 583 q 205 578 200 578 m 218 241 l 218 226 q 231 228 229 228 l 218 241 m 661 176 l 640 176 q 644 158 642 167 l 648 159 l 653 160 l 661 161 l 661 176 m 392 446 l 389 444 q 383 438 385 440 q 380 431 380 435 q 384 420 380 426 l 387 423 l 390 426 q 396 431 395 429 q 399 439 399 435 q 395 450 399 444 l 392 446 m 233 638 q 227 629 230 634 l 222 623 q 213 611 216 614 l 222 616 l 229 593 l 233 597 l 233 638 m 247 421 l 242 431 q 210 426 235 429 q 216 418 212 422 l 221 411 q 230 399 227 404 l 239 410 l 247 421 m 752 159 l 749 159 l 749 130 q 779 132 764 130 q 752 159 773 159 m 486 238 l 477 237 l 469 235 q 451 232 458 233 q 479 201 474 205 l 484 201 l 486 201 l 486 238 m 575 276 q 548 304 571 304 l 543 304 q 538 302 541 304 l 537 301 l 536 300 l 543 288 l 549 276 l 575 276 m 221 214 l 209 210 q 188 203 196 205 q 195 194 191 199 l 199 190 l 203 185 q 212 191 205 188 l 217 193 l 222 195 q 235 220 235 203 q 221 214 229 218 m 540 212 l 546 215 q 557 222 553 219 q 547 229 552 224 l 543 234 l 538 238 q 524 245 532 245 q 518 245 521 245 q 515 231 515 237 q 532 208 515 216 l 540 212 m 494 309 q 479 325 488 316 l 472 331 l 466 337 l 463 336 l 458 333 l 453 331 l 448 328 l 465 311 q 480 296 473 302 q 486 295 481 295 l 494 295 l 494 309 m 604 211 l 612 218 l 617 193 l 627 193 l 636 216 l 640 212 l 640 244 l 604 244 l 604 211 m 591 113 l 596 120 q 606 132 602 127 l 600 136 l 594 138 q 585 143 588 141 q 595 168 591 157 l 566 168 l 566 123 q 574 115 569 120 l 579 111 q 585 106 582 109 q 591 113 587 109 m 448 125 q 427 136 435 131 l 427 170 l 402 168 l 378 166 q 383 150 381 155 l 389 149 l 395 149 q 406 149 403 149 q 412 135 408 142 l 416 123 l 413 119 l 410 115 q 434 100 422 100 q 448 105 441 100 l 448 125 m 487 743 q 486 716 486 732 l 486 602 q 488 572 486 585 q 512 490 492 524 q 536 655 535 546 q 511 827 536 764 q 487 743 491 791 m 602 750 q 601 734 602 744 l 600 718 q 595 681 598 695 q 591 643 591 662 q 600 589 591 616 q 607 546 605 574 l 608 524 q 612 501 610 511 l 616 484 l 620 467 q 632 433 625 446 q 637 425 633 429 l 641 420 l 645 416 l 652 436 l 659 456 q 669 492 667 477 q 671 526 671 507 l 671 536 l 671 557 l 671 642 q 670 661 671 654 q 661 691 669 673 q 652 713 657 699 l 643 736 q 617 779 632 764 q 610 766 615 774 l 606 758 l 602 750 m 372 468 l 376 484 l 380 500 q 387 528 384 517 q 389 556 389 543 q 390 644 390 603 q 389 720 390 685 q 385 752 389 736 q 382 773 382 760 l 382 779 l 383 793 l 384 806 q 387 817 385 810 l 388 822 l 390 828 q 313 772 328 804 l 294 732 q 277 691 284 709 q 264 610 264 649 l 264 604 l 264 548 q 272 492 266 515 q 300 406 284 444 q 326 372 307 391 l 334 366 l 342 358 q 355 342 350 350 l 359 346 l 362 349 q 368 354 366 353 q 370 370 370 362 q 368 387 370 378 q 361 399 366 393 l 353 412 l 345 425 l 336 438 q 319 468 326 454 l 372 468 m 770 54 l 767 64 l 764 75 q 757 92 760 85 q 750 98 755 95 l 745 100 l 739 104 q 739 53 739 68 l 729 52 q 719 52 723 52 l 720 42 l 720 33 l 725 33 l 729 34 l 737 35 q 739 54 738 46 l 770 54 m 260 313 l 265 307 q 272 303 269 303 q 281 307 277 303 l 284 315 l 288 325 l 316 325 q 295 345 299 341 q 264 303 267 327 l 263 305 l 255 298 l 258 295 q 260 299 260 296 q 253 317 260 305 q 260 313 256 317 m 418 67 l 412 74 l 406 80 q 390 82 399 82 l 382 81 l 374 81 q 341 96 354 81 l 341 -40 q 342 -77 341 -61 l 342 -109 l 344 -142 q 353 -208 346 -180 q 358 -250 357 -224 l 359 -271 q 361 -293 360 -283 q 319 -323 336 -312 l 309 -320 l 298 -317 q 281 -307 287 -313 q 272 -290 276 -302 l 269 -281 l 266 -272 l 268 -268 l 270 -264 q 273 -256 273 -259 q 281 -187 275 -217 q 290 -122 288 -159 l 292 -89 l 292 -56 q 294 4 294 -28 q 292 75 294 37 q 288 92 292 81 l 285 99 l 282 106 q 100 262 172 154 q 31 451 56 326 q 20 556 21 497 q 22 608 20 578 l 24 660 q 55 806 27 745 l 71 839 q 87 871 79 857 q 130 930 106 906 q 139 941 134 935 l 148 954 q 168 977 159 970 q 294 1055 237 1034 q 347 1072 328 1067 q 397 1078 373 1078 l 531 1078 q 590 1069 557 1078 q 620 1061 603 1066 l 650 1050 q 802 940 741 1017 l 825 911 q 846 882 838 895 q 873 815 869 848 q 895 761 888 798 l 898 747 l 901 732 q 912 705 905 716 q 913 703 913 705 l 912 701 l 912 633 q 915 618 913 626 l 919 604 q 923 581 923 591 q 922 574 923 577 q 916 515 920 553 l 913 486 l 909 457 q 882 344 901 389 l 871 317 q 859 290 865 301 q 826 241 844 260 q 812 223 819 235 l 806 212 l 798 201 q 936 8 879 89 q 897 4 921 4 l 867 4 q 844 2 854 4 l 845 -244 l 846 -260 q 853 -292 847 -278 q 856 -306 856 -298 l 856 -324 q 863 -351 856 -340 q 866 -369 866 -357 l 866 -376 l 865 -384 l 865 -392 q 864 -409 864 -402 l 852 -417 l 841 -426 q 816 -444 827 -436 l 805 -439 l 795 -435 q 777 -428 784 -431 q 757 -374 757 -401 q 762 -345 757 -359 l 765 -336 q 767 -327 767 -331 q 770 -274 768 -305 l 774 -220 q 778 -144 778 -178 q 777 -113 778 -127 q 776 -56 776 -90 l 777 -26 l 777 3 l 652 3 l 621 46 q 591 87 610 61 l 479 69 l 472 26 q 467 -18 469 0 l 467 -39 l 467 -61 l 467 -79 q 467 -104 467 -94 l 467 -110 q 470 -132 467 -120 l 473 -146 l 477 -159 q 477 -167 477 -162 l 477 -172 l 477 -186 q 485 -214 477 -203 q 489 -227 489 -220 q 468 -267 489 -243 q 435 -279 460 -270 l 427 -269 l 417 -260 q 399 -239 406 -248 q 409 -220 401 -236 q 408 -203 408 -212 q 413 -150 408 -182 l 416 -132 l 418 -114 q 420 -91 420 -102 q 419 -77 420 -84 q 418 -5 418 -48 l 418 31 l 418 67 z "},"R":{"ha":835,"x_min":20,"x_max":814,"o":"m 606 643 l 602 643 l 602 633 l 606 633 l 606 643 m 225 169 l 229 169 l 229 178 l 225 178 l 225 169 m 534 488 l 538 488 l 538 498 l 534 498 l 534 488 m 641 120 l 644 120 l 644 130 l 641 130 l 641 120 m 467 333 l 470 333 l 470 342 l 467 342 l 467 333 m 745 143 l 754 143 l 754 146 l 745 146 l 745 143 m 557 469 l 554 469 l 554 459 l 557 459 l 557 469 m 649 345 l 658 345 l 654 361 l 649 360 l 649 345 m 326 616 l 326 624 l 300 621 l 300 616 l 326 616 m 503 345 l 523 345 q 519 363 520 359 l 515 362 l 510 361 l 503 359 l 503 345 m 718 166 q 739 174 722 168 q 718 202 728 189 l 718 166 m 170 186 q 197 164 180 177 q 205 186 199 170 l 170 186 m 134 98 l 134 111 q 125 119 133 119 q 115 117 121 119 q 136 89 122 107 q 134 98 134 91 m 82 280 q 72 263 77 273 l 68 256 l 63 249 q 87 245 77 247 q 82 280 84 266 m 504 295 l 520 295 l 520 323 l 504 323 l 504 295 m 541 277 l 572 277 l 570 282 l 570 287 l 568 295 q 541 292 555 294 l 541 277 m 156 194 l 149 199 l 142 203 q 127 212 133 208 q 124 170 125 189 q 156 194 142 184 m 74 362 q 75 370 75 367 q 50 393 75 388 l 50 362 l 74 362 m 627 437 l 627 475 l 624 478 l 621 481 l 614 488 l 601 474 q 627 437 606 467 m 560 323 q 571 332 570 323 l 570 338 l 568 345 q 564 362 566 354 q 549 344 556 353 l 543 336 l 536 329 q 560 323 551 323 m 182 273 q 170 275 175 275 q 144 256 151 275 q 168 236 151 236 q 182 239 174 236 l 182 273 m 44 342 q 63 279 51 320 q 77 292 70 286 l 83 297 l 90 302 q 73 342 81 323 l 44 342 m 693 252 l 686 264 l 679 275 q 657 321 660 302 l 657 276 q 644 303 648 295 l 618 303 q 629 262 629 288 l 629 256 l 627 243 l 627 233 q 630 210 627 220 q 644 207 637 207 q 669 216 656 207 l 677 221 l 685 226 q 697 229 691 229 q 703 229 700 229 q 693 252 701 240 m 454 823 q 357 837 413 836 l 333 837 l 309 836 q 262 837 281 836 l 262 650 q 313 653 283 653 l 337 652 l 368 652 q 464 666 425 652 l 467 670 l 470 674 l 477 684 q 492 704 485 695 l 492 785 l 454 823 m 556 216 q 564 205 559 211 l 574 195 q 590 174 586 183 q 593 172 590 172 l 597 172 l 601 180 l 604 189 q 618 174 609 183 l 614 168 l 610 165 l 607 161 q 627 159 616 160 l 627 197 q 598 199 612 198 l 598 249 l 586 238 l 565 246 l 540 256 q 513 246 520 246 q 488 254 507 246 l 463 240 q 465 231 465 235 q 460 218 465 224 l 456 214 l 452 210 q 446 201 448 205 q 451 193 451 197 q 446 182 451 189 l 444 178 l 441 174 l 441 172 q 445 165 441 168 q 454 144 454 158 l 454 132 q 456 122 454 126 q 473 142 472 126 l 474 157 q 477 172 475 166 l 508 182 l 540 192 l 541 195 l 541 197 q 545 199 543 199 q 547 199 546 199 q 589 172 558 197 q 567 157 578 169 l 562 152 l 557 146 q 546 138 551 141 l 552 132 l 557 127 q 568 119 563 122 l 584 127 l 592 131 l 602 136 l 600 140 l 598 144 q 590 158 595 151 q 544 217 577 178 l 556 216 m 192 -582 q 150 -596 171 -596 q 107 -581 128 -596 q 94 -533 94 -559 q 102 -488 94 -512 l 104 -481 l 106 -475 q 114 -406 106 -431 q 117 -391 116 -400 l 117 -374 q 125 -343 117 -354 q 124 -319 124 -333 l 124 -305 l 125 -286 l 126 -267 l 126 -254 q 116 -192 126 -217 q 114 -180 114 -188 l 114 -176 l 115 -167 l 115 -158 l 111 -52 l 105 56 q 101 73 104 62 l 97 81 l 94 91 l 20 91 l 20 1059 l 456 1059 q 634 989 544 1059 q 690 926 667 964 q 735 794 734 859 q 737 781 735 789 l 741 768 l 743 761 l 744 755 l 745 751 l 745 747 q 744 740 745 743 q 735 709 738 728 l 734 694 l 734 677 q 715 616 732 636 q 711 608 713 614 l 710 603 l 707 596 q 696 451 696 538 l 696 414 l 696 378 q 696 307 696 334 l 726 253 l 755 200 q 814 94 788 141 q 764 91 795 91 l 751 91 l 719 92 q 686 90 701 91 l 686 71 l 686 52 q 687 14 686 30 l 687 -22 q 694 -60 688 -44 q 699 -88 699 -71 l 699 -96 l 697 -117 q 696 -136 696 -129 l 675 -157 q 684 -224 677 -177 q 689 -262 687 -248 q 695 -304 692 -284 q 644 -345 692 -332 q 589 -292 604 -340 q 595 -249 591 -275 l 598 -227 l 602 -203 q 610 -117 610 -152 l 610 -106 q 608 -58 608 -89 l 608 -9 q 595 90 607 49 l 534 90 l 521 113 l 507 138 q 492 92 492 117 l 492 90 q 488 71 492 83 l 486 61 l 484 51 q 482 32 482 42 q 484 12 482 22 l 486 -13 l 490 -38 q 501 -87 494 -65 q 503 -98 503 -91 l 502 -104 l 503 -111 q 507 -134 504 -119 l 509 -146 q 511 -161 511 -155 q 459 -209 506 -198 q 406 -160 421 -203 q 408 -157 406 -159 l 411 -154 q 414 -146 414 -149 l 414 -145 q 414 -132 414 -139 q 418 -96 414 -117 l 422 -72 q 425 -47 425 -58 q 427 -32 426 -41 l 430 -16 q 434 16 434 5 l 435 56 q 427 95 435 79 q 423 113 424 102 l 424 121 l 424 136 q 415 168 424 157 q 416 183 416 174 q 412 216 416 197 l 410 229 l 407 241 q 406 260 406 251 l 406 265 q 406 281 406 273 q 377 379 406 336 q 366 399 372 387 l 362 409 l 357 419 l 261 419 l 261 92 l 201 92 q 203 74 203 83 q 202 59 203 66 l 200 43 l 197 27 q 191 -20 191 -1 q 193 -36 191 -29 q 184 -105 184 -61 l 184 -111 l 184 -130 l 184 -149 q 182 -186 184 -170 q 174 -257 176 -216 l 174 -328 l 174 -341 l 174 -355 q 182 -382 176 -370 q 184 -392 184 -386 l 184 -401 l 184 -409 l 184 -415 q 192 -436 184 -429 q 195 -465 192 -448 l 200 -494 q 203 -532 203 -515 q 202 -553 203 -544 q 197 -567 201 -559 l 192 -582 z "},"S":{"ha":798,"x_min":20,"x_max":777,"o":"m 463 178 l 460 178 l 460 169 l 463 169 l 463 178 m 511 488 l 508 488 l 508 478 l 511 478 l 511 488 m 550 101 l 547 101 l 547 91 l 550 91 l 550 101 m 414 333 l 412 333 l 412 323 l 414 323 l 414 333 m 214 326 l 234 326 l 234 331 l 214 331 l 214 326 m 264 157 l 266 149 l 281 153 l 281 157 l 264 157 m 233 389 l 224 389 l 227 363 l 233 363 l 233 389 m 478 419 q 484 408 480 416 l 486 404 l 488 401 q 494 391 491 396 l 494 419 l 478 419 m 555 193 l 555 177 q 568 180 566 179 l 555 193 m 421 129 l 428 132 q 425 161 427 144 l 410 146 l 421 129 m 291 262 q 267 231 273 239 q 291 226 286 227 l 291 262 m 565 338 q 576 354 570 346 l 581 361 l 587 368 q 565 373 578 370 l 565 338 m 397 354 q 372 394 385 374 l 372 354 l 397 354 m 497 178 l 505 178 l 511 179 l 524 180 l 524 193 l 511 199 l 505 203 l 497 206 l 497 178 m 268 278 q 294 281 288 278 q 297 294 297 284 q 296 305 297 298 q 277 294 287 303 l 269 286 q 260 278 264 281 l 268 278 m 362 120 q 351 116 356 120 l 359 106 q 350 95 355 100 l 355 89 q 392 101 365 92 q 362 120 376 120 m 65 361 l 76 363 l 89 366 l 85 370 l 83 373 q 81 377 81 376 l 83 380 l 89 389 q 75 391 81 391 q 51 376 60 391 l 65 361 m 318 147 l 296 121 l 298 119 l 302 115 l 312 119 l 321 121 q 339 126 331 124 l 318 147 m 334 179 l 331 173 l 341 166 q 351 159 347 162 q 358 150 354 155 l 366 140 q 379 163 379 151 q 374 179 379 171 l 369 177 l 364 175 q 357 172 358 173 q 344 176 351 174 l 334 179 m 582 721 q 562 708 567 720 l 559 703 l 557 699 q 552 690 555 693 q 582 661 565 673 l 582 721 m 562 132 l 562 157 l 526 157 q 507 132 522 152 l 562 132 m 267 217 l 266 224 l 264 231 q 260 254 262 246 l 221 254 q 243 225 227 239 l 250 220 l 257 214 q 271 200 265 207 q 267 217 269 208 m 119 243 q 144 282 140 264 q 134 285 139 285 q 119 281 127 285 l 113 278 l 107 275 q 94 269 100 271 q 119 243 104 258 m 159 323 q 156 300 156 309 q 157 293 156 296 q 178 275 160 279 q 195 296 193 282 q 196 302 196 298 q 193 323 196 310 l 159 323 m 698 337 q 703 324 698 330 l 724 324 q 736 338 728 329 l 743 346 l 751 355 l 741 359 l 732 364 q 714 374 722 370 q 698 337 698 351 m 669 365 l 665 370 l 663 372 l 662 374 l 659 377 q 637 367 648 372 q 642 359 639 363 l 645 353 q 651 342 649 347 q 637 319 649 339 q 644 315 641 319 l 648 311 l 650 309 q 659 304 654 304 q 669 308 663 304 l 669 365 m 332 321 q 331 332 331 327 q 332 344 331 338 l 334 354 l 336 365 q 342 396 342 383 q 340 406 342 401 q 330 448 336 423 l 324 469 l 318 491 q 304 488 311 488 l 299 488 l 290 490 l 281 494 q 260 498 269 498 q 244 494 251 498 q 243 481 243 488 q 245 464 243 473 q 254 435 247 454 q 264 391 264 408 q 263 382 264 386 q 332 321 281 334 m 293 762 q 366 728 326 737 q 406 716 382 724 l 424 709 l 442 703 q 456 765 456 731 l 456 774 q 452 808 456 789 l 444 843 l 435 846 l 427 849 q 417 852 418 852 q 376 848 399 850 l 339 844 l 328 834 l 316 824 q 293 804 302 812 l 293 762 m 527 295 q 477 272 502 295 l 477 247 l 520 247 l 534 260 q 528 279 534 272 q 491 308 519 292 q 530 300 505 304 q 568 292 554 295 q 564 305 566 298 l 559 316 q 552 334 555 328 l 533 321 q 506 345 524 329 q 503 331 503 337 q 504 325 503 328 q 534 294 509 313 q 527 295 530 295 m 611 227 q 612 208 612 215 q 631 209 621 208 q 617 228 621 224 l 609 231 l 602 235 q 592 241 595 238 q 583 254 588 246 l 580 260 l 576 266 l 555 264 l 555 230 l 570 214 q 587 198 580 205 l 593 198 l 597 199 l 600 199 q 595 212 598 205 l 593 218 l 589 225 q 616 231 606 227 l 611 227 m 443 -130 l 431 -140 q 408 -158 416 -151 q 389 -160 399 -160 q 313 -117 349 -160 q 311 -92 311 -106 q 316 -33 311 -68 l 319 -12 l 321 10 q 323 33 323 22 q 321 53 323 43 q 321 66 321 58 l 321 80 l 308 81 q 292 33 292 60 l 292 -16 l 291 -63 q 293 -157 291 -121 l 295 -183 l 298 -210 q 309 -261 302 -239 q 312 -280 312 -269 l 312 -285 l 311 -298 l 311 -312 q 275 -344 296 -324 l 238 -344 q 222 -327 233 -338 l 214 -317 l 205 -308 l 205 -279 q 214 -247 207 -260 q 216 -232 216 -241 l 216 -224 l 216 -215 l 216 -210 q 224 -183 216 -193 q 225 -178 225 -182 l 225 -174 l 224 -170 l 224 -73 q 224 -48 224 -58 q 223 -28 223 -40 l 224 -9 q 216 31 224 14 q 212 59 212 41 l 212 68 l 213 78 l 214 89 l 214 110 q 205 109 210 109 q 176 119 190 109 l 169 125 l 162 132 q 148 145 153 141 q 86 206 115 169 q 42 279 58 242 q 22 358 27 315 q 20 389 20 372 l 20 425 l 21 449 l 177 449 q 175 469 175 458 l 175 488 q 168 525 175 511 q 140 565 155 554 q 59 687 83 605 q 48 765 49 721 q 50 804 48 782 l 52 843 q 96 945 54 884 q 198 1036 136 1004 q 338 1078 281 1078 l 400 1078 q 434 1079 419 1079 q 460 1078 449 1079 q 662 993 579 1075 l 679 977 l 695 960 q 725 923 713 941 q 743 888 734 909 l 749 871 l 756 853 q 766 809 764 833 q 766 782 766 798 l 766 721 l 679 721 l 680 712 l 680 703 q 679 687 680 694 q 675 675 678 682 l 673 671 q 672 668 672 669 q 677 635 674 656 l 680 621 l 682 604 q 766 481 746 559 q 777 375 777 439 q 776 329 777 353 q 714 200 747 243 q 587 111 671 144 q 572 5 572 67 l 572 -5 q 568 -29 572 -13 l 565 -41 q 564 -54 564 -48 q 567 -85 564 -67 l 570 -102 l 572 -117 l 574 -147 q 581 -177 575 -165 q 585 -203 585 -187 l 585 -212 l 583 -233 q 583 -254 583 -245 q 577 -258 581 -255 l 570 -262 q 550 -275 559 -269 l 519 -275 l 494 -250 l 496 -214 l 498 -178 q 507 -106 501 -136 l 509 -92 l 512 -77 q 515 -54 515 -64 q 514 -47 515 -50 l 511 -21 l 507 4 q 504 46 504 28 l 504 57 q 500 67 504 61 l 495 74 l 490 81 l 459 81 l 456 56 l 452 32 q 448 -7 448 9 l 448 -16 q 451 -41 449 -26 l 454 -66 q 456 -100 456 -84 q 455 -121 456 -111 l 443 -130 z "},"T":{"ha":814,"x_min":20,"x_max":794,"o":"m 393 285 l 391 285 l 391 275 l 393 275 l 393 285 m 171 265 l 168 265 l 168 256 l 171 256 l 171 265 m 187 227 l 191 227 l 191 236 l 187 236 l 187 227 m 165 220 l 174 220 l 174 223 l 165 223 l 165 220 m 158 236 l 161 236 l 161 246 l 158 246 l 158 236 m 317 236 l 312 236 l 312 217 l 317 217 l 317 236 m 311 509 l 320 509 l 317 535 l 311 534 l 311 509 m 342 124 q 351 123 347 123 q 354 124 353 123 q 355 133 355 125 q 355 144 355 138 q 347 132 351 138 l 344 128 l 342 124 m 172 302 q 182 292 175 298 q 189 286 186 288 l 197 277 q 193 295 194 288 l 192 300 l 191 305 q 182 303 187 304 l 178 302 l 172 302 m 176 345 l 184 345 l 184 387 q 181 388 184 387 l 178 389 l 176 391 l 176 345 m 473 330 l 467 336 l 460 342 q 452 343 456 343 q 427 326 434 343 q 443 319 434 323 l 451 316 l 460 312 l 473 330 m 333 262 q 328 252 330 257 q 338 242 338 242 l 362 266 l 361 267 l 358 271 l 368 275 q 376 279 373 277 l 376 308 q 350 298 366 304 l 338 294 l 326 290 q 337 271 333 278 q 333 262 336 267 m 376 235 l 383 228 l 387 231 l 382 234 q 376 235 380 235 l 378 237 l 372 245 l 369 242 l 373 239 q 378 237 376 237 l 376 235 m 319 84 l 281 90 l 281 835 l 227 835 q 213 782 213 820 l 213 775 l 214 755 l 215 734 l 215 726 q 212 693 215 707 q 203 589 203 652 l 203 572 l 204 541 l 204 494 q 203 450 204 470 l 203 444 q 207 411 203 431 l 211 392 q 214 372 213 380 l 214 353 l 214 333 q 221 294 216 311 q 225 255 225 278 l 225 248 l 224 224 l 222 199 q 176 166 202 185 q 165 174 172 170 l 159 177 l 153 180 q 134 202 138 188 q 127 235 127 220 q 134 259 127 249 q 135 263 134 260 l 136 268 l 141 326 q 145 385 144 361 q 147 403 145 393 l 152 420 q 156 452 156 439 l 156 458 q 146 604 149 519 q 145 650 145 624 l 145 749 l 146 753 l 146 760 q 145 763 146 762 q 136 781 138 770 l 135 791 l 134 800 q 117 838 132 827 l 20 838 l 20 1057 l 793 1057 q 794 1010 794 1037 q 793 949 794 983 l 793 894 l 794 838 l 525 838 l 525 100 q 483 82 509 83 l 471 81 l 460 81 q 438 81 446 81 q 434 44 437 66 l 429 8 q 425 -52 425 -26 l 425 -64 q 426 -102 426 -81 l 426 -140 q 425 -175 425 -159 q 427 -214 425 -199 q 437 -286 429 -243 l 443 -321 l 450 -357 l 433 -369 q 416 -382 425 -376 l 381 -382 l 360 -361 l 359 -357 l 358 -353 l 358 -345 q 377 -220 358 -286 q 378 -205 378 -214 l 378 -199 l 378 -188 l 378 -176 q 379 -144 379 -162 q 375 -70 379 -113 l 372 -43 l 370 -16 q 368 28 368 8 l 368 37 q 363 57 368 45 l 359 67 l 355 79 l 319 84 m 338 276 l 345 284 l 348 281 l 340 274 l 338 276 z "},"U":{"ha":836,"x_min":20,"x_max":816,"o":"m 705 401 l 702 401 l 702 391 l 705 391 l 705 401 m 627 353 l 625 353 l 625 342 l 627 342 l 627 353 m 666 149 l 663 149 l 663 140 l 666 140 l 666 149 m 739 412 l 747 413 l 744 429 l 739 429 l 739 412 m 469 245 q 471 240 469 241 q 477 239 472 239 q 490 240 481 239 l 484 244 l 479 248 q 470 253 473 252 q 469 245 469 248 m 297 161 l 293 170 l 291 174 l 290 178 q 269 161 279 170 l 297 161 m 345 286 l 339 277 l 377 257 l 382 267 q 365 278 377 273 l 355 281 l 345 286 m 484 279 l 473 282 l 460 284 l 455 284 q 436 280 446 284 q 446 271 441 275 l 450 267 l 454 264 l 463 268 l 471 272 l 484 279 m 272 260 q 253 241 256 244 l 254 226 l 255 210 q 256 209 255 210 l 259 207 l 272 210 l 272 260 m 748 277 l 751 285 l 755 291 q 728 304 745 304 q 709 301 719 304 l 715 292 l 723 281 q 739 260 732 269 q 748 277 744 269 m 226 412 l 222 421 q 214 434 218 431 q 201 438 210 437 l 193 438 l 185 439 q 194 408 189 413 q 231 401 200 404 q 226 412 229 406 m 621 191 l 621 246 q 630 252 624 248 l 635 256 l 641 260 q 635 279 638 275 q 621 294 633 283 l 611 290 q 602 286 605 287 q 597 285 599 285 q 580 294 588 285 q 592 304 583 298 l 599 308 l 605 313 q 612 327 612 319 q 608 341 612 333 l 585 330 l 561 317 q 568 305 564 313 l 571 300 l 574 294 l 569 286 l 564 278 q 552 260 557 269 q 534 292 547 270 l 534 247 q 514 207 526 229 q 530 208 521 208 l 543 208 l 543 216 l 544 223 q 545 237 544 231 q 565 233 556 235 q 558 227 562 231 l 552 220 q 577 202 566 216 l 586 190 q 595 180 591 183 q 608 185 600 182 l 614 189 l 621 191 m 408 100 l 447 103 q 486 109 471 104 l 505 112 l 524 115 q 561 123 548 119 l 564 132 l 568 138 q 574 152 572 147 q 543 169 563 169 q 528 167 536 169 l 524 159 l 522 152 l 509 156 l 496 159 q 487 160 492 160 q 463 153 476 160 l 456 149 l 448 144 q 433 139 440 140 q 427 144 431 142 l 422 149 l 415 142 l 408 135 q 409 100 408 112 l 407 102 l 399 95 l 402 92 l 406 96 l 408 100 m 573 1053 q 574 1055 573 1054 l 576 1058 l 814 1058 l 815 966 l 815 875 q 814 691 815 766 l 814 601 l 816 555 l 816 499 q 805 336 816 400 l 797 317 l 789 298 q 774 263 781 277 q 732 208 755 227 l 728 191 l 725 176 q 718 146 720 158 q 718 136 718 142 l 718 131 l 718 116 l 718 113 q 709 86 718 97 q 707 77 707 83 l 707 74 l 708 66 l 708 58 l 709 -68 q 707 -193 709 -142 q 712 -221 707 -204 l 716 -234 q 718 -248 718 -241 l 718 -251 q 718 -261 718 -255 l 717 -269 l 717 -277 q 728 -302 717 -293 l 733 -353 l 738 -402 q 674 -459 715 -450 l 665 -459 q 629 -452 640 -459 q 593 -408 615 -444 l 593 -399 q 601 -353 593 -370 q 604 -342 604 -349 l 603 -336 l 602 -329 q 602 -323 602 -326 q 608 -304 602 -311 q 610 -300 610 -302 l 611 -295 l 616 -232 l 621 -169 l 623 -146 l 626 -125 q 631 -81 629 -97 q 631 -37 631 -62 l 631 6 l 630 34 q 622 61 629 50 q 615 84 617 69 l 613 97 l 611 110 q 522 84 574 94 l 475 77 q 429 68 445 72 l 425 64 q 418 57 421 60 l 418 -37 q 418 -131 418 -92 q 422 -160 418 -141 l 425 -175 l 427 -189 q 428 -221 428 -202 l 428 -236 l 427 -252 q 404 -267 420 -265 l 374 -267 q 363 -254 370 -262 l 357 -247 q 351 -238 354 -242 q 371 -50 371 -140 q 361 77 371 15 q 345 81 354 81 l 336 81 l 328 81 l 323 81 q 297 91 306 81 q 281 1 281 59 q 279 -26 281 -11 l 276 -40 l 273 -53 q 271 -63 271 -58 q 275 -85 271 -73 l 280 -101 q 283 -117 283 -110 l 283 -132 l 283 -146 q 290 -177 285 -163 q 294 -209 294 -189 l 294 -218 l 293 -240 q 292 -262 292 -254 q 269 -285 281 -273 l 215 -285 l 206 -264 l 197 -242 q 208 -201 208 -229 l 208 -180 q 213 -158 208 -168 q 222 -116 220 -142 l 223 -94 l 224 -71 q 225 -24 225 -46 q 224 16 225 -3 q 218 60 222 34 l 214 83 l 211 108 q 186 131 201 117 l 160 155 q 107 204 129 184 q 31 347 62 246 q 21 395 24 369 q 20 420 20 406 l 21 1058 l 263 1058 l 262 454 q 295 355 262 393 q 378 312 325 321 l 393 309 l 408 305 q 424 304 416 304 q 437 305 431 304 q 456 311 444 308 l 475 315 q 513 332 498 321 q 572 406 542 355 l 573 1053 z "},"V":{"ha":948,"x_min":20,"x_max":928,"o":"m 582 252 l 572 252 l 572 250 l 582 250 l 582 252 m 378 540 l 389 540 l 389 543 l 378 543 l 378 540 m 515 405 l 517 395 l 518 385 q 526 391 522 388 l 533 397 q 546 406 541 403 l 538 411 l 531 415 q 513 425 521 420 l 515 405 m 649 484 q 623 498 631 497 l 623 498 q 609 487 614 498 q 621 477 613 484 l 626 471 l 633 465 q 641 475 636 469 l 649 484 m 515 258 q 530 256 523 256 q 553 273 548 256 q 554 281 554 277 q 530 305 554 298 q 526 296 528 302 l 521 286 l 515 291 l 515 258 m 393 251 q 390 239 391 245 l 389 235 l 387 231 l 397 227 l 401 225 l 404 224 l 401 211 l 401 203 l 399 195 q 418 203 408 197 l 427 208 l 436 213 q 452 217 444 217 q 473 209 463 217 l 479 216 l 486 224 q 471 256 481 235 l 441 256 l 433 241 q 425 227 429 233 q 393 251 403 243 m 570 176 l 515 184 l 513 178 q 512 170 513 173 q 502 175 509 171 l 496 178 q 489 181 492 180 l 485 172 l 480 163 q 473 148 475 153 l 487 133 q 498 121 495 125 l 551 121 l 570 176 m 296 302 q 284 279 288 288 q 281 262 281 271 q 282 253 281 258 q 283 248 283 250 q 279 228 283 239 l 276 216 q 273 204 274 209 l 271 183 q 269 161 269 170 l 269 157 q 275 123 269 136 q 279 103 278 115 l 279 83 q 292 47 279 59 l 292 45 q 300 -9 292 24 l 307 -37 q 311 -65 311 -53 q 316 -94 312 -77 l 323 -120 q 268 -181 298 -169 l 253 -180 l 237 -180 q 207 -176 218 -180 q 163 -134 176 -168 q 156 -98 156 -115 q 159 -75 156 -86 l 163 -64 q 165 -53 165 -58 l 165 -50 q 175 20 165 -25 l 182 57 q 185 94 185 77 q 197 125 197 104 l 196 134 l 196 143 q 199 160 196 153 q 205 192 204 173 l 205 209 l 204 226 q 200 258 203 239 l 195 290 l 195 304 l 195 319 l 195 321 q 186 349 195 338 q 184 358 184 352 l 184 361 l 184 370 l 185 378 l 185 544 q 151 692 185 598 l 125 766 l 98 840 l 71 911 l 45 982 l 33 1018 l 20 1054 l 22 1056 l 24 1057 q 28 1059 26 1059 l 276 1059 l 325 918 l 374 777 q 472 495 432 611 q 572 777 508 596 l 671 1058 l 928 1058 l 895 971 l 863 884 l 842 823 l 821 761 l 815 743 l 810 724 q 804 686 804 703 l 804 661 q 804 626 804 647 l 804 591 l 804 585 q 795 520 804 546 q 793 500 793 511 q 795 476 793 490 l 800 454 q 804 432 803 441 q 808 390 806 416 l 810 368 l 812 345 l 808 342 l 805 339 q 796 332 800 335 q 775 313 785 321 q 764 317 770 314 l 752 322 q 726 334 736 330 q 730 382 727 353 l 735 431 q 737 477 737 456 q 733 530 737 507 q 652 310 705 453 l 612 201 l 572 92 l 491 92 l 487 88 l 484 85 q 479 80 479 82 l 471 52 q 467 22 467 35 q 465 -45 465 -8 q 467 -123 465 -81 q 470 -147 467 -132 l 473 -159 l 475 -172 l 476 -183 l 477 -194 q 484 -217 479 -207 q 487 -239 487 -225 l 487 -244 l 486 -259 l 485 -275 l 465 -286 l 444 -298 l 421 -288 q 397 -275 407 -280 q 398 -260 398 -269 l 398 -243 l 397 -233 l 397 -230 q 408 -192 397 -206 l 412 -136 l 416 -81 q 418 -7 418 -41 q 418 31 418 13 q 408 60 409 42 l 408 75 q 407 91 408 85 l 374 91 q 334 197 356 138 l 315 250 l 296 302 z "},"W":{"ha":1257,"x_min":20,"x_max":1236,"o":"m 319 26 l 329 26 l 329 30 l 319 30 l 319 26 m 319 143 l 329 143 l 329 146 l 319 146 l 319 143 m 955 149 l 951 149 l 951 140 l 955 140 l 955 149 m 874 314 l 878 314 l 878 323 l 874 323 l 874 314 m 753 422 l 752 430 l 736 427 l 737 422 l 753 422 m 879 302 l 871 302 l 874 286 l 879 286 l 879 302 m 724 459 l 719 459 l 719 439 l 724 439 l 724 459 m 423 256 l 418 256 l 418 236 l 423 236 l 423 256 m 850 44 l 849 53 l 833 50 l 833 44 l 850 44 m 340 336 l 339 340 l 338 345 q 336 356 337 351 q 324 347 332 353 l 318 342 q 311 336 315 339 l 340 336 m 794 385 q 804 391 798 387 l 811 397 q 827 409 820 404 l 794 409 l 794 385 m 401 342 l 415 357 l 403 374 q 394 364 398 368 l 391 360 l 387 357 l 401 342 m 871 176 l 871 172 l 872 167 q 874 155 873 160 q 889 165 880 159 l 897 170 q 905 176 901 174 l 871 176 m 369 330 l 372 332 l 374 336 q 376 342 376 339 q 370 355 376 348 l 359 347 l 348 338 q 364 322 357 330 q 369 330 365 326 m 871 67 l 876 75 q 886 93 881 84 q 875 91 880 92 l 865 90 q 846 87 854 88 q 852 79 848 83 l 857 73 q 867 60 863 65 l 871 67 m 869 361 q 895 333 876 333 q 905 334 899 333 q 909 344 907 335 l 909 352 l 911 361 l 869 361 m 834 313 l 826 314 l 823 302 l 819 291 q 813 269 815 278 l 817 251 q 835 260 825 255 l 851 267 l 848 272 l 845 276 l 840 283 q 830 296 834 292 q 844 311 834 301 l 834 313 m 366 133 l 372 121 l 393 121 l 400 138 l 406 155 q 407 157 407 156 q 406 161 407 159 l 404 168 l 372 168 q 359 144 364 153 l 366 133 m 469 173 q 495 219 487 205 l 487 229 l 479 237 q 469 215 473 225 q 458 220 464 218 l 454 222 l 452 223 l 440 217 l 429 212 q 409 201 416 205 l 415 190 l 421 179 l 433 189 q 443 199 439 196 q 456 186 449 193 l 462 180 l 469 173 m 1008 391 q 980 387 1006 391 q 1006 365 991 377 l 1011 361 l 1017 356 l 1026 348 l 1026 333 q 1028 319 1026 324 q 1052 303 1032 307 l 1056 311 l 1060 319 q 1067 332 1065 329 l 1008 391 m 503 380 l 503 340 l 496 332 l 491 324 q 478 307 484 313 l 488 306 l 496 305 q 509 304 505 304 q 520 332 514 316 l 530 359 l 522 367 l 514 376 l 511 398 l 498 404 l 484 409 q 487 380 484 389 q 475 385 482 382 l 469 388 l 463 391 q 467 360 466 369 q 484 382 479 372 l 503 380 m 855 241 l 847 236 l 839 231 q 854 222 846 227 l 862 218 l 869 214 q 871 246 869 237 l 890 246 l 890 265 l 920 233 q 908 207 908 220 q 918 184 908 195 l 913 176 l 910 168 l 916 155 q 926 178 920 165 l 930 189 l 936 201 l 943 193 l 951 186 l 964 171 q 969 186 966 177 l 975 203 q 978 226 978 216 q 977 236 978 231 l 980 239 l 983 242 q 987 249 986 246 q 991 265 989 256 l 994 283 l 986 286 l 977 288 l 982 294 l 987 300 l 980 306 l 972 313 l 965 307 l 958 301 q 969 287 966 290 l 960 271 l 956 262 l 951 252 l 935 264 l 920 275 l 943 275 q 924 307 932 294 l 920 300 l 916 294 l 909 285 l 890 265 l 871 265 q 869 250 871 252 q 855 241 865 248 m 823 92 l 817 100 l 814 97 l 818 94 q 823 92 821 92 l 821 90 l 828 82 l 831 85 l 827 89 q 822 90 825 90 l 823 92 m 959 342 l 967 349 l 964 351 q 958 342 960 347 q 954 338 955 340 l 954 338 q 958 336 954 336 q 916 330 927 332 l 926 309 q 948 333 942 323 q 957 344 955 340 l 959 342 m 802 296 l 794 289 l 798 286 q 802 295 802 291 l 804 294 l 812 300 l 809 303 q 804 294 804 298 l 802 296 m 20 1059 l 266 1059 q 284 1030 281 1050 l 286 1021 l 286 1013 q 289 996 287 1002 q 313 905 298 964 l 324 859 l 336 813 q 354 738 347 774 l 358 720 l 362 703 q 369 666 368 681 q 378 625 370 650 l 385 604 l 391 583 l 404 627 l 416 671 q 439 759 431 724 l 457 824 l 475 890 q 498 974 484 924 l 524 1058 l 736 1058 q 866 581 815 767 l 877 623 l 887 663 q 907 741 899 709 l 944 895 l 962 975 l 972 1016 l 981 1057 l 1236 1057 l 1218 992 l 1200 928 l 1180 850 q 1158 771 1168 802 q 1154 747 1154 758 q 1160 724 1154 734 q 1173 679 1173 705 q 1164 631 1173 657 l 1153 599 q 1142 567 1147 579 q 1137 551 1139 560 l 1135 534 q 1122 503 1131 513 q 1124 488 1124 496 q 1120 458 1124 475 l 1118 448 l 1115 437 q 1113 414 1113 424 l 1113 206 q 1130 107 1113 170 q 1137 71 1134 93 l 1142 35 l 1145 22 l 1147 10 q 1152 -15 1151 -5 q 1152 -28 1152 -22 q 1143 -67 1152 -54 q 1094 -93 1131 -83 q 1086 -97 1090 -94 l 1082 -100 l 1077 -102 l 1068 -99 l 1059 -96 l 1036 -89 l 1009 -61 q 1000 -27 1005 -46 q 1009 67 1009 -4 q 1004 201 1009 121 q 999 186 1002 195 l 994 173 q 987 149 989 159 q 982 122 985 138 l 979 108 l 977 93 l 943 93 l 937 77 l 930 61 q 921 29 924 42 q 910 -54 911 -15 q 909 -125 909 -87 q 910 -203 909 -162 q 913 -233 911 -216 l 920 -262 q 920 -277 920 -268 l 919 -292 q 928 -322 919 -310 q 931 -333 931 -325 q 930 -339 931 -336 l 930 -349 q 929 -359 929 -356 l 930 -374 l 930 -389 q 937 -419 931 -407 q 941 -435 941 -426 q 937 -454 941 -444 l 935 -463 l 930 -473 q 925 -491 926 -484 l 897 -505 l 869 -519 q 848 -513 861 -517 l 836 -509 q 823 -505 829 -507 q 800 -463 808 -494 l 798 -457 l 796 -451 q 794 -439 795 -444 l 794 -437 q 803 -416 794 -426 q 805 -406 805 -413 l 804 -399 l 803 -393 q 801 -361 801 -378 q 804 -321 801 -342 q 808 -286 805 -306 l 814 -252 q 824 -140 824 -203 q 823 -84 824 -117 l 821 -28 q 767 104 818 64 l 761 125 l 755 144 q 745 182 749 167 q 715 288 736 219 l 699 340 q 685 394 691 370 q 648 519 672 449 l 633 565 l 624 565 q 608 488 608 521 q 612 477 609 484 l 615 471 l 618 465 q 621 454 621 459 q 616 441 621 447 q 610 429 611 437 l 610 416 q 600 394 610 400 l 598 372 l 597 350 q 589 307 595 323 q 585 287 586 298 l 584 267 q 579 229 583 240 q 572 191 574 212 l 572 173 l 571 155 l 571 70 q 580 33 571 50 q 584 13 583 26 l 584 3 q 586 -8 585 -3 q 596 -60 592 -29 l 599 -86 l 602 -111 q 560 -150 578 -133 l 528 -150 q 513 -133 523 -144 l 503 -122 q 492 -109 498 -115 q 495 -76 494 -96 l 496 -58 l 498 -40 q 503 37 501 7 q 515 73 515 48 l 516 92 q 520 112 517 104 q 526 142 526 123 l 526 151 l 524 172 q 522 193 522 185 q 517 198 522 193 l 502 144 l 486 92 l 383 92 l 379 88 l 376 85 q 372 80 372 82 l 363 52 q 359 22 359 35 q 357 -79 357 -21 l 358 -180 q 360 -194 358 -186 l 364 -208 q 368 -230 368 -220 l 368 -235 l 367 -248 q 366 -260 366 -255 q 377 -284 368 -275 l 378 -312 l 378 -340 q 354 -392 375 -372 l 294 -392 l 273 -371 l 272 -369 l 271 -367 l 276 -277 q 278 -271 276 -275 l 279 -268 l 280 -264 l 286 -201 q 290 -138 289 -165 q 291 -80 291 -111 q 290 -12 291 -49 q 286 7 290 -5 l 283 18 l 281 27 q 280 38 280 31 l 281 48 q 271 67 280 61 q 271 75 271 71 q 268 104 271 87 l 264 122 q 262 140 263 133 q 252 203 262 166 l 244 235 q 237 266 239 253 q 220 332 231 293 l 202 397 l 182 471 q 161 544 170 516 q 126 669 140 618 l 109 733 l 93 796 l 81 839 l 69 881 q 48 966 56 931 q 35 1012 44 985 l 28 1035 l 20 1059 m 970 236 l 968 254 l 975 256 l 979 237 l 970 236 z "},"X":{"ha":988,"x_min":20,"x_max":968,"o":"m 668 188 l 665 188 l 665 178 l 668 178 l 668 188 m 131 196 l 132 188 l 147 191 l 146 196 l 131 196 m 127 164 l 127 179 q 114 177 115 177 l 127 164 m 167 142 l 163 140 l 158 139 l 147 136 l 151 132 l 167 132 l 167 142 m 204 281 l 193 281 q 182 281 184 281 q 180 277 180 280 q 181 270 180 274 l 204 281 m 188 137 q 197 140 191 138 l 208 143 l 205 148 l 188 148 l 188 137 m 393 323 l 399 328 l 404 332 q 414 341 410 337 l 405 342 l 397 342 q 382 343 389 342 q 393 323 391 328 m 659 350 l 659 385 l 648 372 q 637 359 642 364 q 648 354 643 356 l 654 352 l 659 350 m 370 271 q 394 289 391 283 q 399 319 398 295 q 370 271 380 287 m 355 397 q 374 360 373 363 q 392 380 380 366 q 355 397 379 386 m 327 286 q 304 273 315 279 q 350 258 340 261 l 357 267 l 364 277 q 346 297 352 290 l 327 286 m 206 89 l 208 83 l 266 83 q 260 90 263 86 l 258 92 l 257 94 l 261 106 l 264 113 l 267 119 q 250 115 253 117 q 243 106 247 114 q 224 97 235 102 l 206 89 m 817 158 l 836 162 l 835 168 q 825 166 829 168 q 817 159 821 164 l 797 159 q 798 163 798 161 q 796 170 798 166 l 793 176 l 790 181 q 787 191 787 186 q 795 202 787 197 q 783 224 787 217 l 758 224 q 762 210 758 217 l 765 203 l 769 196 q 778 172 778 182 l 778 169 l 768 168 q 758 168 763 168 l 759 158 l 760 149 l 764 150 l 768 150 l 777 151 q 778 169 777 163 l 797 159 l 804 149 q 816 166 812 156 l 817 158 m 80 131 l 72 124 l 75 121 q 80 131 79 126 l 81 129 l 90 136 l 87 138 l 83 134 q 82 129 82 132 l 80 131 m 357 177 l 283 67 q 284 56 284 61 q 275 8 284 32 q 273 -3 273 4 l 273 -6 l 274 -21 l 274 -25 q 265 -51 274 -41 q 264 -58 264 -53 l 264 -61 l 264 -75 q 263 -110 263 -90 q 275 -273 263 -173 l 280 -305 l 286 -337 q 296 -401 293 -379 q 298 -429 298 -417 q 295 -452 298 -444 q 255 -490 285 -487 q 243 -494 250 -490 l 237 -498 l 231 -501 q 181 -477 211 -492 l 178 -472 l 174 -467 q 168 -454 170 -460 q 163 -441 167 -450 l 158 -427 q 157 -418 157 -423 q 166 -399 157 -408 q 168 -393 168 -397 l 168 -385 l 170 -357 l 172 -329 q 178 -273 175 -296 l 182 -259 l 185 -244 q 188 -223 188 -233 q 187 -214 188 -218 q 186 -205 186 -210 q 189 -182 186 -195 l 193 -166 q 197 -151 196 -157 q 197 -131 197 -142 l 197 -104 l 197 -87 l 197 -56 q 197 -25 197 -37 q 191 21 195 -6 l 185 67 q 172 93 180 77 l 20 93 q 56 158 32 121 l 77 188 q 97 218 90 205 q 138 281 113 243 l 160 311 l 182 342 l 264 463 l 304 524 l 324 553 l 343 583 l 263 701 l 182 819 q 21 1057 75 977 q 80 1059 46 1059 l 94 1059 l 129 1059 l 164 1059 q 235 1059 193 1059 l 310 1059 q 403 924 346 1011 l 426 890 l 449 854 q 497 784 476 814 l 544 854 l 590 922 q 681 1058 649 1011 l 968 1058 l 926 994 q 884 930 901 956 l 884 811 q 884 692 884 741 q 887 669 885 682 l 891 646 q 895 610 895 625 q 895 600 895 604 l 895 599 q 897 595 895 597 l 901 592 l 903 589 l 886 566 l 878 555 l 869 542 q 816 566 846 552 q 817 583 817 572 l 817 598 q 825 631 817 618 q 830 661 830 640 l 829 677 q 832 695 830 688 q 836 736 836 712 l 836 744 l 835 769 l 834 794 q 825 817 825 802 l 825 819 l 826 832 q 823 846 826 840 q 638 575 745 732 l 720 456 l 801 336 q 965 95 899 192 q 924 91 947 91 l 903 92 l 884 92 l 843 91 l 802 91 q 788 64 794 77 q 785 30 788 50 l 781 -5 q 776 -58 776 -35 q 777 -78 776 -68 l 779 -94 l 779 -110 q 786 -142 781 -129 q 789 -157 789 -149 l 789 -177 q 795 -206 789 -196 q 798 -220 798 -211 q 798 -232 798 -226 l 796 -245 q 798 -258 796 -253 q 801 -270 801 -263 q 799 -282 801 -275 l 795 -293 q 795 -299 795 -296 q 795 -304 795 -302 l 777 -315 q 758 -326 765 -322 q 703 -286 716 -323 q 710 -236 705 -266 l 718 -189 q 728 -97 726 -134 q 730 -37 730 -66 q 715 90 730 39 l 675 90 l 533 303 q 516 253 516 286 l 516 163 q 517 76 516 108 q 534 -18 518 31 q 536 -32 536 -25 q 533 -48 536 -40 q 527 -62 531 -54 l 519 -77 l 503 -85 q 484 -95 492 -91 q 445 -76 459 -83 l 440 -66 l 435 -56 q 431 -44 431 -47 q 431 -41 431 -42 q 439 -10 439 -31 l 439 16 q 445 35 439 27 q 448 43 447 38 q 448 52 448 47 l 449 115 q 448 178 449 151 q 444 203 448 187 l 441 215 l 439 227 q 438 254 438 238 l 439 281 l 431 286 l 357 177 z "},"Y":{"ha":972,"x_min":20,"x_max":951,"o":"m 456 685 l 466 685 l 466 688 l 456 688 l 456 685 m 385 566 l 382 566 l 382 555 l 385 555 l 385 566 m 597 575 q 572 557 582 575 q 576 556 574 556 q 602 574 591 556 q 597 575 599 575 m 477 623 l 482 624 l 487 625 q 499 627 493 626 l 494 634 l 489 642 q 477 658 482 650 l 477 623 m 581 225 q 555 229 561 228 q 559 243 557 235 l 562 251 q 564 260 563 256 q 541 222 547 247 l 539 212 l 537 203 q 530 184 535 192 l 536 180 l 540 176 l 549 168 l 564 174 q 581 181 574 178 l 581 225 m 484 111 l 492 111 l 500 111 q 514 139 511 126 q 516 149 516 145 q 514 155 516 153 q 493 165 496 163 l 480 162 l 468 159 q 443 154 452 156 l 457 134 l 464 123 q 471 112 468 117 q 484 111 474 112 m 740 377 l 743 385 q 746 398 745 393 l 748 422 l 749 448 q 758 495 751 477 q 767 557 766 522 q 766 587 767 569 l 764 618 q 742 714 762 676 q 677 612 717 675 l 644 559 q 611 506 625 529 l 611 93 l 534 93 l 534 73 q 533 54 534 62 l 531 33 l 528 12 q 524 -29 525 -14 l 524 -51 l 526 -73 q 526 -86 526 -80 q 523 -116 526 -104 q 513 -203 513 -151 l 513 -211 l 515 -258 q 515 -284 515 -273 q 515 -306 515 -296 l 515 -311 q 517 -338 515 -322 l 521 -353 l 524 -370 l 525 -384 l 526 -399 q 531 -429 527 -417 q 537 -462 535 -439 l 539 -479 q 543 -497 541 -490 q 545 -506 545 -501 q 541 -524 545 -514 l 534 -536 q 530 -549 531 -544 q 511 -559 523 -553 l 503 -563 l 495 -567 q 439 -520 460 -567 l 441 -503 l 443 -486 q 446 -456 445 -468 l 456 -393 q 456 -382 456 -388 l 456 -376 l 456 -368 l 456 -357 q 465 -328 456 -340 q 467 -321 467 -326 l 467 -317 l 466 -311 l 466 -244 q 465 -184 466 -208 q 461 -147 465 -171 l 458 -129 l 456 -111 l 456 -92 l 457 -73 q 458 -61 458 -67 q 455 -38 458 -47 q 444 26 449 -16 l 439 58 q 433 90 437 76 l 369 90 l 369 134 l 368 294 q 370 454 368 388 l 370 456 q 348 532 370 500 q 267 663 307 589 q 262 667 265 665 l 256 672 l 253 642 l 250 613 q 243 555 246 578 q 241 539 241 548 q 246 496 241 521 l 248 482 l 251 468 q 254 438 254 451 q 257 380 254 414 l 264 321 l 248 298 l 232 276 l 178 276 q 170 288 176 279 l 167 291 l 157 305 l 157 304 l 156 305 l 156 311 l 157 345 l 159 380 q 167 447 161 420 q 175 532 175 481 l 175 547 l 174 572 l 174 611 q 176 647 174 631 q 165 697 165 667 l 165 724 q 166 738 166 732 q 165 749 166 745 q 161 769 165 756 l 158 779 l 157 789 q 155 810 155 798 l 156 821 l 156 833 q 20 1057 100 926 l 302 1057 q 347 984 318 1032 l 370 947 l 392 909 q 485 755 446 820 q 580 906 527 818 l 671 1058 l 951 1058 q 907 983 939 1030 l 896 965 l 884 947 q 864 909 872 926 q 862 898 863 905 l 862 885 q 854 860 862 869 q 851 850 851 857 l 851 843 l 852 837 l 852 833 q 843 812 852 819 l 843 807 q 844 794 844 801 q 842 773 844 785 l 840 756 l 838 739 q 832 685 832 707 q 833 671 832 677 l 834 657 q 835 647 835 652 l 835 643 q 824 616 834 627 q 823 610 823 614 q 824 602 823 606 q 831 560 831 588 l 831 550 l 831 539 q 836 520 832 528 q 844 477 841 505 l 846 456 q 851 435 848 444 q 855 402 855 422 l 855 392 l 854 369 q 853 345 853 354 q 808 313 834 332 q 766 329 775 321 q 736 368 756 336 l 740 377 z "},"Z":{"ha":783,"x_min":20,"x_max":763,"o":"m 271 408 l 261 408 l 261 404 l 271 404 l 271 408 m 358 287 l 378 287 l 378 292 l 358 292 l 358 287 m 629 103 l 648 103 l 648 108 l 629 108 l 629 103 m 729 254 l 743 268 q 725 264 732 266 l 720 263 l 715 262 q 719 243 716 256 q 729 254 722 247 m 559 280 l 559 295 q 546 293 549 294 l 559 280 m 281 191 l 301 191 q 298 208 298 203 l 293 207 l 288 206 l 281 205 l 281 191 m 718 295 q 688 293 702 294 q 696 281 690 290 q 702 273 699 277 q 709 262 705 268 l 718 295 m 154 283 q 156 273 155 279 l 157 267 l 159 260 l 166 267 l 173 271 q 189 283 181 277 l 154 283 m 611 425 l 603 432 l 592 424 l 587 420 l 582 416 l 586 412 l 589 408 q 597 398 593 402 q 604 412 600 404 l 611 425 m 608 334 l 608 374 q 591 347 591 360 q 594 334 591 340 l 608 334 m 222 181 l 231 180 l 238 178 q 244 193 240 184 l 247 200 l 250 208 q 222 205 239 207 l 222 181 m 650 186 q 643 199 646 193 q 635 187 639 193 l 633 185 l 632 184 q 631 182 631 182 q 637 168 633 176 l 640 163 l 642 157 q 650 166 646 161 q 656 172 655 170 l 650 186 m 534 325 q 540 353 538 337 l 541 381 q 553 437 542 417 l 543 439 l 534 439 l 534 325 m 449 555 q 453 545 451 551 l 457 535 q 465 523 461 526 q 478 519 469 519 l 485 518 l 492 518 l 492 555 l 449 555 m 426 835 l 389 835 l 387 827 l 383 820 q 378 806 378 810 q 377 800 377 803 q 393 780 377 788 l 409 806 l 417 821 l 426 835 m 262 131 l 264 131 q 288 137 271 131 l 296 130 l 302 135 l 288 151 q 276 167 281 161 q 265 169 270 169 q 241 151 250 169 q 262 131 256 133 m 389 153 l 395 186 q 381 197 390 190 l 365 211 q 351 182 358 198 l 336 154 l 359 137 l 384 120 l 389 153 m 423 325 q 436 378 435 347 q 435 405 436 388 l 435 418 l 434 433 q 396 378 408 410 q 387 365 393 371 l 375 354 q 357 325 359 340 l 423 325 m 513 125 l 493 117 l 482 113 l 470 107 q 486 103 477 103 q 509 109 496 103 q 524 112 514 112 l 528 112 l 540 111 l 551 111 l 551 114 q 555 125 551 121 q 560 129 557 127 l 566 132 q 581 150 581 140 q 581 153 581 152 q 591 173 591 161 q 590 178 591 176 q 586 190 589 183 l 583 195 l 581 200 l 560 220 q 554 211 557 217 l 550 205 l 547 199 l 532 193 l 518 187 q 486 174 499 180 q 507 168 505 169 q 513 165 509 167 l 515 163 l 515 163 l 523 165 l 529 166 q 541 170 537 168 q 537 142 540 149 q 527 131 534 134 l 517 139 l 515 136 q 513 135 513 136 l 513 130 l 513 125 m 418 256 q 426 260 421 258 l 434 265 q 435 256 434 262 l 435 252 l 435 246 l 427 246 l 418 247 q 403 245 409 247 q 389 239 397 244 l 382 233 l 374 228 l 380 222 l 385 216 q 392 209 390 210 q 399 208 395 208 q 410 210 404 208 l 418 214 l 425 218 q 447 224 437 224 q 461 220 454 224 q 428 199 444 210 l 463 199 l 464 204 l 466 209 q 467 214 467 213 q 533 230 509 224 q 522 242 528 235 l 516 248 l 511 254 l 515 261 l 518 267 l 524 279 l 516 283 l 509 288 q 494 294 500 292 q 487 294 490 294 q 464 285 475 294 q 458 286 461 286 q 453 286 456 286 l 447 284 l 441 282 q 431 280 436 280 q 418 285 423 280 l 418 256 m 235 836 l 232 823 l 228 812 q 223 789 224 798 q 221 765 221 774 l 221 760 q 224 741 221 749 q 224 738 224 740 q 223 732 224 735 l 221 728 l 218 724 q 216 715 216 720 q 221 705 216 710 q 224 690 224 700 l 224 684 l 223 670 q 222 657 222 662 l 222 645 l 222 633 q 223 609 222 618 q 229 587 224 600 l 233 576 l 237 564 l 245 576 l 254 587 q 270 608 264 600 q 300 712 298 657 l 300 722 q 286 836 300 764 l 235 836 m 711 144 q 688 159 698 153 l 687 140 q 705 139 701 140 l 710 131 q 715 124 713 127 q 726 121 720 121 q 736 123 730 121 l 735 136 l 734 144 l 734 153 q 707 139 714 143 l 711 144 m 763 323 l 763 92 l 680 92 q 612 33 654 39 q 608 -31 608 5 q 611 -92 608 -58 l 616 -153 q 620 -213 620 -188 l 605 -228 q 600 -227 603 -227 q 592 -228 596 -227 l 585 -229 l 578 -229 q 552 -214 562 -229 q 551 -197 551 -206 q 553 -171 551 -185 l 555 -149 l 557 -127 q 563 -62 563 -88 q 562 -40 563 -50 l 561 -24 l 560 -9 q 559 22 560 12 q 519 -27 541 -16 q 491 -33 508 -33 l 468 -33 q 454 -36 460 -33 l 443 -26 l 433 -17 q 416 -1 422 -7 l 416 89 l 341 89 l 336 66 l 332 44 q 321 0 328 16 q 319 -14 319 -5 l 319 -21 l 319 -132 l 320 -236 q 323 -266 320 -248 l 326 -280 l 329 -295 q 330 -303 330 -298 l 330 -309 l 329 -315 l 329 -325 q 338 -350 329 -340 q 340 -359 340 -353 q 340 -365 340 -361 l 339 -374 l 339 -383 q 342 -411 340 -394 l 345 -427 q 347 -444 346 -437 q 343 -452 346 -447 l 340 -457 l 338 -463 q 326 -487 331 -477 q 275 -500 300 -500 q 225 -487 250 -500 q 218 -470 223 -480 l 210 -454 q 203 -425 203 -438 q 203 -416 203 -420 l 208 -386 l 213 -357 q 214 -350 214 -353 q 213 -342 214 -346 l 213 -326 q 222 -298 213 -309 q 221 -283 221 -291 q 225 -249 221 -269 l 231 -224 q 233 -200 233 -211 l 233 -195 q 237 -144 233 -177 l 241 -117 q 243 -95 243 -105 l 243 -88 q 220 90 241 7 l 20 90 l 20 262 q 71 332 39 287 l 84 351 l 98 370 q 125 409 113 392 q 125 422 125 415 q 125 436 125 429 l 128 450 l 131 464 q 136 510 136 491 q 136 524 136 517 q 147 623 147 564 l 147 630 l 146 657 l 145 684 q 144 737 144 717 l 144 741 q 138 786 144 760 l 125 836 l 41 836 l 41 1055 q 352 1061 71 1060 l 469 1061 q 753 1057 661 1061 l 753 887 l 732 859 l 711 829 q 667 768 685 792 q 656 683 661 737 l 652 640 l 646 595 q 640 477 640 551 l 640 393 q 637 323 640 354 l 763 323 m 553 170 l 553 198 q 568 170 566 176 l 553 170 z "},"a":{"ha":941,"x_min":20,"x_max":921,"o":"m 282 214 l 273 214 l 273 210 l 282 210 l 282 214 m 575 285 l 580 285 l 580 304 l 575 304 l 575 285 m 826 162 l 829 162 q 831 166 831 163 q 831 171 831 168 q 807 163 830 171 q 826 162 820 162 m 264 176 q 257 175 259 176 q 256 172 256 174 q 256 166 256 170 q 280 175 257 166 q 264 176 271 176 m 293 45 l 302 45 l 298 71 l 293 70 l 293 45 m 884 134 l 877 140 l 870 139 q 862 137 865 138 q 864 127 863 134 l 865 121 q 867 113 866 117 l 884 134 m 671 168 q 693 172 678 169 q 682 186 689 178 l 677 194 q 671 202 674 199 l 671 168 m 627 303 q 635 285 634 287 l 636 285 q 656 303 652 285 l 627 303 m 642 279 l 642 245 l 647 246 l 652 248 q 664 250 659 249 q 642 279 654 262 m 710 186 l 710 159 q 725 167 716 162 l 731 171 l 737 174 l 734 186 l 710 186 m 793 214 l 786 217 l 777 221 q 758 229 766 226 l 758 201 l 766 197 l 774 194 q 793 186 785 189 l 793 214 m 262 145 q 263 130 262 130 l 267 120 q 273 111 270 115 q 294 94 273 110 q 292 113 292 102 l 292 131 q 286 163 292 151 q 273 153 280 159 l 262 145 m 151 264 q 171 273 162 264 q 180 285 175 277 l 188 298 q 167 301 174 301 q 159 300 161 301 q 142 276 154 297 q 117 273 136 275 l 117 267 l 118 258 l 119 238 q 144 265 132 251 q 151 264 148 264 m 698 387 l 698 416 l 682 429 l 676 433 q 661 416 669 425 l 654 407 l 646 398 q 675 375 662 386 q 698 387 687 380 m 470 665 q 460 637 467 654 l 454 624 l 449 610 q 438 557 438 581 l 438 555 q 456 556 446 556 l 473 555 l 478 555 q 505 559 495 555 q 488 611 498 582 l 479 637 l 475 651 l 470 665 m 570 1057 l 589 1008 l 606 959 q 642 863 629 896 q 703 699 673 786 q 745 584 718 655 l 787 468 l 826 361 q 867 255 848 302 q 895 182 878 229 l 907 144 l 920 108 q 921 104 921 106 l 921 101 l 920 97 l 920 92 l 727 92 l 728 81 l 728 62 q 727 49 728 55 l 723 21 l 720 -7 q 717 -46 717 -28 q 718 -63 717 -55 l 718 -79 l 719 -95 q 726 -127 721 -113 q 728 -138 728 -132 l 728 -149 l 728 -157 l 728 -161 q 736 -186 728 -177 l 737 -191 l 743 -248 l 745 -277 l 748 -304 q 707 -343 729 -322 l 674 -343 q 642 -306 668 -336 q 641 -291 642 -301 l 640 -283 l 639 -274 l 639 -267 q 644 -242 639 -251 q 648 -224 648 -235 l 648 -216 l 648 -207 l 648 -203 q 659 -176 648 -184 q 659 -174 659 -175 l 659 -171 q 662 -130 659 -153 l 667 -89 q 671 -26 671 -53 q 670 -5 671 -15 q 667 7 669 0 l 663 20 q 658 42 658 33 q 659 48 658 45 l 661 61 q 661 68 661 64 q 661 74 661 71 q 650 98 660 88 q 649 102 649 99 l 649 104 l 650 108 l 650 112 q 650 123 650 117 q 639 179 650 147 l 633 195 l 627 211 q 618 244 621 230 l 602 260 l 601 182 q 602 110 601 140 q 606 85 602 101 l 608 73 l 611 61 l 612 50 l 613 39 q 619 16 615 25 q 621 7 621 12 q 618 -7 621 1 l 615 -18 q 612 -29 613 -26 l 604 -34 l 597 -38 q 585 -44 590 -43 q 576 -45 582 -45 l 564 -45 l 558 -44 l 534 -21 l 534 -9 l 533 4 l 533 9 q 536 29 533 21 q 552 123 549 72 q 554 188 554 152 q 553 254 554 218 q 548 292 552 269 l 544 312 l 541 332 l 361 332 l 355 309 l 348 285 q 336 237 340 256 l 333 222 l 329 206 q 321 175 323 186 q 319 155 319 165 q 330 112 319 131 q 328 84 329 100 l 329 56 l 329 50 q 323 -1 329 18 q 318 -55 318 -22 l 318 -62 l 320 -94 q 321 -126 321 -114 q 332 -149 332 -135 q 332 -163 332 -155 l 330 -169 l 330 -175 q 329 -181 329 -178 q 334 -203 329 -190 l 338 -216 q 340 -229 340 -223 l 342 -256 q 348 -283 343 -271 q 352 -315 352 -296 l 352 -321 l 351 -340 q 350 -359 350 -352 l 316 -393 l 276 -393 q 237 -380 252 -392 q 214 -334 227 -361 q 254 3 254 -146 q 251 79 254 42 l 237 92 l 23 92 q 20 108 20 100 q 24 127 20 117 q 30 144 26 134 l 36 159 q 66 243 48 195 l 98 327 l 112 363 l 125 398 q 151 469 142 440 q 174 535 158 492 l 186 568 l 197 600 q 226 677 206 628 l 241 716 q 255 755 249 738 q 266 786 259 768 l 279 816 q 300 877 294 853 q 310 907 304 890 l 322 935 q 341 996 338 972 q 353 1026 343 1008 l 370 1057 l 570 1057 z "},"b":{"ha":776,"x_min":20,"x_max":755,"o":"m 445 220 l 455 220 l 455 223 l 445 223 l 445 220 m 426 239 l 435 239 l 435 243 l 426 243 l 426 239 m 309 123 l 319 123 l 319 127 l 309 127 l 309 123 m 359 293 l 361 284 l 376 288 l 376 293 l 359 293 m 376 257 l 375 266 l 359 262 l 359 257 l 376 257 m 50 128 l 51 120 l 66 123 l 66 128 l 50 128 m 109 161 q 98 172 104 165 l 92 178 q 84 185 88 182 q 87 168 86 175 l 89 162 l 90 158 q 98 159 94 159 l 103 161 l 109 161 m 37 264 l 38 259 l 39 254 q 41 245 40 248 l 44 252 l 47 256 q 53 264 51 261 l 37 264 m 291 275 l 294 275 q 309 284 309 275 q 305 295 309 288 l 298 294 l 291 292 l 291 275 m 307 224 l 307 255 q 289 242 296 248 l 307 224 m 568 344 q 558 357 564 350 l 554 361 l 551 366 q 529 344 536 351 l 568 344 m 659 247 l 667 252 q 682 264 675 259 l 647 264 l 648 258 l 650 253 q 652 241 651 247 l 659 247 m 40 186 l 50 197 l 55 202 l 59 206 q 73 221 68 216 l 64 226 l 56 231 q 40 239 47 235 l 40 186 m 171 263 l 128 263 q 115 231 115 243 q 121 217 115 222 l 150 217 q 178 247 169 237 q 176 252 178 248 l 174 257 l 171 263 m 368 193 q 408 214 380 199 q 393 244 397 235 l 342 244 q 330 190 338 227 q 364 172 340 184 q 368 193 368 189 m 435 714 q 476 763 474 739 l 476 766 q 444 823 476 790 q 347 837 404 836 l 323 837 l 299 836 q 252 838 270 836 l 252 701 l 276 701 l 316 701 q 343 701 332 701 q 387 707 361 703 l 410 710 l 435 714 m 513 425 q 473 465 491 459 l 446 473 q 420 477 431 477 q 336 479 386 479 l 294 478 l 252 478 l 251 361 q 253 323 251 338 l 294 323 l 336 323 l 359 323 q 415 324 391 323 q 472 336 452 326 q 513 381 500 349 l 513 425 m 522 174 q 532 158 522 165 l 536 155 l 541 151 q 545 140 545 146 l 564 151 l 581 163 q 554 178 572 178 l 553 178 l 545 177 l 537 176 q 525 175 530 175 l 522 175 l 522 181 q 512 215 522 199 q 500 231 508 222 l 494 238 l 488 245 q 481 247 486 247 l 477 247 l 470 246 l 460 246 q 474 204 471 212 q 458 177 467 192 q 441 206 450 191 l 429 190 q 417 172 422 179 l 417 131 l 439 131 q 465 165 458 157 q 523 179 505 172 q 522 174 522 176 m 118 134 l 115 136 l 111 138 q 99 127 106 134 l 94 122 l 90 118 l 96 106 l 101 95 l 112 73 l 119 87 l 127 103 q 121 110 125 106 l 117 115 l 119 118 q 120 121 119 119 q 121 125 121 123 q 119 135 121 129 q 159 121 138 121 q 177 123 168 121 q 168 138 173 130 l 163 146 l 158 153 q 127 127 135 142 l 118 134 m 201 189 q 206 206 204 200 q 219 209 216 208 l 208 222 l 197 237 q 190 218 193 224 l 174 213 q 179 185 174 196 l 170 190 l 162 193 q 145 201 153 198 l 146 192 l 146 182 q 148 163 147 171 q 174 189 168 177 l 201 189 m 20 92 l 20 1059 l 62 1059 l 248 1059 q 434 1060 357 1059 q 494 1053 460 1060 l 522 1046 l 551 1039 q 570 1031 559 1037 l 578 1025 l 587 1019 q 699 888 673 962 q 702 884 699 886 l 705 881 l 711 835 q 715 789 715 807 q 716 777 716 783 q 678 654 716 722 l 678 589 q 753 445 749 527 q 755 390 755 415 q 745 298 755 331 q 681 186 733 258 l 676 168 l 672 149 q 669 123 669 134 q 669 114 669 118 l 673 97 l 675 79 q 677 58 677 68 q 676 44 677 51 l 649 44 q 650 52 650 47 q 649 62 650 56 l 648 79 l 648 82 q 657 115 648 102 q 660 124 660 119 q 644 159 660 137 q 596 131 625 144 l 570 119 l 545 109 q 531 -26 532 54 l 532 -60 l 532 -94 q 533 -132 533 -115 q 532 -161 533 -149 q 536 -189 532 -172 l 542 -216 l 545 -240 q 550 -265 546 -254 q 553 -294 553 -276 l 553 -300 l 552 -320 q 551 -341 551 -333 l 546 -345 q 539 -350 543 -348 q 519 -365 530 -357 q 492 -361 507 -363 q 458 -357 474 -359 q 444 -291 444 -321 q 453 -245 444 -267 q 454 -235 454 -241 l 465 -119 l 470 -92 q 473 -67 473 -77 l 473 -64 q 464 62 472 -15 q 458 76 463 68 l 454 83 l 451 90 l 148 90 l 144 69 l 141 48 q 136 7 137 24 q 134 -35 134 -14 q 136 -75 134 -55 q 153 -174 140 -126 q 153 -183 153 -178 q 152 -198 153 -189 l 149 -211 l 147 -224 q 104 -241 119 -235 l 87 -220 q 68 -199 75 -208 q 88 -36 88 -117 q 75 92 88 28 l 20 92 z "},"c":{"ha":890,"x_min":20,"x_max":870,"o":"m 103 623 l 106 623 l 106 633 l 103 633 l 103 623 m 185 248 l 184 256 l 168 252 l 169 248 l 185 248 m 466 244 l 457 244 l 461 228 l 466 228 l 466 244 m 397 277 q 395 281 397 280 q 389 281 394 281 q 375 281 384 281 q 387 273 381 277 l 392 271 l 395 268 q 397 277 397 274 m 467 121 l 458 117 l 451 112 q 433 102 441 106 l 467 102 l 467 121 m 594 298 l 614 307 l 610 314 l 597 313 l 590 311 l 582 311 l 594 298 m 631 397 l 637 391 l 644 392 q 652 393 648 393 l 650 404 l 649 410 l 648 418 q 637 406 642 412 l 634 401 l 631 397 m 448 121 l 448 124 q 439 139 448 139 q 428 135 435 139 l 429 128 l 431 121 l 448 121 m 245 345 l 265 345 q 262 363 262 359 l 257 362 l 252 361 l 245 359 l 245 345 m 156 392 q 134 387 152 391 l 139 380 l 144 373 q 156 357 151 364 l 156 392 m 192 516 l 199 531 l 205 545 l 199 549 l 177 532 l 181 528 l 185 524 l 192 516 m 534 288 q 562 271 543 282 l 563 279 l 564 288 q 565 306 564 298 q 534 288 551 298 m 300 166 l 322 182 q 314 191 319 186 l 306 199 q 292 174 301 191 l 300 166 m 255 260 l 254 264 l 254 267 l 253 272 q 240 273 245 273 q 227 270 230 273 q 215 241 222 266 q 255 260 237 252 m 363 156 q 355 149 358 152 q 353 140 353 144 q 356 127 353 134 q 389 140 372 134 l 385 146 l 381 151 q 374 163 377 158 l 363 156 m 174 366 l 180 349 l 187 332 l 196 337 l 203 341 q 217 349 212 347 l 209 366 q 202 380 204 375 q 189 373 196 377 l 182 370 l 174 366 m 498 153 q 489 136 496 149 l 484 125 l 478 113 q 491 111 485 111 q 505 114 498 111 q 516 120 509 116 l 526 126 l 498 153 m 639 155 l 630 159 q 616 168 621 164 q 608 158 612 164 l 601 149 q 583 133 593 136 q 578 125 580 132 l 576 119 l 574 113 q 649 149 595 123 q 639 155 644 151 m 72 404 q 90 395 85 395 q 94 394 91 394 q 109 396 99 394 l 103 417 l 96 439 l 72 439 l 72 404 m 743 348 l 726 353 q 692 363 705 359 q 690 338 690 353 l 704 325 l 719 312 q 738 326 726 317 l 748 334 q 760 342 755 338 l 743 348 m 538 238 l 534 251 l 530 262 q 523 283 526 275 l 467 283 l 477 271 l 486 260 l 503 238 l 538 238 m 723 257 q 713 273 719 264 l 710 278 l 707 283 q 684 262 696 273 l 673 252 l 668 248 l 663 243 l 663 209 l 701 209 l 699 220 l 697 232 q 693 257 695 247 l 723 257 m 303 749 q 264 576 264 675 q 276 460 264 522 l 291 460 l 294 495 l 298 530 q 302 601 301 572 q 303 647 303 621 l 303 749 m 374 817 q 370 791 373 806 l 366 766 q 361 720 361 739 l 361 709 q 361 680 361 697 l 360 640 l 360 633 q 370 559 360 590 q 373 542 372 552 l 374 524 q 378 486 374 499 q 382 457 382 475 l 382 452 l 381 434 q 380 418 380 423 l 374 410 l 368 403 q 355 389 360 395 l 313 389 q 359 331 330 349 q 436 307 385 315 q 467 304 452 304 q 603 378 546 304 l 603 452 q 608 486 603 465 l 612 505 q 613 519 613 512 l 613 524 q 612 584 612 545 l 612 614 l 612 645 q 598 770 610 718 q 536 831 570 815 q 441 848 500 848 q 408 846 425 848 q 381 832 391 837 l 381 827 q 380 823 381 825 l 376 818 l 374 817 m 400 170 q 401 159 400 163 q 419 161 410 160 l 418 165 l 418 170 l 418 177 q 407 178 412 178 q 398 177 402 178 l 398 205 l 371 205 l 371 203 q 399 178 371 180 l 400 170 m 341 87 l 340 94 l 337 101 q 336 96 336 97 q 336 96 336 96 q 340 102 337 96 l 342 100 l 351 106 l 347 110 l 345 107 q 342 102 345 106 q 330 77 338 96 q 341 87 341 87 m 661 671 l 661 565 q 675 460 662 503 l 870 460 l 865 433 l 861 406 q 850 351 854 371 q 807 252 836 290 q 806 235 806 245 l 806 227 l 806 218 l 806 215 q 800 186 806 197 q 795 171 796 180 l 795 163 l 796 155 l 796 150 q 787 123 796 132 q 785 88 787 109 l 782 71 l 779 53 q 775 7 775 27 q 777 -18 775 -7 q 798 -159 788 -81 l 801 -175 l 803 -191 q 806 -222 806 -210 l 789 -240 l 772 -257 l 735 -257 q 698 -220 718 -239 q 702 -189 700 -208 l 705 -158 q 719 -95 710 -120 q 720 -88 720 -92 l 720 -83 l 719 -77 l 719 -71 q 720 -64 720 -68 q 719 -54 720 -60 l 719 -38 q 728 -7 720 -19 q 730 -1 730 -5 l 730 2 l 729 7 l 728 12 l 724 37 l 719 62 q 718 73 718 66 l 718 84 q 711 107 718 98 q 707 122 707 111 l 707 125 l 709 136 q 709 145 709 142 l 682 132 l 598 90 q 589 64 592 77 q 583 31 584 47 q 578 -3 583 19 l 576 -20 l 574 -37 l 574 -47 q 579 -111 574 -72 l 584 -146 q 585 -176 585 -162 l 585 -184 q 595 -256 585 -227 q 601 -291 600 -271 l 602 -309 l 604 -326 q 608 -336 604 -330 l 614 -347 l 598 -370 l 589 -382 l 581 -395 q 511 -386 536 -389 q 495 -318 495 -350 q 504 -273 495 -294 q 506 -264 505 -270 l 506 -255 l 511 -186 q 515 -119 515 -146 q 516 -51 516 -91 l 516 34 q 515 51 516 44 q 511 60 515 55 l 508 65 l 505 69 q 479 72 493 72 l 456 72 l 440 71 l 436 71 q 376 83 398 71 q 352 -13 355 47 q 350 -112 350 -56 l 351 -161 l 352 -212 q 355 -243 352 -224 l 358 -259 l 361 -275 q 361 -281 361 -278 q 361 -290 361 -286 l 361 -305 q 370 -334 361 -323 q 371 -336 371 -334 l 370 -339 l 376 -412 l 379 -448 l 382 -483 l 338 -527 l 280 -527 q 264 -516 271 -521 q 244 -502 254 -509 q 230 -457 230 -481 q 237 -421 230 -440 q 241 -401 241 -413 l 242 -382 q 254 -346 243 -357 q 253 -330 253 -338 q 257 -292 253 -313 l 260 -279 l 262 -265 q 264 -238 264 -250 l 264 -3 q 259 31 264 18 q 256 47 257 37 l 256 63 q 245 93 256 83 q 243 102 243 95 l 244 108 l 245 115 l 230 128 l 215 142 q 182 167 197 158 q 156 189 170 174 l 146 201 l 134 214 q 96 265 114 234 l 81 294 l 67 322 q 45 379 54 345 l 38 408 l 31 438 q 20 549 20 486 l 20 557 q 22 616 20 579 l 24 676 q 55 808 25 741 l 67 834 l 79 861 q 109 911 94 891 q 339 1070 208 1040 q 395 1077 363 1076 l 424 1078 l 452 1078 l 481 1078 l 510 1079 q 569 1069 544 1078 q 583 1065 576 1067 q 601 1059 593 1061 q 642 1043 623 1050 q 707 1007 692 1023 l 732 983 l 757 960 q 801 906 785 931 q 845 798 834 849 q 856 769 856 789 l 856 753 q 860 736 857 743 q 865 707 865 726 l 865 671 l 661 671 z "},"d":{"ha":852,"x_min":20,"x_max":831,"o":"m 190 507 l 186 507 l 186 498 l 190 498 l 190 507 m 260 276 q 227 257 245 268 l 260 257 l 260 276 m 456 297 l 456 262 q 478 288 463 269 q 467 293 473 290 l 463 295 l 456 297 m 718 312 q 725 332 725 319 l 725 334 q 694 300 698 330 q 718 312 712 307 m 703 279 l 695 284 q 685 290 690 287 q 686 279 686 285 l 688 269 q 690 250 690 258 q 718 271 709 264 q 703 279 713 274 m 48 157 q 59 159 54 159 l 63 160 l 67 161 l 67 174 l 68 180 l 67 186 q 48 204 66 201 l 48 157 m 588 294 l 562 294 l 562 256 l 588 256 l 588 294 m 361 161 q 372 189 366 174 l 376 201 l 380 213 q 351 228 369 219 l 349 215 l 346 203 q 342 180 343 189 q 349 173 344 178 l 351 171 l 361 161 m 313 279 q 357 303 348 279 l 349 310 l 342 317 q 326 332 332 326 q 330 316 330 323 q 323 301 330 307 l 316 296 l 310 292 q 300 279 302 286 q 313 279 307 279 m 551 726 q 551 686 551 710 l 551 659 l 551 625 l 551 592 q 576 458 552 512 q 581 481 578 468 l 586 505 q 591 541 591 526 q 590 551 591 546 q 589 575 589 562 l 591 600 l 591 611 q 589 647 591 633 q 576 690 586 665 l 568 711 l 560 731 l 551 726 m 262 836 l 262 324 l 286 324 l 293 388 l 300 451 q 304 471 300 458 l 307 481 l 309 490 l 313 513 l 317 535 q 324 566 319 547 l 333 597 q 339 647 339 625 q 338 663 339 655 l 338 667 q 342 680 338 674 q 351 715 351 697 q 345 744 351 729 q 340 770 341 753 l 339 783 q 336 795 338 790 q 321 816 330 804 l 313 826 l 307 836 l 262 836 m 473 347 l 471 358 l 469 368 l 464 386 q 463 391 463 389 q 467 411 463 399 l 471 423 q 473 435 473 429 l 473 441 q 477 479 473 456 l 481 500 q 484 523 484 513 l 484 718 q 469 815 481 775 q 421 828 440 823 q 414 814 418 822 l 410 807 l 406 799 l 406 713 q 406 673 406 690 l 407 640 l 406 607 q 414 541 407 568 q 420 486 419 521 l 420 457 q 423 429 422 441 l 427 405 l 430 380 q 440 332 435 353 l 456 339 l 473 347 m 665 193 l 672 188 l 680 184 q 694 174 688 178 q 687 222 694 198 l 690 218 q 693 216 692 216 q 695 212 694 215 l 697 208 q 699 206 699 206 q 704 211 701 206 q 705 219 705 214 l 705 223 l 705 239 q 694 214 694 229 q 694 207 694 210 q 665 193 689 204 m 20 1059 l 292 1059 q 461 1057 389 1059 q 513 1048 484 1057 l 540 1040 l 566 1031 q 746 896 652 1004 q 814 755 784 852 q 831 638 829 706 l 831 515 q 752 268 831 392 q 743 236 751 267 q 735 203 735 205 q 732 169 734 189 l 727 135 q 724 84 724 106 q 724 66 724 75 l 724 64 q 724 57 724 60 l 720 47 q 716 28 716 35 l 716 27 l 720 -1 l 724 -29 q 726 -65 726 -49 q 725 -85 726 -76 q 735 -109 734 -94 l 735 -134 q 740 -157 736 -142 l 742 -168 l 745 -179 q 745 -184 745 -181 q 745 -191 745 -187 l 745 -204 q 727 -220 739 -210 l 718 -229 l 707 -238 q 696 -239 702 -239 q 640 -182 652 -239 l 642 -181 l 644 -179 q 648 -174 648 -176 q 646 -157 646 -166 q 650 -116 646 -139 l 655 -87 q 658 -58 658 -71 l 657 -28 q 666 2 658 -10 q 670 20 670 8 q 667 40 669 29 l 663 52 l 660 64 q 657 85 657 75 l 657 90 q 658 116 658 100 l 657 146 q 650 153 655 148 l 641 161 q 467 100 551 109 q 444 52 455 87 q 425 -45 425 -6 l 425 -110 q 426 -134 425 -125 q 429 -166 427 -149 l 435 -198 q 435 -208 435 -203 l 435 -214 l 434 -231 l 434 -235 q 444 -262 434 -252 q 445 -267 445 -263 l 445 -271 q 456 -413 450 -332 l 437 -433 l 429 -442 l 421 -450 l 362 -450 q 327 -381 327 -420 q 336 -341 327 -362 q 338 -332 338 -338 l 338 -323 q 340 -291 338 -309 l 342 -275 l 345 -260 q 349 -216 349 -235 q 348 -197 349 -205 q 359 -113 359 -163 l 359 -106 l 357 -62 l 357 -16 l 358 -5 l 358 6 q 349 28 357 19 q 347 37 347 32 l 347 47 q 338 68 347 62 q 337 73 337 69 l 337 76 l 338 82 l 338 89 l 252 89 q 250 60 252 77 l 244 31 q 240 -9 240 9 q 241 -27 240 -19 q 230 -134 230 -72 l 230 -148 l 231 -178 l 232 -209 q 233 -270 233 -248 q 239 -316 233 -288 l 245 -340 q 249 -363 248 -354 l 255 -401 q 260 -438 259 -424 q 262 -471 262 -456 q 258 -515 262 -496 q 243 -530 252 -521 l 229 -545 l 217 -548 l 206 -551 q 185 -558 193 -555 l 160 -546 l 134 -532 q 115 -473 115 -514 q 121 -404 115 -444 l 127 -369 l 133 -335 l 138 -305 l 144 -275 q 146 -237 146 -254 q 145 -214 146 -224 l 145 -210 q 146 -197 145 -205 l 149 -188 q 151 -176 151 -181 q 150 -172 151 -175 l 149 -169 l 148 -165 q 145 -151 145 -157 l 145 -149 q 146 -125 146 -138 q 143 -71 146 -100 l 139 -32 l 134 7 l 131 24 l 127 41 q 125 68 125 56 l 125 75 q 120 83 125 78 l 116 87 l 111 91 l 20 91 l 20 1059 z "},"e":{"ha":690,"x_min":20,"x_max":670,"o":"m 435 140 l 433 140 l 433 130 l 435 130 l 435 140 m 191 391 l 194 391 l 194 401 l 191 401 l 191 391 m 229 342 l 233 342 l 233 353 l 229 353 l 229 342 m 110 476 l 90 476 l 90 471 l 110 471 l 110 476 m 625 141 l 633 142 l 629 158 l 625 157 l 625 141 m 650 180 l 649 189 l 633 184 l 634 180 l 650 180 m 605 128 l 606 120 l 622 123 l 621 128 l 605 128 m 399 122 l 397 130 l 382 126 l 382 122 l 399 122 m 343 549 l 338 573 q 328 549 331 557 l 343 549 m 214 141 l 214 150 l 179 147 l 179 141 l 214 141 m 206 435 l 208 428 l 209 420 l 219 422 l 225 422 q 233 424 229 423 q 212 441 221 434 l 206 435 m 589 155 q 566 159 571 159 l 566 125 q 578 141 572 132 l 583 148 l 589 155 m 478 132 l 505 132 q 507 140 507 136 q 500 149 507 146 l 496 149 l 491 151 q 486 156 486 153 l 478 156 l 478 132 m 330 570 l 330 608 l 322 604 l 315 600 q 300 590 307 594 q 330 570 313 582 m 277 604 l 277 564 q 294 582 290 575 q 295 589 295 585 q 289 604 295 596 l 277 604 m 205 253 l 198 258 q 187 267 191 264 q 168 233 168 256 q 170 216 168 225 q 193 227 183 216 l 203 237 q 214 245 208 242 q 205 253 210 249 m 108 259 q 121 266 117 263 q 141 289 136 274 l 128 298 q 115 307 121 304 q 92 314 103 314 q 85 313 88 314 q 94 253 87 297 l 108 259 m 307 256 q 342 246 331 256 l 358 231 l 375 214 q 382 234 382 226 q 372 250 382 244 q 362 265 362 255 l 363 269 l 363 273 l 363 275 q 363 277 363 276 q 340 293 352 285 l 330 300 l 320 307 l 313 294 l 307 281 q 293 255 299 267 q 307 256 300 256 m 583 271 q 555 285 564 285 l 554 285 q 524 269 545 285 l 530 245 l 536 221 q 517 212 525 216 l 517 200 q 535 197 526 197 q 583 221 562 197 l 583 271 m 265 325 l 302 325 l 302 453 q 279 469 294 469 q 265 465 273 469 l 265 325 m 312 702 q 314 736 314 720 q 300 837 314 786 l 282 836 l 267 835 l 267 702 l 312 702 m 401 467 l 395 458 l 390 449 q 379 432 384 439 q 365 429 374 431 l 359 428 l 353 427 l 353 336 l 366 325 l 444 325 q 458 389 457 351 l 458 454 l 446 467 l 401 467 m 487 701 l 487 736 l 488 771 l 488 788 q 486 805 488 798 q 473 835 484 823 l 380 835 q 381 816 381 826 q 380 801 381 809 l 376 767 q 375 748 375 757 q 387 701 375 720 l 487 701 m 171 90 q 158 8 160 55 l 158 -32 l 159 -72 l 157 -90 l 157 -106 q 163 -138 157 -127 q 166 -153 166 -144 l 166 -170 q 178 -195 166 -188 l 178 -201 q 180 -229 178 -214 l 182 -247 l 186 -264 q 187 -275 187 -270 q 157 -315 187 -304 q 147 -320 153 -317 l 136 -327 l 120 -320 l 104 -314 l 94 -293 q 83 -271 87 -281 l 85 -269 l 87 -266 q 90 -259 90 -262 q 88 -237 88 -249 q 91 -207 88 -223 q 96 -182 93 -197 l 102 -157 q 109 -81 109 -127 l 109 -43 q 110 -5 109 -21 l 110 0 q 87 91 110 35 l 28 91 q 20 527 22 121 l 20 678 q 24 1057 20 958 l 669 1057 l 669 838 l 568 838 l 567 832 l 565 827 l 562 819 l 555 812 l 555 703 q 602 701 572 701 l 626 701 q 650 700 640 701 l 650 469 l 576 469 l 576 427 l 559 414 l 543 401 q 557 325 549 370 l 570 324 l 583 324 l 611 323 l 670 323 l 670 92 l 556 92 q 555 72 556 84 l 554 62 l 553 52 l 553 45 q 558 18 553 28 q 564 1 562 11 l 564 -7 l 564 -16 q 572 -49 564 -37 q 576 -66 576 -57 q 571 -87 576 -75 q 537 -121 560 -107 q 528 -126 534 -123 l 524 -128 l 518 -132 q 459 -120 482 -132 q 460 -136 460 -127 q 459 -155 460 -144 l 459 -172 l 458 -189 l 458 -195 q 467 -257 458 -232 q 475 -304 473 -275 l 476 -330 q 478 -354 477 -345 l 479 -364 l 482 -374 q 487 -394 486 -387 q 488 -415 488 -402 l 488 -436 q 456 -474 467 -469 q 400 -480 445 -480 q 351 -404 351 -465 l 351 -401 q 355 -366 351 -387 l 359 -349 l 361 -332 q 362 -325 362 -328 q 361 -316 362 -321 l 361 -299 q 371 -269 361 -280 q 374 -234 371 -254 l 376 -217 l 378 -200 q 382 -156 382 -176 q 380 -132 382 -143 q 370 -44 375 -100 l 366 0 l 361 44 q 355 66 360 53 l 351 77 l 347 90 l 171 90 z "},"f":{"ha":676,"x_min":20,"x_max":656,"o":"m 196 294 l 199 294 l 199 304 l 196 304 l 196 294 m 58 330 l 47 330 l 47 327 l 58 327 l 58 330 m 151 410 l 148 410 l 148 401 l 151 401 l 151 410 m 50 470 l 58 471 l 54 487 l 50 486 l 50 470 m 156 128 l 157 120 l 172 123 l 172 128 l 156 128 m 56 157 l 47 157 l 51 131 l 56 132 l 56 157 m 154 324 q 170 332 160 327 l 179 336 q 190 340 184 338 l 154 340 l 154 324 m 194 120 l 195 120 q 212 130 212 120 q 208 140 212 134 l 201 139 l 194 138 l 194 120 m 164 473 l 178 460 l 195 472 q 185 481 189 477 l 178 488 l 164 473 m 56 206 l 73 246 l 75 243 l 79 248 l 82 252 q 90 264 87 258 l 59 264 q 45 212 53 243 l 56 206 m 118 286 l 121 273 q 124 252 124 260 l 124 248 q 117 224 123 238 l 112 211 l 106 197 q 124 200 121 199 q 125 209 125 205 l 126 212 l 127 213 q 161 207 144 210 q 164 222 163 214 l 165 229 l 166 235 q 180 238 178 237 q 190 286 186 264 l 179 293 l 168 300 q 145 315 153 309 q 115 300 127 306 l 118 286 m 309 683 l 309 734 q 309 784 309 764 q 305 799 309 790 l 302 806 l 299 814 q 290 831 294 829 q 271 833 286 833 l 262 833 l 262 683 l 309 683 m 445 696 q 444 731 444 709 l 445 766 q 431 835 444 808 l 399 835 l 395 816 l 391 796 q 386 758 387 773 q 385 743 385 750 q 399 682 385 709 l 431 682 l 445 696 m 551 477 l 570 481 l 569 488 q 560 486 563 487 q 552 477 555 484 l 550 479 l 542 473 l 545 469 l 547 471 l 549 475 q 551 486 550 479 l 551 477 m 20 1058 l 656 1058 l 656 838 l 557 838 q 541 769 541 807 l 541 761 q 554 682 542 733 l 627 682 l 627 450 l 575 450 l 561 435 l 560 420 l 560 404 q 561 371 560 385 l 562 356 l 561 341 q 567 311 562 323 q 572 278 572 298 l 571 259 q 572 239 571 247 l 545 212 q 529 196 535 201 q 512 178 520 186 q 511 159 512 172 l 511 149 l 510 138 l 510 128 q 514 96 510 109 q 518 75 517 87 l 519 65 l 519 54 q 532 16 520 29 q 545 -136 540 -85 l 530 -150 q 515 -163 521 -158 q 469 -180 492 -180 q 442 -174 456 -180 q 397 -111 397 -153 q 399 -62 397 -91 l 402 -37 l 404 -10 q 369 21 383 8 q 368 39 368 30 q 370 66 368 52 l 372 87 l 375 107 l 380 155 l 385 201 q 388 265 388 236 q 387 297 388 282 l 386 313 l 386 329 q 395 361 387 347 q 398 376 398 367 q 397 383 398 379 q 391 410 396 393 q 382 392 389 406 q 356 385 373 390 l 327 378 q 290 420 317 390 q 290 431 290 422 l 289 439 l 289 448 l 261 448 l 261 92 l 20 92 l 20 1058 z "},"g":{"ha":915,"x_min":20,"x_max":895,"o":"m 633 269 l 643 269 l 643 272 l 633 272 l 633 269 m 807 298 l 817 298 l 817 301 l 807 301 l 807 298 m 720 694 l 730 694 l 730 698 l 720 698 l 720 694 m 378 197 l 375 197 l 375 188 l 378 188 l 378 197 m 810 555 l 814 555 l 814 566 l 810 566 l 810 555 m 210 401 l 214 401 l 214 410 l 210 410 l 210 401 m 827 320 l 817 320 l 817 317 l 827 317 l 827 320 m 126 323 l 123 323 l 123 314 l 126 314 l 126 323 m 373 228 l 382 229 l 378 245 l 373 244 l 373 228 m 684 227 l 688 227 l 688 246 l 684 246 l 684 227 m 757 477 l 749 476 l 753 460 l 757 460 l 757 477 m 302 332 l 294 331 l 298 315 l 302 315 l 302 332 m 185 130 l 180 130 l 180 111 l 185 111 l 185 130 m 683 622 l 684 614 l 700 617 l 699 622 l 683 622 m 271 385 q 272 393 272 390 q 271 397 272 396 q 264 398 269 398 q 250 397 259 398 q 262 389 256 393 l 267 387 l 271 385 m 652 191 l 673 191 q 669 208 670 203 l 665 207 l 660 206 l 652 205 l 652 191 m 256 451 q 237 448 241 448 q 244 433 240 441 l 248 425 q 254 414 252 418 q 255 433 254 423 l 256 441 l 256 451 m 776 334 q 766 332 772 334 l 761 332 l 755 330 q 776 305 762 322 l 776 334 m 442 432 l 452 456 l 460 474 q 439 481 449 478 q 442 432 440 463 m 655 316 l 633 300 l 637 296 l 641 292 q 649 283 646 286 q 663 309 659 302 l 655 316 m 179 151 l 184 151 l 189 150 q 195 149 193 149 l 197 149 q 207 165 207 150 l 207 167 l 179 167 l 179 151 m 688 323 l 688 354 q 671 350 675 351 q 673 323 673 334 l 688 323 m 673 409 q 691 436 691 422 q 688 448 691 442 l 673 448 l 673 409 m 569 195 l 572 203 l 576 211 l 561 227 q 547 203 547 210 q 560 177 547 197 q 569 195 564 185 m 729 401 q 750 382 736 385 q 756 381 753 381 q 777 385 764 381 l 778 395 l 779 406 q 769 424 779 417 q 764 428 767 426 l 760 430 l 755 433 l 743 417 l 736 410 l 729 401 m 532 257 q 547 301 547 280 q 543 321 547 311 q 532 323 537 323 q 506 306 517 323 l 510 298 q 513 292 513 293 l 511 283 l 509 274 q 506 257 507 264 l 532 257 m 140 299 l 151 288 q 140 267 144 273 l 144 256 l 147 245 l 153 226 l 162 256 l 171 287 l 208 287 q 206 301 207 293 l 205 314 q 195 308 199 311 l 187 302 q 170 315 176 310 q 140 299 160 310 m 209 275 l 192 275 l 180 250 l 190 233 l 201 216 l 224 218 q 248 219 238 218 q 229 248 239 233 l 218 261 l 209 275 m 730 167 q 741 175 734 171 l 744 178 q 747 180 746 180 l 747 225 q 737 227 742 227 q 714 214 724 227 l 709 208 l 703 201 q 690 191 697 193 q 705 158 691 174 l 711 152 l 718 145 q 730 132 726 137 l 730 167 m 545 163 q 532 185 538 174 l 526 182 l 520 180 l 509 176 l 508 170 l 507 163 q 504 152 506 157 q 483 138 498 140 q 476 129 479 138 l 473 121 l 470 114 l 485 99 l 504 102 l 524 106 q 566 113 551 111 l 562 132 q 540 122 547 125 l 537 127 l 534 134 l 528 146 l 545 163 m 457 104 l 451 117 q 446 127 447 124 q 429 134 438 130 l 422 138 l 416 140 l 413 137 l 410 135 l 407 132 q 392 142 399 135 l 382 157 q 354 179 371 178 l 353 166 l 352 153 q 349 120 351 135 q 342 130 345 125 q 336 137 339 133 q 327 148 330 145 q 323 135 323 142 q 330 117 323 126 l 341 105 q 347 90 347 98 l 401 97 l 457 104 m 549 429 q 545 404 545 417 q 549 378 545 391 q 558 356 552 369 l 563 345 l 568 334 q 616 373 597 345 q 630 400 623 383 l 636 414 l 642 429 l 549 429 m 546 813 l 546 772 q 536 734 545 750 q 546 694 545 720 l 546 673 q 547 654 546 662 l 701 654 l 700 668 l 699 683 l 654 683 l 640 725 q 623 765 632 748 q 562 827 601 807 q 555 821 560 825 l 551 818 l 546 813 m 419 846 q 415 846 416 846 l 409 840 q 404 837 406 837 q 350 815 374 836 q 316 772 333 800 q 265 614 265 690 l 265 610 l 267 549 q 273 488 269 515 q 314 387 283 434 q 408 318 353 330 l 413 347 l 418 377 l 416 380 l 414 384 q 411 391 411 388 l 410 648 q 412 649 410 648 l 414 651 l 425 652 l 436 654 q 450 736 450 694 q 426 846 450 791 l 419 846 m 324 324 l 317 332 l 315 329 l 317 328 l 319 326 q 328 325 322 325 l 319 307 l 311 291 l 296 258 l 309 246 q 330 290 318 264 q 345 277 336 285 l 357 266 l 362 271 l 367 275 l 372 270 l 376 267 l 379 264 l 388 269 l 397 274 q 408 265 402 265 q 412 266 410 265 q 419 269 414 267 l 426 273 l 431 269 l 437 266 q 440 276 438 271 l 441 281 l 443 285 l 458 285 l 458 278 l 458 271 q 459 259 459 264 q 444 240 458 245 q 439 239 441 239 q 433 241 436 239 l 428 245 l 423 249 q 410 254 416 254 q 400 251 405 254 l 416 218 l 423 203 l 430 189 q 424 174 427 181 l 419 162 q 439 177 427 171 l 450 181 l 462 184 q 502 205 492 193 l 511 201 q 520 194 516 197 q 528 204 524 198 l 535 213 l 523 225 l 490 225 l 488 220 l 486 216 l 484 208 l 471 208 l 471 292 q 496 310 488 295 q 503 324 500 315 l 510 340 l 457 340 q 428 286 441 310 l 378 286 q 322 322 345 312 l 324 324 m 895 682 l 810 682 q 803 671 808 678 l 798 665 l 793 657 q 833 652 808 652 l 861 652 q 884 651 874 652 l 885 592 l 886 534 l 886 511 q 883 416 886 456 q 877 370 881 388 q 861 324 871 343 q 846 294 855 313 l 838 278 l 831 263 q 791 208 812 227 q 778 186 783 200 l 774 174 l 770 163 q 762 125 764 149 l 760 106 l 759 85 q 756 67 758 78 l 752 50 q 748 18 748 32 l 748 12 q 758 -66 751 -24 q 760 -85 760 -73 l 759 -94 l 759 -103 q 768 -140 759 -126 q 769 -147 769 -142 l 769 -151 l 768 -157 l 768 -163 q 772 -189 770 -174 l 773 -197 l 774 -204 q 777 -222 777 -214 q 748 -267 765 -241 l 703 -267 l 696 -258 l 689 -248 q 675 -227 681 -235 q 671 -218 673 -222 l 671 -214 q 672 -209 671 -211 q 680 -176 680 -197 l 680 -172 l 680 -153 q 683 -136 680 -143 q 689 -102 689 -124 l 689 -80 q 692 -62 689 -70 q 701 -3 701 -34 q 700 21 701 9 q 692 71 698 41 l 687 95 l 682 121 q 447 71 575 71 q 415 72 431 71 l 412 68 l 409 65 q 401 57 405 61 q 401 45 401 52 q 396 0 401 28 l 393 -14 l 391 -29 q 390 -53 390 -42 l 390 -60 q 391 -102 391 -77 l 391 -181 q 395 -205 392 -191 l 398 -218 l 401 -230 q 401 -236 401 -233 q 401 -243 401 -239 l 401 -250 l 400 -256 l 400 -258 q 408 -280 400 -272 q 410 -286 410 -282 l 410 -294 q 410 -308 410 -299 l 408 -321 l 408 -328 q 412 -346 408 -340 q 414 -356 414 -351 l 414 -358 q 412 -368 414 -361 q 409 -380 409 -375 q 411 -388 409 -385 l 398 -399 l 385 -412 l 325 -412 l 319 -404 l 314 -394 q 301 -376 307 -383 q 293 -358 293 -366 q 298 -347 293 -352 q 304 -331 303 -340 l 304 -311 q 313 -251 304 -281 q 315 -237 315 -245 l 315 -229 l 314 -221 q 322 -192 314 -203 q 325 -182 325 -189 l 325 -179 l 323 -171 l 323 -163 l 323 -8 l 323 18 l 323 45 q 311 96 321 75 q 232 130 277 111 q 216 29 216 89 q 219 -32 216 1 l 223 -71 l 227 -111 q 231 -135 228 -120 l 236 -159 q 237 -171 237 -164 l 237 -182 q 245 -205 237 -196 q 248 -215 248 -208 q 247 -222 248 -218 l 246 -233 l 246 -243 q 250 -260 247 -250 l 252 -271 l 255 -281 q 240 -303 250 -289 l 232 -314 l 224 -325 l 173 -325 l 139 -291 q 140 -279 140 -286 l 140 -272 l 139 -252 l 139 -246 q 149 -211 139 -224 q 149 -209 149 -210 l 149 -201 l 153 -132 l 157 -64 q 160 24 160 -16 q 159 75 160 52 q 155 91 158 81 l 153 98 l 151 105 q 145 130 149 115 l 138 154 q 129 203 130 183 q 117 241 127 222 q 94 276 110 255 q 63 340 81 294 q 51 374 57 355 q 46 389 48 381 l 44 395 l 43 399 q 20 572 20 471 q 25 672 20 618 q 136 935 41 833 q 278 1047 212 1016 q 402 1078 345 1078 l 405 1078 l 456 1078 q 507 1079 486 1078 l 517 1079 q 560 1076 538 1079 l 587 1070 l 612 1064 q 674 1039 641 1057 q 703 1022 687 1032 l 732 1004 q 818 916 782 972 q 872 806 842 879 q 875 793 875 800 l 876 781 q 880 756 876 765 q 890 722 887 743 l 892 702 l 895 682 m 533 294 l 530 294 l 530 304 l 533 304 l 533 294 z "},"h":{"ha":844,"x_min":20,"x_max":824,"o":"m 151 488 l 155 488 l 155 498 l 151 498 l 151 488 m 235 301 l 226 301 l 226 298 l 235 298 l 235 301 m 222 227 l 219 227 l 219 217 l 222 217 l 222 227 m 77 342 l 74 342 l 74 333 l 77 333 l 77 342 m 161 120 l 164 120 l 164 130 l 161 130 l 161 120 m 720 143 l 729 143 l 729 146 l 720 146 l 720 143 m 669 383 l 669 391 l 652 388 l 653 383 l 669 383 m 59 342 l 54 342 l 54 323 l 59 323 l 59 342 m 214 449 l 209 449 l 209 430 l 214 430 l 214 449 m 631 277 q 623 275 629 277 l 612 271 l 615 267 l 631 267 l 631 277 m 140 268 q 151 274 142 269 q 158 278 155 276 q 168 283 163 281 l 140 283 l 140 268 m 199 152 q 189 162 196 155 l 174 176 q 178 158 177 165 l 179 153 l 180 149 q 189 150 184 149 l 193 151 l 199 152 m 83 294 q 98 265 87 286 l 98 294 l 83 294 m 621 235 l 612 235 l 616 208 l 621 209 l 621 235 m 234 206 l 227 207 l 219 207 q 216 193 216 199 q 234 169 216 178 l 234 206 m 165 292 q 180 285 170 285 q 185 286 182 285 l 185 314 q 155 312 168 313 q 165 292 161 296 m 234 408 q 216 411 224 411 q 187 395 197 411 l 187 367 l 201 353 l 234 353 l 234 408 m 743 247 l 760 241 l 769 237 q 780 234 774 235 q 768 254 772 246 q 783 283 769 264 q 792 298 789 292 q 798 317 797 307 q 777 309 790 313 l 766 306 l 757 302 q 729 274 736 293 l 735 262 l 743 247 m 132 223 l 128 231 l 125 239 q 119 254 121 249 l 77 254 q 101 206 95 223 l 99 208 l 91 201 l 94 199 q 104 209 98 203 l 132 223 m 734 454 l 745 448 q 757 439 751 443 q 758 458 758 450 q 741 460 745 459 q 725 469 735 469 q 709 465 718 469 l 711 456 q 713 446 712 451 q 739 459 730 455 l 734 454 m 264 1057 l 264 703 l 583 703 l 583 1058 l 824 1058 l 824 92 l 585 92 l 585 467 l 519 467 q 496 317 496 390 q 497 289 496 303 q 501 257 498 277 l 504 241 l 506 225 q 507 218 507 222 q 506 209 507 214 l 505 192 q 504 182 504 186 q 508 163 504 170 q 517 118 517 147 l 518 95 q 524 73 519 82 q 528 36 528 59 l 528 26 l 527 1 q 526 -16 526 -9 l 526 -24 q 530 -45 526 -31 l 534 -57 l 535 -68 l 535 -75 q 516 -127 535 -107 q 458 -151 495 -150 l 441 -151 q 390 -110 416 -130 l 390 -66 q 391 -23 390 -41 q 395 1 391 -13 l 400 26 q 401 32 401 28 q 400 39 401 35 l 399 45 l 399 54 q 408 76 399 68 q 410 79 410 77 l 410 85 q 419 235 415 132 q 421 321 421 287 q 418 376 421 360 q 387 467 410 431 l 264 467 l 264 93 l 27 93 q 20 527 22 123 l 20 693 q 24 1057 20 959 l 264 1057 z "},"i":{"ha":279,"x_min":20,"x_max":259,"o":"m 94 135 l 101 140 l 108 146 q 79 163 100 150 q 77 145 78 156 l 77 140 l 77 135 q 76 121 77 128 q 94 135 85 129 m 64 274 l 69 265 q 102 269 77 266 q 81 296 85 292 l 73 285 l 64 274 m 149 399 q 155 391 152 395 l 157 387 l 159 384 q 167 374 165 376 l 174 377 l 181 380 q 193 387 189 385 l 193 399 l 149 399 m 99 109 q 112 97 107 104 l 116 90 l 119 82 q 140 60 126 64 q 144 75 144 67 q 142 87 144 81 l 138 93 l 136 98 q 131 109 132 104 l 99 109 m 162 350 q 151 353 157 353 l 149 353 q 136 350 143 353 q 119 346 125 346 q 113 347 115 346 q 102 342 110 346 q 96 339 98 340 q 86 335 91 337 q 127 323 106 330 l 162 313 l 162 350 m 208 285 l 222 289 q 218 290 218 290 l 218 290 l 230 285 l 220 285 l 220 256 l 197 256 q 192 267 195 260 l 190 273 l 186 280 q 167 262 169 264 q 174 247 170 256 l 179 233 q 194 242 193 241 l 201 245 l 209 246 q 216 225 213 235 l 220 229 l 224 233 q 232 243 229 239 l 231 252 q 227 264 230 258 q 198 296 220 279 l 208 285 m 20 1058 l 259 1058 l 259 83 l 182 83 l 180 66 l 177 52 q 174 22 174 34 l 174 0 l 175 -22 q 176 -37 176 -30 q 173 -65 176 -54 q 163 -164 163 -104 l 163 -179 l 164 -208 l 165 -237 l 165 -252 q 163 -294 165 -275 q 163 -304 163 -299 q 165 -335 163 -319 l 170 -356 l 173 -376 q 176 -397 175 -385 l 176 -418 q 181 -460 176 -444 q 186 -495 186 -474 l 186 -505 l 185 -517 l 184 -530 q 183 -555 183 -545 q 138 -587 155 -575 q 86 -534 99 -575 l 86 -529 q 96 -484 86 -513 q 97 -473 97 -479 l 97 -462 l 96 -454 l 96 -452 q 106 -425 96 -435 l 106 -420 q 105 -407 105 -414 q 107 -375 105 -392 l 111 -353 l 113 -330 q 118 -276 118 -300 q 115 -241 118 -256 q 106 -137 106 -201 l 106 -127 l 107 -98 l 107 -69 q 105 -12 107 -37 q 98 34 104 7 l 87 81 l 20 81 l 20 1058 z "},"j":{"ha":661,"x_min":20,"x_max":641,"o":"m 76 256 l 73 256 l 73 246 l 76 246 l 76 256 m 260 256 l 256 256 l 256 246 l 260 246 l 260 256 m 273 278 l 282 278 l 282 281 l 273 281 l 273 278 m 111 188 l 115 188 l 115 197 l 111 197 l 111 188 m 598 536 l 595 536 l 595 527 l 598 527 l 598 536 m 53 391 l 56 391 l 56 401 l 53 401 l 53 391 m 66 342 l 63 342 l 63 333 l 66 333 l 66 342 m 92 362 l 95 362 l 95 372 l 92 372 l 92 362 m 243 114 l 253 114 l 253 117 l 243 117 l 243 114 m 465 332 l 456 331 l 460 315 l 465 315 l 465 332 m 338 157 l 330 157 l 334 140 l 338 141 l 338 157 m 203 157 l 195 157 l 199 140 l 203 141 l 203 157 m 389 158 l 389 157 q 398 140 389 140 q 409 144 402 140 l 408 151 l 406 158 l 389 158 m 158 142 q 157 154 157 149 l 155 163 q 153 180 154 174 l 137 163 l 158 142 m 510 188 l 496 174 l 509 157 q 517 167 513 162 l 521 170 l 524 174 l 510 188 m 425 250 q 415 256 421 251 l 410 260 l 404 262 q 392 266 398 266 q 380 262 387 266 q 400 246 387 247 q 413 248 405 246 l 419 248 l 425 250 m 357 271 l 351 275 l 342 279 l 342 237 l 355 237 q 368 263 359 246 q 357 271 365 266 m 241 268 q 227 285 235 275 l 220 292 l 213 299 q 189 268 197 279 l 241 268 m 273 115 l 273 110 l 273 106 l 274 103 l 315 103 q 301 144 307 127 q 273 115 275 119 m 552 280 q 529 285 541 285 q 505 280 517 285 l 495 275 l 485 270 q 463 260 471 263 l 477 208 l 511 208 q 530 231 519 217 l 541 242 q 552 255 547 250 l 552 280 m 156 204 l 165 201 q 178 195 175 197 q 184 189 181 193 l 191 184 q 203 172 197 178 l 203 208 q 193 217 199 212 l 184 225 q 168 239 174 234 q 158 243 165 241 l 152 245 l 146 248 l 155 264 l 165 281 q 134 294 146 292 q 121 296 127 296 q 101 291 111 296 q 83 286 94 287 l 75 286 l 66 285 q 63 282 64 284 l 60 279 l 67 272 l 74 266 q 77 268 75 266 l 79 271 q 83 273 81 273 q 87 272 85 273 l 90 248 q 146 246 128 248 l 146 208 l 127 204 l 128 198 q 138 200 134 199 q 146 208 143 202 l 156 204 m 398 1058 l 640 1058 l 640 869 l 641 710 q 640 391 641 522 q 602 227 638 298 q 445 91 556 136 l 433 86 q 420 82 425 83 q 412 81 416 81 l 392 81 q 378 -52 378 4 q 379 -79 378 -66 l 379 -114 q 387 -149 380 -134 q 391 -164 391 -155 l 391 -186 q 397 -218 391 -207 q 399 -226 399 -220 q 397 -238 399 -231 l 391 -262 l 380 -267 l 372 -271 q 355 -277 360 -275 q 329 -260 339 -274 q 321 -248 326 -256 l 319 -242 l 315 -237 q 331 -58 331 -139 q 320 68 331 11 l 284 75 l 266 79 l 248 82 l 242 52 l 237 22 q 233 -23 233 -3 q 233 -38 233 -31 q 235 -77 235 -54 l 234 -96 l 234 -115 q 233 -141 234 -125 l 231 -167 l 231 -178 q 236 -216 231 -201 q 240 -239 239 -226 l 241 -251 l 241 -262 q 253 -306 241 -291 q 256 -343 253 -321 l 261 -381 q 264 -420 264 -402 q 260 -458 264 -441 q 200 -490 234 -490 q 181 -488 191 -490 q 137 -422 137 -475 l 137 -415 l 138 -399 l 138 -383 q 146 -351 140 -365 q 149 -328 149 -344 l 149 -323 q 150 -307 149 -313 q 153 -292 151 -298 q 163 -247 161 -273 l 165 -223 l 165 -200 q 167 -117 167 -164 q 165 -11 167 -69 l 166 1 l 166 14 q 157 39 165 28 q 155 50 155 43 l 155 65 q 147 88 155 80 q 145 97 145 91 l 145 100 l 146 115 l 131 132 l 115 147 q 84 178 97 165 q 50 226 64 196 q 40 253 45 237 l 31 281 q 20 354 21 311 l 21 391 q 20 429 21 414 l 260 429 l 260 347 q 286 318 268 328 q 300 311 291 315 l 315 306 q 332 302 323 302 q 358 311 345 302 q 389 347 380 324 q 399 401 399 373 l 398 1058 z "},"k":{"ha":872,"x_min":20,"x_max":852,"o":"m 499 256 l 496 256 l 496 246 l 499 246 l 499 256 m 86 191 l 96 191 l 96 195 l 86 195 l 86 191 m 93 227 l 90 227 l 90 217 l 93 217 l 93 227 m 473 511 l 484 511 l 484 514 l 473 514 l 473 511 m 751 188 l 748 188 l 748 178 l 751 178 l 751 188 m 684 140 l 680 140 l 680 130 l 684 130 l 684 140 m 530 254 l 522 253 l 526 237 l 530 238 l 530 254 m 79 519 l 87 519 l 83 536 l 79 535 l 79 519 m 125 84 l 144 84 l 144 89 l 125 89 l 125 84 m 612 260 l 612 245 l 616 246 l 620 247 q 625 248 623 247 l 612 260 m 447 575 l 447 555 l 452 555 l 456 556 q 465 558 461 557 l 464 563 l 463 567 l 461 575 l 447 575 m 229 227 l 224 227 l 224 188 l 229 188 l 229 227 m 791 136 l 772 126 l 776 119 l 789 121 q 804 123 797 123 l 791 136 m 203 286 q 201 297 203 290 l 200 302 l 199 309 l 191 303 l 184 298 q 169 286 176 292 l 203 286 m 203 135 l 209 129 q 215 123 212 124 q 222 121 218 121 q 234 126 227 121 l 226 138 l 218 150 l 203 135 m 524 441 l 530 437 l 542 448 l 555 460 q 547 466 551 463 l 543 469 q 538 473 540 471 q 524 441 532 460 m 143 507 l 127 507 l 127 479 l 143 479 l 143 507 m 106 336 q 102 331 104 334 l 98 327 q 104 317 100 324 l 107 311 l 111 304 l 117 304 l 123 305 q 141 307 132 306 l 135 317 l 130 328 q 118 352 123 342 q 106 336 111 343 m 193 587 q 172 614 193 609 q 151 601 157 604 q 181 576 161 576 q 193 578 186 576 q 193 587 193 583 m 565 227 l 559 214 l 553 203 q 569 180 560 193 l 583 160 l 608 160 l 608 191 q 584 227 593 214 l 565 227 m 519 543 l 519 703 l 484 667 l 468 652 l 452 635 q 519 543 484 579 m 123 168 l 130 168 l 136 167 q 127 142 131 153 q 136 135 130 138 l 140 132 l 145 130 q 157 113 157 123 l 168 117 l 176 119 l 193 124 l 193 126 q 172 148 193 144 l 163 150 q 155 152 159 151 q 146 163 148 155 l 151 172 l 157 180 q 148 188 152 184 l 146 190 q 116 161 123 178 l 115 170 l 96 165 l 97 159 q 105 161 103 160 q 107 165 107 163 q 106 170 107 167 q 123 168 115 169 m 81 299 l 75 289 q 67 277 71 282 q 85 275 77 276 q 86 287 86 282 q 85 295 86 292 l 87 294 l 95 300 l 92 303 l 89 299 q 87 294 87 297 l 81 299 m 134 52 l 140 43 l 144 47 l 142 48 l 138 50 q 127 52 135 52 l 136 53 l 132 71 l 125 71 q 127 62 126 64 q 136 54 130 57 l 134 52 m 20 1058 l 260 1058 l 260 772 q 266 771 263 771 q 275 775 271 771 q 278 781 277 777 l 280 783 l 281 785 q 310 823 291 803 l 343 856 l 400 917 q 456 979 433 952 q 490 1019 470 995 l 522 1058 l 840 1058 q 834 1046 840 1051 l 829 1042 q 825 1038 826 1040 q 817 1029 821 1034 l 808 1020 l 797 1010 q 787 1000 791 1004 q 780 988 784 996 l 777 982 l 773 977 q 765 968 770 972 l 735 938 l 735 907 l 734 876 l 734 829 q 726 783 733 802 q 724 766 724 776 q 727 742 724 755 l 732 722 q 735 701 735 709 l 732 656 l 732 650 q 737 614 732 628 q 741 595 740 606 l 741 585 l 741 576 q 747 541 741 552 q 753 507 753 528 l 753 484 q 755 466 753 474 q 713 429 735 448 q 692 435 707 431 l 680 438 l 667 441 l 661 452 l 656 463 q 646 481 650 473 q 658 528 657 500 l 657 551 q 658 574 657 566 l 660 596 l 663 618 q 667 662 666 646 l 667 686 l 667 711 l 667 725 q 668 759 667 746 q 669 767 669 763 q 667 781 669 774 l 665 793 l 663 804 q 658 840 658 825 q 659 852 658 847 q 637 829 648 841 l 628 818 l 618 806 l 612 774 q 605 739 607 752 q 599 680 599 707 q 600 666 599 673 q 589 623 590 649 l 590 600 q 589 578 590 587 q 587 566 589 573 l 584 553 q 582 538 582 544 q 583 530 582 534 q 589 505 589 520 l 589 492 q 589 479 589 485 q 633 391 596 437 l 689 320 l 745 249 l 759 231 l 773 212 l 785 195 l 798 179 l 823 143 l 848 108 q 850 102 850 106 l 851 98 l 852 93 l 770 93 q 754 8 754 62 l 754 -72 q 753 -96 754 -81 l 751 -121 l 751 -131 q 756 -168 751 -153 q 761 -191 760 -178 l 762 -202 l 762 -214 q 772 -258 763 -242 q 776 -274 776 -264 l 776 -277 l 774 -289 q 774 -300 774 -296 l 740 -334 l 701 -334 l 667 -301 l 667 -292 q 684 -186 667 -250 q 686 -172 686 -180 l 686 -158 l 687 -64 q 686 31 687 -9 q 682 60 686 43 l 679 75 l 675 90 l 642 90 q 633 64 637 79 l 630 52 l 627 38 q 621 -31 622 14 l 621 -64 q 617 -98 619 -83 l 613 -121 l 610 -142 q 608 -164 608 -154 q 610 -186 608 -176 q 616 -224 614 -202 l 621 -263 q 636 -340 626 -311 q 646 -391 643 -359 l 646 -404 l 647 -416 q 648 -440 648 -431 q 568 -499 623 -499 q 548 -497 559 -499 q 500 -450 534 -482 l 503 -424 l 505 -399 q 514 -351 507 -370 q 519 -323 518 -341 l 519 -310 q 522 -296 521 -302 q 532 -229 532 -269 l 532 -62 q 532 -20 532 -37 q 529 5 532 -9 l 526 18 l 522 29 q 521 41 521 34 l 520 52 q 516 75 520 66 q 511 108 511 87 l 511 117 l 511 147 l 484 184 l 456 221 l 399 296 q 285 450 334 385 l 273 437 l 267 430 l 260 422 l 260 92 l 188 92 q 174 39 174 73 l 174 33 l 174 10 l 176 -12 l 176 -19 q 172 -54 176 -40 q 163 -168 163 -100 l 163 -176 l 163 -206 l 165 -237 q 165 -270 165 -255 q 165 -298 165 -286 l 165 -303 q 168 -336 165 -317 l 171 -356 l 174 -376 l 175 -394 l 176 -412 q 181 -450 176 -435 q 185 -484 185 -463 l 185 -507 l 184 -519 q 183 -545 183 -535 q 161 -561 175 -551 l 150 -569 l 138 -577 q 88 -532 99 -568 q 87 -519 87 -526 q 96 -475 87 -500 q 97 -465 97 -470 l 97 -460 l 96 -452 l 96 -441 q 106 -416 96 -425 l 106 -411 q 105 -397 105 -404 q 107 -366 105 -383 l 110 -344 l 113 -321 q 117 -266 117 -290 q 115 -231 117 -246 q 106 -127 106 -191 l 106 -89 l 107 -60 q 105 -3 107 -27 q 98 43 104 16 l 92 67 l 87 91 l 20 91 l 20 1058 z "},"l":{"ha":686,"x_min":20,"x_max":666,"o":"m 229 275 l 225 275 l 225 265 l 229 265 l 229 275 m 170 178 l 167 178 l 167 169 l 170 169 l 170 178 m 267 227 l 264 227 l 264 217 l 267 217 l 267 227 m 486 208 l 490 208 l 490 217 l 486 217 l 486 208 m 183 524 l 174 524 l 174 520 l 183 520 l 183 524 m 535 227 l 538 227 l 538 236 l 535 236 l 535 227 m 229 333 l 225 333 l 225 323 l 229 323 l 229 333 m 210 378 q 195 378 200 378 q 187 378 189 378 q 186 374 186 377 q 187 367 186 372 l 210 378 m 553 241 l 553 226 q 566 228 564 228 l 553 241 m 177 406 q 191 416 183 410 l 199 422 q 208 429 204 426 l 173 429 q 175 418 174 424 l 176 412 l 177 406 m 242 248 l 247 248 l 252 247 q 259 246 256 246 l 261 246 q 270 262 270 247 l 270 264 l 242 264 l 242 248 m 637 172 l 628 168 l 621 163 q 605 154 612 158 q 621 145 611 151 l 629 141 l 637 137 l 637 172 m 263 290 q 223 306 237 300 l 223 288 l 239 281 l 256 273 q 259 281 257 276 l 261 285 l 263 290 m 319 157 q 347 183 347 163 l 347 186 l 319 186 l 319 157 m 357 138 l 336 140 l 334 140 q 317 134 324 140 q 344 111 324 111 q 357 113 350 111 l 357 138 m 59 583 l 64 576 l 60 575 l 56 574 l 57 574 q 72 541 63 561 q 79 553 75 547 l 85 564 q 96 583 92 576 l 59 583 m 580 212 l 601 205 q 624 197 614 200 l 632 209 l 637 216 q 644 225 641 221 q 608 227 623 227 q 580 224 591 227 l 580 212 m 20 1058 l 259 1058 l 259 325 l 666 325 l 666 93 l 476 93 l 464 68 q 455 44 457 54 q 445 -58 447 -3 q 444 -133 444 -98 q 445 -199 444 -168 l 446 -225 l 446 -252 q 452 -307 446 -284 q 463 -357 458 -326 l 467 -383 l 472 -410 q 475 -447 475 -425 l 475 -454 l 474 -478 l 473 -501 q 422 -547 459 -540 q 404 -549 414 -549 q 355 -538 382 -549 q 342 -519 349 -530 l 336 -511 l 328 -500 q 328 -481 328 -494 l 326 -461 l 326 -452 q 331 -420 326 -433 q 334 -403 333 -413 l 335 -395 l 336 -386 q 348 -355 337 -365 l 348 -350 q 350 -328 348 -340 l 352 -315 l 355 -301 q 359 -261 359 -277 q 358 -248 359 -254 l 357 -239 l 357 -231 q 364 -216 357 -222 q 368 -208 367 -214 l 368 -204 q 367 -199 368 -201 q 356 -155 356 -181 l 356 -153 l 357 -129 q 358 -105 358 -114 q 349 -34 358 -79 l 342 1 q 338 37 339 21 q 317 71 338 38 q 318 50 318 60 q 317 33 318 41 l 315 16 l 313 -1 q 308 -47 308 -28 q 309 -64 308 -57 q 314 -98 313 -79 l 317 -131 q 328 -197 319 -174 q 328 -205 328 -201 q 326 -221 328 -212 l 322 -234 l 319 -247 q 267 -259 283 -255 l 260 -252 l 254 -245 l 240 -232 l 241 -220 l 243 -207 l 246 -180 l 247 -177 l 249 -174 q 251 -168 251 -170 l 255 -123 l 260 -80 q 262 -28 262 -52 q 260 7 262 -9 q 255 47 259 23 l 251 68 l 247 90 l 248 90 l 246 90 l 244 91 l 20 91 l 20 1058 z "},"m":{"ha":985,"x_min":20,"x_max":965,"o":"m 541 153 l 551 153 l 551 156 l 541 156 l 541 153 m 160 623 l 157 623 l 157 614 l 160 614 l 160 623 m 134 336 l 144 336 l 144 340 l 134 340 l 134 336 m 415 349 l 406 349 l 406 346 l 415 346 l 415 349 m 393 382 l 389 382 l 389 372 l 393 372 l 393 382 m 525 72 l 528 72 l 528 81 l 525 81 l 525 72 m 552 218 l 561 220 l 557 235 l 552 235 l 552 218 m 376 404 l 395 404 l 395 408 l 376 408 l 376 404 m 776 197 l 781 197 l 781 217 l 776 217 l 776 197 m 842 277 l 851 277 l 847 294 l 842 293 l 842 277 m 871 293 l 872 284 l 888 288 l 888 293 l 871 293 m 868 257 l 867 266 l 852 262 l 852 257 l 868 257 m 193 248 l 212 248 l 212 253 l 193 253 l 193 248 m 582 595 l 587 595 l 587 614 l 582 614 l 582 595 m 543 171 q 533 181 540 174 q 527 187 529 185 q 519 195 523 191 q 522 178 521 184 l 524 172 l 524 168 q 533 170 528 168 l 538 170 l 543 171 m 765 121 l 774 123 l 770 148 l 765 147 l 765 121 m 163 319 q 182 294 163 304 q 182 299 182 297 q 164 323 182 314 q 163 319 163 321 m 447 188 l 447 168 l 452 168 l 456 170 q 464 171 461 170 l 463 176 l 463 180 l 460 188 l 447 188 m 444 365 l 465 365 q 461 382 463 376 l 456 381 l 452 380 l 444 378 l 444 365 m 300 366 l 310 370 l 317 374 q 302 393 311 382 l 300 385 q 299 378 299 381 q 300 371 299 375 l 300 368 l 300 366 m 49 326 l 57 326 l 55 361 l 49 361 l 49 326 m 444 515 l 424 515 q 427 497 426 503 l 432 498 l 436 499 l 444 500 l 444 515 m 220 315 q 210 313 216 314 l 206 313 l 201 311 l 203 298 l 204 283 q 213 286 208 284 l 220 287 l 220 315 m 502 234 l 510 238 l 510 266 q 475 263 494 264 q 490 246 482 255 l 502 234 m 96 495 q 87 496 91 496 q 65 471 70 496 l 96 471 l 96 495 m 606 359 q 621 351 612 355 l 635 344 l 642 352 q 647 360 646 357 q 648 366 648 362 l 648 377 q 618 391 640 381 l 606 359 m 890 152 q 905 149 899 149 q 922 158 916 149 q 928 172 925 163 l 930 180 l 932 188 q 944 179 941 181 l 949 182 l 941 196 q 933 212 937 203 q 912 178 917 185 q 890 178 898 178 l 890 152 m 500 113 q 511 126 506 120 q 528 145 519 135 l 516 150 l 506 154 q 488 163 494 159 q 481 152 485 158 l 475 142 q 464 124 469 132 l 481 119 l 490 116 l 500 113 m 115 347 l 109 351 l 104 355 q 96 361 98 358 q 89 376 93 366 l 82 389 q 77 391 81 391 l 68 391 l 68 364 q 86 358 77 361 q 80 337 83 349 l 74 315 l 115 315 l 115 347 m 147 145 q 172 155 159 145 l 180 161 l 186 166 q 203 172 195 172 l 197 178 l 193 182 q 183 192 187 189 q 167 198 176 198 q 157 196 162 198 l 151 179 l 134 178 l 116 177 q 117 173 117 175 q 113 163 117 168 l 102 151 q 94 135 94 142 q 100 121 94 127 q 109 120 105 120 q 137 146 131 120 q 147 145 142 145 m 570 264 l 576 265 l 595 233 q 621 267 613 242 l 628 286 q 641 303 633 296 q 586 324 597 319 q 570 311 577 317 l 570 264 m 348 235 l 356 242 l 353 245 l 350 241 q 349 235 349 239 l 347 237 l 338 231 l 342 228 l 345 232 q 347 237 346 234 l 348 235 m 735 92 l 735 446 q 659 277 701 375 l 623 191 l 587 104 q 559 84 566 103 q 555 67 557 79 l 553 58 l 551 50 q 540 -52 540 9 l 540 -58 l 541 -85 l 541 -113 q 542 -144 542 -130 q 541 -168 542 -157 q 551 -206 550 -183 l 550 -227 q 551 -246 550 -239 q 555 -271 552 -256 l 560 -296 q 561 -300 561 -298 q 560 -307 561 -303 l 560 -313 l 559 -319 q 570 -340 559 -332 l 570 -423 q 564 -436 567 -429 l 560 -442 l 557 -448 l 545 -454 l 532 -460 q 504 -474 517 -467 l 474 -452 q 446 -432 457 -440 q 444 -407 446 -422 l 444 -395 l 443 -382 l 443 -373 q 448 -339 443 -352 q 452 -318 452 -330 l 452 -308 l 451 -297 l 451 -294 q 463 -258 451 -271 q 464 -256 464 -258 l 463 -254 q 462 -234 462 -245 q 466 -193 462 -216 l 471 -163 q 473 -132 473 -145 l 473 -100 l 475 -68 l 475 -58 q 471 -6 475 -27 l 468 20 q 465 47 466 37 q 447 94 459 77 l 439 100 l 401 101 l 387 138 l 372 178 l 359 178 l 355 146 l 351 114 q 348 74 348 92 q 349 52 348 62 l 353 22 l 357 -7 q 370 -67 362 -43 q 355 -79 364 -72 l 347 -85 q 338 -92 342 -89 l 302 -92 l 300 -90 l 298 -87 q 294 -79 296 -83 q 279 -58 287 -70 l 279 -55 q 286 -17 279 -42 l 289 -5 l 292 7 q 298 33 296 22 q 303 89 303 64 q 297 138 303 117 q 289 193 290 162 l 290 219 l 290 245 l 290 252 q 289 272 290 261 l 287 284 l 284 297 q 279 338 279 322 q 279 348 279 344 q 271 373 273 358 l 270 386 l 270 399 q 252 451 269 435 l 252 92 l 20 92 l 20 1058 l 254 1058 l 313 915 l 372 772 q 491 483 443 601 l 494 488 l 498 494 q 502 503 500 499 l 515 532 l 528 562 q 553 621 543 597 q 601 742 583 703 l 629 806 q 654 869 644 842 q 671 907 661 886 l 688 945 q 715 1023 709 991 q 724 1041 718 1031 l 730 1050 l 736 1058 l 965 1058 l 965 92 l 918 92 q 919 66 919 80 q 914 -5 919 36 l 911 -28 l 909 -52 q 907 -89 907 -72 l 907 -100 q 928 -290 910 -180 l 924 -294 l 921 -298 q 913 -307 916 -304 q 887 -315 902 -315 l 882 -315 q 878 -302 881 -311 l 874 -293 l 871 -283 l 860 -292 l 866 -245 l 873 -197 q 881 -102 880 -142 l 881 -96 q 876 -7 881 -64 l 873 17 l 871 41 q 869 92 869 69 l 735 92 z "},"n":{"ha":831,"x_min":20,"x_max":810,"o":"m 123 178 l 119 178 l 119 169 l 123 169 l 123 178 m 720 285 l 723 285 l 723 294 l 720 294 l 720 285 m 774 239 l 784 239 l 784 243 l 774 243 l 774 239 m 781 788 l 777 788 l 777 779 l 781 779 l 781 788 m 639 123 l 648 123 l 648 127 l 639 127 l 639 123 m 629 146 l 619 146 l 619 143 l 629 143 l 629 146 m 781 149 l 777 149 l 777 140 l 781 140 l 781 149 m 629 404 l 639 404 l 639 408 l 629 408 l 629 404 m 203 229 l 222 229 l 222 234 l 203 234 l 203 229 m 376 283 l 368 282 l 371 267 l 376 267 l 376 283 m 145 519 l 165 519 l 165 524 l 145 524 l 145 519 m 205 176 l 205 168 l 222 172 l 221 176 l 205 176 m 498 479 l 494 488 l 490 498 l 486 496 l 486 479 l 498 479 m 38 292 q 42 267 39 282 q 46 276 44 272 l 49 283 q 54 292 53 290 l 38 292 m 106 220 q 104 226 106 224 q 100 227 102 227 l 98 227 l 94 226 l 90 225 q 101 203 97 212 q 106 220 106 215 m 39 158 l 39 157 q 48 140 39 140 q 59 144 52 140 l 58 151 l 56 158 l 39 158 m 389 352 q 403 354 394 353 l 411 355 q 421 357 416 356 q 411 361 416 359 l 402 364 q 387 370 393 368 l 388 361 l 388 357 l 389 352 m 766 322 l 770 315 q 783 299 777 307 l 783 334 q 760 330 770 332 l 766 322 m 138 127 l 144 134 q 127 165 138 144 q 119 155 123 161 l 116 151 l 113 146 q 126 136 119 142 l 138 127 m 421 623 q 439 631 429 623 q 401 646 425 636 q 421 623 408 623 m 709 238 q 738 261 730 238 q 728 265 732 263 l 716 271 q 707 259 713 267 l 699 251 q 691 241 695 245 q 709 238 701 238 m 401 293 q 395 276 398 283 l 416 276 l 416 317 q 415 334 416 329 l 404 332 q 391 328 397 329 q 396 321 393 324 l 400 316 q 407 308 404 311 l 401 293 m 106 337 q 67 319 80 325 l 68 302 l 70 286 l 106 286 l 106 337 m 221 268 l 221 330 l 209 342 l 203 330 l 197 318 q 183 291 189 302 q 221 268 202 272 m 494 423 l 509 411 l 525 397 q 555 445 538 417 q 522 463 538 454 q 494 423 511 447 m 164 449 q 186 446 175 449 l 182 437 l 179 429 q 172 414 174 420 q 188 410 178 412 l 193 420 l 198 431 l 205 429 l 211 427 q 224 418 212 427 q 222 440 223 428 l 222 468 q 219 502 222 488 q 198 490 205 494 l 190 495 q 184 498 186 497 l 174 493 l 164 488 l 146 477 l 125 488 l 106 498 l 98 490 l 91 484 q 77 471 81 475 q 83 427 83 446 q 81 404 83 414 q 164 449 121 449 m 524 276 l 517 284 l 514 281 q 524 277 518 277 l 526 277 l 543 259 l 562 241 q 571 238 565 239 l 576 237 l 582 237 q 604 228 597 237 q 623 241 610 232 l 633 249 q 644 257 639 254 l 637 260 l 632 262 q 623 267 626 264 q 616 277 620 270 l 613 283 q 608 292 610 288 q 602 279 605 287 l 597 267 q 578 256 591 256 l 577 256 q 557 288 570 267 q 522 274 534 279 l 524 276 m 144 247 l 136 240 l 140 237 l 142 241 q 144 247 144 244 l 146 245 l 154 252 l 151 255 l 148 251 q 146 245 146 248 l 144 247 m 764 -252 l 742 -275 l 703 -275 l 690 -263 l 684 -256 l 677 -250 q 679 -233 679 -243 l 678 -223 l 677 -214 l 677 -208 q 684 -177 677 -189 q 688 -159 688 -170 l 688 -151 l 688 -141 l 688 -136 q 696 -104 688 -115 q 698 -98 698 -102 l 697 -94 l 696 79 q 657 92 682 92 l 631 92 q 607 94 618 92 l 589 119 l 572 145 q 534 198 551 175 q 458 308 492 258 l 452 286 l 446 264 q 435 222 439 239 q 426 163 428 189 q 425 132 425 148 q 426 100 425 116 q 430 66 427 87 l 435 32 q 436 24 436 28 q 435 16 436 20 l 435 7 l 435 -1 q 445 -32 435 -20 l 450 -96 q 454 -159 454 -133 l 454 -163 q 444 -205 454 -193 q 398 -229 433 -218 q 391 -232 395 -229 l 386 -234 l 377 -233 l 368 -231 q 353 -228 359 -230 q 310 -165 310 -212 l 310 -157 q 318 -62 310 -109 q 321 -12 321 -39 l 321 -2 l 321 28 l 319 59 l 319 66 q 322 98 319 80 l 326 118 q 329 137 328 129 l 330 157 l 332 176 q 336 216 333 200 q 340 261 340 234 l 340 275 l 339 306 l 339 336 q 333 385 339 355 l 328 408 q 323 431 324 421 q 311 486 321 452 l 307 500 l 303 513 q 296 544 298 530 q 278 566 290 551 l 268 579 l 258 593 l 256 593 l 254 592 l 252 591 l 252 589 l 252 93 l 20 93 l 20 1057 l 228 1057 l 239 1039 l 250 1019 q 276 983 264 996 q 318 925 293 964 l 337 895 q 358 867 349 879 q 412 790 379 841 l 439 751 q 466 713 454 729 q 517 640 488 684 l 542 603 l 566 566 l 568 567 l 569 568 q 571 573 571 571 l 571 1057 l 810 1057 l 810 92 l 759 92 l 755 73 l 751 55 q 746 18 747 33 q 745 -9 745 7 l 745 -20 l 745 -59 l 745 -75 l 746 -91 q 754 -123 747 -109 q 757 -138 757 -130 l 757 -154 q 763 -187 757 -175 q 767 -210 767 -195 l 767 -217 l 766 -235 l 764 -252 z "},"o":{"ha":941,"x_min":20,"x_max":921,"o":"m 366 91 l 363 91 l 363 81 l 366 81 l 366 91 m 392 62 l 395 62 l 395 72 l 392 72 l 392 62 m 532 132 l 531 140 l 515 136 l 516 132 l 532 132 m 174 176 l 165 176 l 170 160 l 174 161 l 174 176 m 595 378 q 595 363 595 369 q 595 357 595 358 q 600 355 596 355 q 607 356 603 355 l 595 378 m 424 161 q 425 177 425 172 q 424 184 425 182 q 419 185 422 185 q 412 184 416 185 l 424 161 m 874 451 l 883 452 l 879 477 l 874 477 l 874 451 m 372 157 l 378 163 q 386 172 382 168 q 368 168 376 170 l 363 167 l 359 165 q 362 146 360 157 q 372 157 366 151 m 351 244 l 352 236 l 378 239 l 377 244 l 351 244 m 787 188 l 793 188 l 794 199 q 795 210 794 205 q 799 218 796 213 l 802 222 l 805 229 l 785 224 l 786 205 l 787 188 m 245 370 l 256 351 q 271 367 268 363 l 264 374 l 258 382 q 251 374 255 378 l 248 372 l 245 370 m 642 254 l 644 248 l 646 241 q 652 231 649 234 q 659 227 653 229 l 670 226 l 669 235 l 669 242 q 668 254 668 250 l 642 254 m 694 355 q 669 328 669 345 q 673 314 669 321 q 691 325 682 319 q 698 330 694 328 l 704 334 l 699 345 l 694 355 m 448 106 l 448 101 l 489 101 q 492 103 490 101 l 494 106 l 470 131 q 448 106 448 125 m 83 557 l 67 550 l 58 546 l 50 542 q 52 517 51 528 l 75 517 l 81 533 l 85 542 l 90 551 l 83 557 m 575 476 l 567 499 q 543 474 543 489 l 543 473 l 545 467 l 545 464 l 545 462 l 564 456 q 584 451 575 454 q 575 476 581 461 m 288 160 l 278 165 l 269 170 l 252 153 q 316 129 281 142 q 325 141 319 134 l 330 149 q 336 158 333 154 q 313 159 314 159 q 303 163 309 160 l 295 167 q 291 163 293 165 l 289 161 l 288 160 m 551 278 l 562 289 q 572 301 568 295 q 583 335 582 316 l 570 332 l 559 329 l 538 323 q 526 336 533 329 q 506 288 516 311 q 551 278 530 283 m 204 256 q 166 222 185 239 l 166 218 q 186 188 166 193 l 205 198 l 225 208 l 233 203 l 240 199 q 247 205 243 201 q 252 211 250 210 l 229 256 l 204 256 m 442 217 q 451 186 446 203 l 454 172 l 458 159 l 468 159 l 477 159 q 494 159 487 159 q 507 154 499 157 l 515 151 l 522 148 l 522 209 l 499 209 q 503 236 500 221 l 495 239 l 488 229 q 479 217 484 223 l 442 217 m 590 187 l 590 158 l 585 159 l 581 160 q 575 161 576 161 q 584 191 581 182 l 568 208 l 560 192 l 553 177 q 566 155 561 163 l 553 146 l 543 138 l 557 123 l 571 111 q 592 119 579 115 l 614 123 q 651 149 642 129 l 613 187 l 590 187 m 297 496 l 306 532 q 320 604 316 575 q 323 641 323 621 q 320 682 323 660 q 314 720 318 699 l 307 758 q 273 670 277 701 q 269 602 269 648 q 273 473 269 551 l 280 466 q 288 458 284 461 l 297 496 m 608 798 l 602 796 l 602 736 q 602 677 602 701 q 597 618 600 657 l 594 589 l 593 559 l 593 557 q 593 551 593 555 l 597 543 q 601 526 601 532 l 601 519 q 610 462 601 497 l 614 446 l 618 431 q 624 397 623 412 q 669 515 661 442 q 674 575 674 554 q 673 604 674 588 l 669 632 l 665 667 q 659 701 663 686 q 652 717 658 707 l 647 725 l 643 732 l 608 798 m 484 302 q 486 332 485 314 l 488 360 q 496 414 491 393 q 513 517 506 454 q 515 559 515 534 l 515 572 l 515 628 l 515 704 q 514 739 515 724 q 509 792 513 760 l 505 819 l 501 847 q 473 846 490 846 l 458 846 l 444 847 q 389 831 410 846 l 384 804 l 379 777 l 376 762 l 373 747 q 370 718 370 730 q 370 701 370 710 q 370 679 370 691 l 369 640 l 369 633 q 378 562 369 591 q 381 545 380 555 l 382 528 q 387 493 383 505 q 390 477 389 486 l 391 469 l 391 460 q 397 425 391 437 q 398 421 398 423 q 397 413 398 418 l 394 406 l 392 399 q 371 372 389 382 q 354 363 366 369 l 345 359 l 334 355 l 340 351 l 346 348 l 356 342 l 379 328 l 390 322 l 400 317 q 441 309 417 314 l 463 306 l 484 302 m 714 198 l 719 198 q 734 200 725 198 l 740 201 l 747 203 l 768 211 q 764 215 766 213 l 760 218 q 755 223 758 221 q 789 245 768 231 q 763 246 777 245 q 729 216 745 230 q 717 222 723 218 l 710 226 l 703 229 l 701 224 l 697 219 q 689 208 694 213 l 680 207 q 669 206 673 206 l 670 197 l 671 188 l 675 189 l 680 189 l 688 189 q 690 205 688 201 q 714 198 701 198 m 119 305 l 112 313 l 109 310 l 111 308 l 114 307 q 125 304 118 305 l 117 304 l 121 285 l 127 286 q 125 295 126 292 q 117 303 123 300 l 119 305 m 821 -308 q 755 -299 793 -304 q 728 -258 736 -272 l 727 -255 l 727 -247 q 728 -240 727 -243 l 731 -221 l 733 -203 q 739 -167 736 -178 q 741 -149 741 -160 l 742 -140 l 743 -131 q 756 -97 745 -109 l 760 -56 l 762 -14 q 765 57 765 26 l 765 68 q 758 113 764 86 l 751 134 l 745 155 l 722 142 l 699 130 q 651 107 671 115 l 625 97 q 600 87 611 91 q 557 81 577 81 q 545 81 551 81 q 497 71 527 71 l 490 71 l 475 72 l 460 72 q 429 69 443 72 q 407 -72 409 -18 l 407 -88 q 410 -153 407 -117 l 415 -193 l 420 -232 q 428 -325 425 -281 q 431 -333 428 -328 l 434 -336 l 436 -340 l 410 -391 l 342 -391 l 334 -381 l 327 -370 q 313 -351 317 -357 q 315 -331 314 -342 l 316 -322 l 317 -314 q 321 -283 319 -296 q 331 -224 325 -258 q 332 -218 332 -221 q 331 -210 332 -214 l 330 -195 l 330 -193 q 339 -165 330 -176 q 342 -153 342 -161 l 340 -144 l 340 -137 l 340 -76 q 340 -16 340 -40 l 340 -12 q 333 34 340 7 l 326 58 q 320 83 322 73 q 297 102 319 94 q 258 119 281 108 l 239 130 l 219 140 l 216 134 q 214 129 215 131 l 214 111 l 213 94 q 205 60 212 75 q 201 28 202 50 l 201 12 q 197 -5 199 3 q 191 -37 191 -22 q 200 -74 191 -56 q 205 -92 203 -81 l 207 -120 l 208 -148 q 216 -203 211 -182 q 224 -270 224 -237 l 224 -275 q 171 -316 199 -294 q 122 -292 131 -300 q 99 -253 113 -284 l 101 -250 l 104 -248 q 107 -243 106 -245 q 108 -224 108 -235 l 108 -204 q 117 -165 109 -180 l 117 -156 q 119 -113 117 -136 l 121 -87 l 124 -61 q 129 9 129 -20 q 127 43 129 28 l 123 75 l 118 107 q 117 117 117 111 l 117 137 q 109 167 117 155 q 106 178 106 171 l 106 182 l 107 191 l 108 200 q 109 215 109 208 q 85 292 109 254 q 56 357 71 315 l 50 375 l 45 391 q 31 425 38 411 q 32 435 32 429 q 28 469 32 450 l 25 479 l 22 490 q 20 512 20 503 l 20 568 q 21 624 20 604 q 88 871 26 759 q 110 904 96 884 l 133 935 q 178 985 149 961 q 205 1004 189 994 l 233 1023 q 343 1069 278 1053 q 442 1079 382 1079 l 450 1079 l 477 1078 l 504 1078 l 524 1078 q 557 1078 543 1078 q 764 980 706 1039 q 866 838 840 903 q 903 723 892 775 q 906 701 905 713 l 907 680 q 913 640 907 654 q 920 597 920 623 l 920 570 q 921 556 920 562 l 921 551 q 916 517 921 539 l 913 508 l 911 498 q 910 483 910 490 l 910 470 q 900 405 910 444 q 888 370 896 389 l 880 352 l 872 334 l 866 321 l 859 309 q 846 282 850 292 l 842 271 l 837 260 q 833 234 833 246 l 833 229 q 830 200 833 217 l 827 183 l 824 165 l 823 150 l 822 134 q 817 101 821 115 q 812 69 812 84 q 823 28 812 47 q 826 10 826 22 l 826 3 l 825 -11 l 825 -24 q 825 -33 825 -28 q 825 -42 825 -37 l 823 -60 l 823 -63 q 831 -95 823 -83 q 837 -125 837 -104 l 837 -133 l 838 -141 q 842 -158 838 -151 q 852 -207 849 -176 l 853 -233 q 855 -258 854 -249 q 821 -308 831 -292 m 474 200 l 477 205 l 481 212 q 482 199 482 203 q 481 192 482 193 q 477 191 481 191 q 469 192 475 191 q 474 200 471 195 z "},"p":{"ha":757,"x_min":20,"x_max":736,"o":"m 191 265 l 187 265 l 187 256 l 191 256 l 191 265 m 56 273 l 48 273 l 52 257 l 56 258 l 56 273 m 191 140 l 186 140 l 186 120 l 191 120 l 191 140 m 233 285 l 233 287 q 206 302 231 295 q 205 285 205 292 q 206 275 205 278 q 218 255 208 269 q 233 285 233 276 m 105 196 q 74 190 79 195 q 71 171 71 186 l 71 159 l 89 159 l 105 160 l 105 196 m 96 228 l 102 226 l 109 224 q 130 217 122 220 l 136 222 l 140 227 l 146 221 q 151 218 149 218 q 163 216 155 216 l 169 217 l 176 217 q 139 242 164 236 l 129 245 l 119 247 q 99 254 106 250 q 81 233 98 252 l 96 228 m 433 625 q 490 685 481 655 q 494 714 494 696 q 484 791 494 744 q 440 825 469 815 q 414 831 429 829 l 400 833 l 387 836 q 339 838 367 838 l 325 838 l 262 836 l 262 625 l 433 625 m 552 396 l 553 374 l 553 366 q 551 333 553 347 q 541 226 541 290 l 541 210 l 542 178 l 543 148 l 543 125 q 542 85 543 102 l 542 73 q 551 22 542 43 q 555 -9 554 12 l 555 -26 q 559 -43 557 -35 q 564 -73 564 -54 l 564 -82 l 562 -104 l 562 -125 l 553 -133 l 543 -141 q 522 -159 532 -151 l 469 -159 q 435 -118 464 -153 q 436 -87 435 -107 l 437 -71 l 437 -54 q 447 17 440 -12 q 454 98 454 49 l 454 138 q 454 178 454 161 q 455 204 455 189 l 455 288 q 454 313 455 302 q 449 352 453 329 l 442 390 q 435 391 439 391 q 424 382 427 391 l 422 378 l 421 372 q 417 364 420 367 q 415 355 415 362 l 415 352 l 416 344 l 416 336 l 416 259 q 416 181 416 213 q 420 113 417 153 l 426 45 l 427 41 q 428 36 427 38 q 435 12 435 26 q 428 -20 435 -2 q 409 -43 422 -35 l 403 -45 l 397 -48 q 387 -54 391 -52 q 328 0 344 -50 q 330 12 329 3 l 332 19 l 333 27 q 338 62 336 47 q 339 74 339 67 l 339 81 l 338 90 l 338 100 l 338 102 q 348 136 338 123 q 349 143 349 138 l 349 146 l 349 153 l 349 389 l 262 389 l 262 93 l 20 93 l 20 1059 l 62 1059 l 155 1059 l 248 1058 q 434 1060 359 1058 l 440 1060 q 600 1008 524 1060 q 712 873 678 954 l 722 848 q 730 822 728 834 q 736 780 736 800 q 736 767 736 774 q 735 742 735 757 l 735 685 q 674 517 732 597 q 551 418 642 471 l 552 396 z "},"q":{"ha":956,"x_min":20,"x_max":936,"o":"m 141 265 l 144 265 l 144 275 l 141 275 l 141 265 m 606 178 l 609 178 l 609 188 l 606 188 l 606 178 m 138 471 l 157 471 l 157 476 l 138 476 l 138 471 m 697 72 l 692 72 l 692 52 l 697 52 l 697 72 m 408 205 l 399 205 l 403 189 l 408 189 l 408 205 m 814 -7 l 806 -8 l 809 -24 l 814 -23 l 814 -7 m 422 342 l 432 322 l 436 326 l 436 342 l 422 342 m 710 358 l 720 362 l 730 366 l 726 370 l 710 370 l 710 358 m 205 578 q 211 579 210 578 q 212 584 212 580 q 212 591 212 587 l 208 589 l 203 587 q 191 579 197 583 q 205 578 200 578 m 218 241 l 218 226 q 231 228 229 228 l 218 241 m 661 176 l 640 176 q 644 158 642 167 l 648 159 l 653 160 l 661 161 l 661 176 m 392 446 l 389 444 q 383 438 385 440 q 380 431 380 435 q 384 420 380 426 l 387 423 l 390 426 q 396 431 395 429 q 399 439 399 435 q 395 450 399 444 l 392 446 m 233 638 q 227 629 230 634 l 222 623 q 213 611 216 614 l 222 616 l 229 593 l 233 597 l 233 638 m 247 421 l 242 431 q 210 426 235 429 q 216 418 212 422 l 221 411 q 230 399 227 404 l 239 410 l 247 421 m 752 159 l 749 159 l 749 130 q 779 132 764 130 q 752 159 773 159 m 486 238 l 477 237 l 469 235 q 451 232 458 233 q 479 201 474 205 l 484 201 l 486 201 l 486 238 m 575 276 q 548 304 571 304 l 543 304 q 538 302 541 304 l 537 301 l 536 300 l 543 288 l 549 276 l 575 276 m 221 214 l 209 210 q 188 203 196 205 q 195 194 191 199 l 199 190 l 203 185 q 212 191 205 188 l 217 193 l 222 195 q 235 220 235 203 q 221 214 229 218 m 540 212 l 546 215 q 557 222 553 219 q 547 229 552 224 l 543 234 l 538 238 q 524 245 532 245 q 518 245 521 245 q 515 231 515 237 q 532 208 515 216 l 540 212 m 494 309 q 479 325 488 316 l 472 331 l 466 337 l 463 336 l 458 333 l 453 331 l 448 328 l 465 311 q 480 296 473 302 q 486 295 481 295 l 494 295 l 494 309 m 604 211 l 612 218 l 617 193 l 627 193 l 636 216 l 640 212 l 640 244 l 604 244 l 604 211 m 591 113 l 596 120 q 606 132 602 127 l 600 136 l 594 138 q 585 143 588 141 q 595 168 591 157 l 566 168 l 566 123 q 574 115 569 120 l 579 111 q 585 106 582 109 q 591 113 587 109 m 448 125 q 427 136 435 131 l 427 170 l 402 168 l 378 166 q 383 150 381 155 l 389 149 l 395 149 q 406 149 403 149 q 412 135 408 142 l 416 123 l 413 119 l 410 115 q 434 100 422 100 q 448 105 441 100 l 448 125 m 487 743 q 486 716 486 732 l 486 602 q 488 572 486 585 q 512 490 492 524 q 536 655 535 546 q 511 827 536 764 q 487 743 491 791 m 602 750 q 601 734 602 744 l 600 718 q 595 681 598 695 q 591 643 591 662 q 600 589 591 616 q 607 546 605 574 l 608 524 q 612 501 610 511 l 616 484 l 620 467 q 632 433 625 446 q 637 425 633 429 l 641 420 l 645 416 l 652 436 l 659 456 q 669 492 667 477 q 671 526 671 507 l 671 536 l 671 557 l 671 642 q 670 661 671 654 q 661 691 669 673 q 652 713 657 699 l 643 736 q 617 779 632 764 q 610 766 615 774 l 606 758 l 602 750 m 372 468 l 376 484 l 380 500 q 387 528 384 517 q 389 556 389 543 q 390 644 390 603 q 389 720 390 685 q 385 752 389 736 q 382 773 382 760 l 382 779 l 383 793 l 384 806 q 387 817 385 810 l 388 822 l 390 828 q 313 772 328 804 l 294 732 q 277 691 284 709 q 264 610 264 649 l 264 604 l 264 548 q 272 492 266 515 q 300 406 284 444 q 326 372 307 391 l 334 366 l 342 358 q 355 342 350 350 l 359 346 l 362 349 q 368 354 366 353 q 370 370 370 362 q 368 387 370 378 q 361 399 366 393 l 353 412 l 345 425 l 336 438 q 319 468 326 454 l 372 468 m 770 54 l 767 64 l 764 75 q 757 92 760 85 q 750 98 755 95 l 745 100 l 739 104 q 739 53 739 68 l 729 52 q 719 52 723 52 l 720 42 l 720 33 l 725 33 l 729 34 l 737 35 q 739 54 738 46 l 770 54 m 260 313 l 265 307 q 272 303 269 303 q 281 307 277 303 l 284 315 l 288 325 l 316 325 q 295 345 299 341 q 264 303 267 327 l 263 305 l 255 298 l 258 295 q 260 299 260 296 q 253 317 260 305 q 260 313 256 317 m 418 67 l 412 74 l 406 80 q 390 82 399 82 l 382 81 l 374 81 q 341 96 354 81 l 341 -40 q 342 -77 341 -61 l 342 -109 l 344 -142 q 353 -208 346 -180 q 358 -250 357 -224 l 359 -271 q 361 -293 360 -283 q 319 -323 336 -312 l 309 -320 l 298 -317 q 281 -307 287 -313 q 272 -290 276 -302 l 269 -281 l 266 -272 l 268 -268 l 270 -264 q 273 -256 273 -259 q 281 -187 275 -217 q 290 -122 288 -159 l 292 -89 l 292 -56 q 294 4 294 -28 q 292 75 294 37 q 288 92 292 81 l 285 99 l 282 106 q 100 262 172 154 q 31 451 56 326 q 20 556 21 497 q 22 608 20 578 l 24 660 q 55 806 27 745 l 71 839 q 87 871 79 857 q 130 930 106 906 q 139 941 134 935 l 148 954 q 168 977 159 970 q 294 1055 237 1034 q 347 1072 328 1067 q 397 1078 373 1078 l 531 1078 q 590 1069 557 1078 q 620 1061 603 1066 l 650 1050 q 802 940 741 1017 l 825 911 q 846 882 838 895 q 873 815 869 848 q 895 761 888 798 l 898 747 l 901 732 q 912 705 905 716 q 913 703 913 705 l 912 701 l 912 633 q 915 618 913 626 l 919 604 q 923 581 923 591 q 922 574 923 577 q 916 515 920 553 l 913 486 l 909 457 q 882 344 901 389 l 871 317 q 859 290 865 301 q 826 241 844 260 q 812 223 819 235 l 806 212 l 798 201 q 936 8 879 89 q 897 4 921 4 l 867 4 q 844 2 854 4 l 845 -244 l 846 -260 q 853 -292 847 -278 q 856 -306 856 -298 l 856 -324 q 863 -351 856 -340 q 866 -369 866 -357 l 866 -376 l 865 -384 l 865 -392 q 864 -409 864 -402 l 852 -417 l 841 -426 q 816 -444 827 -436 l 805 -439 l 795 -435 q 777 -428 784 -431 q 757 -374 757 -401 q 762 -345 757 -359 l 765 -336 q 767 -327 767 -331 q 770 -274 768 -305 l 774 -220 q 778 -144 778 -178 q 777 -113 778 -127 q 776 -56 776 -90 l 777 -26 l 777 3 l 652 3 l 621 46 q 591 87 610 61 l 479 69 l 472 26 q 467 -18 469 0 l 467 -39 l 467 -61 l 467 -79 q 467 -104 467 -94 l 467 -110 q 470 -132 467 -120 l 473 -146 l 477 -159 q 477 -167 477 -162 l 477 -172 l 477 -186 q 485 -214 477 -203 q 489 -227 489 -220 q 468 -267 489 -243 q 435 -279 460 -270 l 427 -269 l 417 -260 q 399 -239 406 -248 q 409 -220 401 -236 q 408 -203 408 -212 q 413 -150 408 -182 l 416 -132 l 418 -114 q 420 -91 420 -102 q 419 -77 420 -84 q 418 -5 418 -48 l 418 31 l 418 67 z "},"r":{"ha":835,"x_min":20,"x_max":814,"o":"m 606 643 l 602 643 l 602 633 l 606 633 l 606 643 m 225 169 l 229 169 l 229 178 l 225 178 l 225 169 m 534 488 l 538 488 l 538 498 l 534 498 l 534 488 m 641 120 l 644 120 l 644 130 l 641 130 l 641 120 m 467 333 l 470 333 l 470 342 l 467 342 l 467 333 m 745 143 l 754 143 l 754 146 l 745 146 l 745 143 m 557 469 l 554 469 l 554 459 l 557 459 l 557 469 m 649 345 l 658 345 l 654 361 l 649 360 l 649 345 m 326 616 l 326 624 l 300 621 l 300 616 l 326 616 m 503 345 l 523 345 q 519 363 520 359 l 515 362 l 510 361 l 503 359 l 503 345 m 718 166 q 739 174 722 168 q 718 202 728 189 l 718 166 m 170 186 q 197 164 180 177 q 205 186 199 170 l 170 186 m 134 98 l 134 111 q 125 119 133 119 q 115 117 121 119 q 136 89 122 107 q 134 98 134 91 m 82 280 q 72 263 77 273 l 68 256 l 63 249 q 87 245 77 247 q 82 280 84 266 m 504 295 l 520 295 l 520 323 l 504 323 l 504 295 m 541 277 l 572 277 l 570 282 l 570 287 l 568 295 q 541 292 555 294 l 541 277 m 156 194 l 149 199 l 142 203 q 127 212 133 208 q 124 170 125 189 q 156 194 142 184 m 74 362 q 75 370 75 367 q 50 393 75 388 l 50 362 l 74 362 m 627 437 l 627 475 l 624 478 l 621 481 l 614 488 l 601 474 q 627 437 606 467 m 560 323 q 571 332 570 323 l 570 338 l 568 345 q 564 362 566 354 q 549 344 556 353 l 543 336 l 536 329 q 560 323 551 323 m 182 273 q 170 275 175 275 q 144 256 151 275 q 168 236 151 236 q 182 239 174 236 l 182 273 m 44 342 q 63 279 51 320 q 77 292 70 286 l 83 297 l 90 302 q 73 342 81 323 l 44 342 m 693 252 l 686 264 l 679 275 q 657 321 660 302 l 657 276 q 644 303 648 295 l 618 303 q 629 262 629 288 l 629 256 l 627 243 l 627 233 q 630 210 627 220 q 644 207 637 207 q 669 216 656 207 l 677 221 l 685 226 q 697 229 691 229 q 703 229 700 229 q 693 252 701 240 m 454 823 q 357 837 413 836 l 333 837 l 309 836 q 262 837 281 836 l 262 650 q 313 653 283 653 l 337 652 l 368 652 q 464 666 425 652 l 467 670 l 470 674 l 477 684 q 492 704 485 695 l 492 785 l 454 823 m 556 216 q 564 205 559 211 l 574 195 q 590 174 586 183 q 593 172 590 172 l 597 172 l 601 180 l 604 189 q 618 174 609 183 l 614 168 l 610 165 l 607 161 q 627 159 616 160 l 627 197 q 598 199 612 198 l 598 249 l 586 238 l 565 246 l 540 256 q 513 246 520 246 q 488 254 507 246 l 463 240 q 465 231 465 235 q 460 218 465 224 l 456 214 l 452 210 q 446 201 448 205 q 451 193 451 197 q 446 182 451 189 l 444 178 l 441 174 l 441 172 q 445 165 441 168 q 454 144 454 158 l 454 132 q 456 122 454 126 q 473 142 472 126 l 474 157 q 477 172 475 166 l 508 182 l 540 192 l 541 195 l 541 197 q 545 199 543 199 q 547 199 546 199 q 589 172 558 197 q 567 157 578 169 l 562 152 l 557 146 q 546 138 551 141 l 552 132 l 557 127 q 568 119 563 122 l 584 127 l 592 131 l 602 136 l 600 140 l 598 144 q 590 158 595 151 q 544 217 577 178 l 556 216 m 192 -582 q 150 -596 171 -596 q 107 -581 128 -596 q 94 -533 94 -559 q 102 -488 94 -512 l 104 -481 l 106 -475 q 114 -406 106 -431 q 117 -391 116 -400 l 117 -374 q 125 -343 117 -354 q 124 -319 124 -333 l 124 -305 l 125 -286 l 126 -267 l 126 -254 q 116 -192 126 -217 q 114 -180 114 -188 l 114 -176 l 115 -167 l 115 -158 l 111 -52 l 105 56 q 101 73 104 62 l 97 81 l 94 91 l 20 91 l 20 1059 l 456 1059 q 634 989 544 1059 q 690 926 667 964 q 735 794 734 859 q 737 781 735 789 l 741 768 l 743 761 l 744 755 l 745 751 l 745 747 q 744 740 745 743 q 735 709 738 728 l 734 694 l 734 677 q 715 616 732 636 q 711 608 713 614 l 710 603 l 707 596 q 696 451 696 538 l 696 414 l 696 378 q 696 307 696 334 l 726 253 l 755 200 q 814 94 788 141 q 764 91 795 91 l 751 91 l 719 92 q 686 90 701 91 l 686 71 l 686 52 q 687 14 686 30 l 687 -22 q 694 -60 688 -44 q 699 -88 699 -71 l 699 -96 l 697 -117 q 696 -136 696 -129 l 675 -157 q 684 -224 677 -177 q 689 -262 687 -248 q 695 -304 692 -284 q 644 -345 692 -332 q 589 -292 604 -340 q 595 -249 591 -275 l 598 -227 l 602 -203 q 610 -117 610 -152 l 610 -106 q 608 -58 608 -89 l 608 -9 q 595 90 607 49 l 534 90 l 521 113 l 507 138 q 492 92 492 117 l 492 90 q 488 71 492 83 l 486 61 l 484 51 q 482 32 482 42 q 484 12 482 22 l 486 -13 l 490 -38 q 501 -87 494 -65 q 503 -98 503 -91 l 502 -104 l 503 -111 q 507 -134 504 -119 l 509 -146 q 511 -161 511 -155 q 459 -209 506 -198 q 406 -160 421 -203 q 408 -157 406 -159 l 411 -154 q 414 -146 414 -149 l 414 -145 q 414 -132 414 -139 q 418 -96 414 -117 l 422 -72 q 425 -47 425 -58 q 427 -32 426 -41 l 430 -16 q 434 16 434 5 l 435 56 q 427 95 435 79 q 423 113 424 102 l 424 121 l 424 136 q 415 168 424 157 q 416 183 416 174 q 412 216 416 197 l 410 229 l 407 241 q 406 260 406 251 l 406 265 q 406 281 406 273 q 377 379 406 336 q 366 399 372 387 l 362 409 l 357 419 l 261 419 l 261 92 l 201 92 q 203 74 203 83 q 202 59 203 66 l 200 43 l 197 27 q 191 -20 191 -1 q 193 -36 191 -29 q 184 -105 184 -61 l 184 -111 l 184 -130 l 184 -149 q 182 -186 184 -170 q 174 -257 176 -216 l 174 -328 l 174 -341 l 174 -355 q 182 -382 176 -370 q 184 -392 184 -386 l 184 -401 l 184 -409 l 184 -415 q 192 -436 184 -429 q 195 -465 192 -448 l 200 -494 q 203 -532 203 -515 q 202 -553 203 -544 q 197 -567 201 -559 l 192 -582 z "},"s":{"ha":798,"x_min":20,"x_max":777,"o":"m 463 178 l 460 178 l 460 169 l 463 169 l 463 178 m 511 488 l 508 488 l 508 478 l 511 478 l 511 488 m 550 101 l 547 101 l 547 91 l 550 91 l 550 101 m 414 333 l 412 333 l 412 323 l 414 323 l 414 333 m 214 326 l 234 326 l 234 331 l 214 331 l 214 326 m 264 157 l 266 149 l 281 153 l 281 157 l 264 157 m 233 389 l 224 389 l 227 363 l 233 363 l 233 389 m 478 419 q 484 408 480 416 l 486 404 l 488 401 q 494 391 491 396 l 494 419 l 478 419 m 555 193 l 555 177 q 568 180 566 179 l 555 193 m 421 129 l 428 132 q 425 161 427 144 l 410 146 l 421 129 m 291 262 q 267 231 273 239 q 291 226 286 227 l 291 262 m 565 338 q 576 354 570 346 l 581 361 l 587 368 q 565 373 578 370 l 565 338 m 397 354 q 372 394 385 374 l 372 354 l 397 354 m 497 178 l 505 178 l 511 179 l 524 180 l 524 193 l 511 199 l 505 203 l 497 206 l 497 178 m 268 278 q 294 281 288 278 q 297 294 297 284 q 296 305 297 298 q 277 294 287 303 l 269 286 q 260 278 264 281 l 268 278 m 362 120 q 351 116 356 120 l 359 106 q 350 95 355 100 l 355 89 q 392 101 365 92 q 362 120 376 120 m 65 361 l 76 363 l 89 366 l 85 370 l 83 373 q 81 377 81 376 l 83 380 l 89 389 q 75 391 81 391 q 51 376 60 391 l 65 361 m 318 147 l 296 121 l 298 119 l 302 115 l 312 119 l 321 121 q 339 126 331 124 l 318 147 m 334 179 l 331 173 l 341 166 q 351 159 347 162 q 358 150 354 155 l 366 140 q 379 163 379 151 q 374 179 379 171 l 369 177 l 364 175 q 357 172 358 173 q 344 176 351 174 l 334 179 m 582 721 q 562 708 567 720 l 559 703 l 557 699 q 552 690 555 693 q 582 661 565 673 l 582 721 m 562 132 l 562 157 l 526 157 q 507 132 522 152 l 562 132 m 267 217 l 266 224 l 264 231 q 260 254 262 246 l 221 254 q 243 225 227 239 l 250 220 l 257 214 q 271 200 265 207 q 267 217 269 208 m 119 243 q 144 282 140 264 q 134 285 139 285 q 119 281 127 285 l 113 278 l 107 275 q 94 269 100 271 q 119 243 104 258 m 159 323 q 156 300 156 309 q 157 293 156 296 q 178 275 160 279 q 195 296 193 282 q 196 302 196 298 q 193 323 196 310 l 159 323 m 698 337 q 703 324 698 330 l 724 324 q 736 338 728 329 l 743 346 l 751 355 l 741 359 l 732 364 q 714 374 722 370 q 698 337 698 351 m 669 365 l 665 370 l 663 372 l 662 374 l 659 377 q 637 367 648 372 q 642 359 639 363 l 645 353 q 651 342 649 347 q 637 319 649 339 q 644 315 641 319 l 648 311 l 650 309 q 659 304 654 304 q 669 308 663 304 l 669 365 m 332 321 q 331 332 331 327 q 332 344 331 338 l 334 354 l 336 365 q 342 396 342 383 q 340 406 342 401 q 330 448 336 423 l 324 469 l 318 491 q 304 488 311 488 l 299 488 l 290 490 l 281 494 q 260 498 269 498 q 244 494 251 498 q 243 481 243 488 q 245 464 243 473 q 254 435 247 454 q 264 391 264 408 q 263 382 264 386 q 332 321 281 334 m 293 762 q 366 728 326 737 q 406 716 382 724 l 424 709 l 442 703 q 456 765 456 731 l 456 774 q 452 808 456 789 l 444 843 l 435 846 l 427 849 q 417 852 418 852 q 376 848 399 850 l 339 844 l 328 834 l 316 824 q 293 804 302 812 l 293 762 m 527 295 q 477 272 502 295 l 477 247 l 520 247 l 534 260 q 528 279 534 272 q 491 308 519 292 q 530 300 505 304 q 568 292 554 295 q 564 305 566 298 l 559 316 q 552 334 555 328 l 533 321 q 506 345 524 329 q 503 331 503 337 q 504 325 503 328 q 534 294 509 313 q 527 295 530 295 m 611 227 q 612 208 612 215 q 631 209 621 208 q 617 228 621 224 l 609 231 l 602 235 q 592 241 595 238 q 583 254 588 246 l 580 260 l 576 266 l 555 264 l 555 230 l 570 214 q 587 198 580 205 l 593 198 l 597 199 l 600 199 q 595 212 598 205 l 593 218 l 589 225 q 616 231 606 227 l 611 227 m 443 -130 l 431 -140 q 408 -158 416 -151 q 389 -160 399 -160 q 313 -117 349 -160 q 311 -92 311 -106 q 316 -33 311 -68 l 319 -12 l 321 10 q 323 33 323 22 q 321 53 323 43 q 321 66 321 58 l 321 80 l 308 81 q 292 33 292 60 l 292 -16 l 291 -63 q 293 -157 291 -121 l 295 -183 l 298 -210 q 309 -261 302 -239 q 312 -280 312 -269 l 312 -285 l 311 -298 l 311 -312 q 275 -344 296 -324 l 238 -344 q 222 -327 233 -338 l 214 -317 l 205 -308 l 205 -279 q 214 -247 207 -260 q 216 -232 216 -241 l 216 -224 l 216 -215 l 216 -210 q 224 -183 216 -193 q 225 -178 225 -182 l 225 -174 l 224 -170 l 224 -73 q 224 -48 224 -58 q 223 -28 223 -40 l 224 -9 q 216 31 224 14 q 212 59 212 41 l 212 68 l 213 78 l 214 89 l 214 110 q 205 109 210 109 q 176 119 190 109 l 169 125 l 162 132 q 148 145 153 141 q 86 206 115 169 q 42 279 58 242 q 22 358 27 315 q 20 389 20 372 l 20 425 l 21 449 l 177 449 q 175 469 175 458 l 175 488 q 168 525 175 511 q 140 565 155 554 q 59 687 83 605 q 48 765 49 721 q 50 804 48 782 l 52 843 q 96 945 54 884 q 198 1036 136 1004 q 338 1078 281 1078 l 400 1078 q 434 1079 419 1079 q 460 1078 449 1079 q 662 993 579 1075 l 679 977 l 695 960 q 725 923 713 941 q 743 888 734 909 l 749 871 l 756 853 q 766 809 764 833 q 766 782 766 798 l 766 721 l 679 721 l 680 712 l 680 703 q 679 687 680 694 q 675 675 678 682 l 673 671 q 672 668 672 669 q 677 635 674 656 l 680 621 l 682 604 q 766 481 746 559 q 777 375 777 439 q 776 329 777 353 q 714 200 747 243 q 587 111 671 144 q 572 5 572 67 l 572 -5 q 568 -29 572 -13 l 565 -41 q 564 -54 564 -48 q 567 -85 564 -67 l 570 -102 l 572 -117 l 574 -147 q 581 -177 575 -165 q 585 -203 585 -187 l 585 -212 l 583 -233 q 583 -254 583 -245 q 577 -258 581 -255 l 570 -262 q 550 -275 559 -269 l 519 -275 l 494 -250 l 496 -214 l 498 -178 q 507 -106 501 -136 l 509 -92 l 512 -77 q 515 -54 515 -64 q 514 -47 515 -50 l 511 -21 l 507 4 q 504 46 504 28 l 504 57 q 500 67 504 61 l 495 74 l 490 81 l 459 81 l 456 56 l 452 32 q 448 -7 448 9 l 448 -16 q 451 -41 449 -26 l 454 -66 q 456 -100 456 -84 q 455 -121 456 -111 l 443 -130 z "},"t":{"ha":814,"x_min":20,"x_max":794,"o":"m 393 285 l 391 285 l 391 275 l 393 275 l 393 285 m 171 265 l 168 265 l 168 256 l 171 256 l 171 265 m 187 227 l 191 227 l 191 236 l 187 236 l 187 227 m 165 220 l 174 220 l 174 223 l 165 223 l 165 220 m 158 236 l 161 236 l 161 246 l 158 246 l 158 236 m 317 236 l 312 236 l 312 217 l 317 217 l 317 236 m 311 509 l 320 509 l 317 535 l 311 534 l 311 509 m 342 124 q 351 123 347 123 q 354 124 353 123 q 355 133 355 125 q 355 144 355 138 q 347 132 351 138 l 344 128 l 342 124 m 172 302 q 182 292 175 298 q 189 286 186 288 l 197 277 q 193 295 194 288 l 192 300 l 191 305 q 182 303 187 304 l 178 302 l 172 302 m 176 345 l 184 345 l 184 387 q 181 388 184 387 l 178 389 l 176 391 l 176 345 m 473 330 l 467 336 l 460 342 q 452 343 456 343 q 427 326 434 343 q 443 319 434 323 l 451 316 l 460 312 l 473 330 m 333 262 q 328 252 330 257 q 338 242 338 242 l 362 266 l 361 267 l 358 271 l 368 275 q 376 279 373 277 l 376 308 q 350 298 366 304 l 338 294 l 326 290 q 337 271 333 278 q 333 262 336 267 m 376 235 l 383 228 l 387 231 l 382 234 q 376 235 380 235 l 378 237 l 372 245 l 369 242 l 373 239 q 378 237 376 237 l 376 235 m 319 84 l 281 90 l 281 835 l 227 835 q 213 782 213 820 l 213 775 l 214 755 l 215 734 l 215 726 q 212 693 215 707 q 203 589 203 652 l 203 572 l 204 541 l 204 494 q 203 450 204 470 l 203 444 q 207 411 203 431 l 211 392 q 214 372 213 380 l 214 353 l 214 333 q 221 294 216 311 q 225 255 225 278 l 225 248 l 224 224 l 222 199 q 176 166 202 185 q 165 174 172 170 l 159 177 l 153 180 q 134 202 138 188 q 127 235 127 220 q 134 259 127 249 q 135 263 134 260 l 136 268 l 141 326 q 145 385 144 361 q 147 403 145 393 l 152 420 q 156 452 156 439 l 156 458 q 146 604 149 519 q 145 650 145 624 l 145 749 l 146 753 l 146 760 q 145 763 146 762 q 136 781 138 770 l 135 791 l 134 800 q 117 838 132 827 l 20 838 l 20 1057 l 793 1057 q 794 1010 794 1037 q 793 949 794 983 l 793 894 l 794 838 l 525 838 l 525 100 q 483 82 509 83 l 471 81 l 460 81 q 438 81 446 81 q 434 44 437 66 l 429 8 q 425 -52 425 -26 l 425 -64 q 426 -102 426 -81 l 426 -140 q 425 -175 425 -159 q 427 -214 425 -199 q 437 -286 429 -243 l 443 -321 l 450 -357 l 433 -369 q 416 -382 425 -376 l 381 -382 l 360 -361 l 359 -357 l 358 -353 l 358 -345 q 377 -220 358 -286 q 378 -205 378 -214 l 378 -199 l 378 -188 l 378 -176 q 379 -144 379 -162 q 375 -70 379 -113 l 372 -43 l 370 -16 q 368 28 368 8 l 368 37 q 363 57 368 45 l 359 67 l 355 79 l 319 84 m 338 276 l 345 284 l 348 281 l 340 274 l 338 276 z "},"u":{"ha":836,"x_min":20,"x_max":816,"o":"m 705 401 l 702 401 l 702 391 l 705 391 l 705 401 m 627 353 l 625 353 l 625 342 l 627 342 l 627 353 m 666 149 l 663 149 l 663 140 l 666 140 l 666 149 m 739 412 l 747 413 l 744 429 l 739 429 l 739 412 m 469 245 q 471 240 469 241 q 477 239 472 239 q 490 240 481 239 l 484 244 l 479 248 q 470 253 473 252 q 469 245 469 248 m 297 161 l 293 170 l 291 174 l 290 178 q 269 161 279 170 l 297 161 m 345 286 l 339 277 l 377 257 l 382 267 q 365 278 377 273 l 355 281 l 345 286 m 484 279 l 473 282 l 460 284 l 455 284 q 436 280 446 284 q 446 271 441 275 l 450 267 l 454 264 l 463 268 l 471 272 l 484 279 m 272 260 q 253 241 256 244 l 254 226 l 255 210 q 256 209 255 210 l 259 207 l 272 210 l 272 260 m 748 277 l 751 285 l 755 291 q 728 304 745 304 q 709 301 719 304 l 715 292 l 723 281 q 739 260 732 269 q 748 277 744 269 m 226 412 l 222 421 q 214 434 218 431 q 201 438 210 437 l 193 438 l 185 439 q 194 408 189 413 q 231 401 200 404 q 226 412 229 406 m 621 191 l 621 246 q 630 252 624 248 l 635 256 l 641 260 q 635 279 638 275 q 621 294 633 283 l 611 290 q 602 286 605 287 q 597 285 599 285 q 580 294 588 285 q 592 304 583 298 l 599 308 l 605 313 q 612 327 612 319 q 608 341 612 333 l 585 330 l 561 317 q 568 305 564 313 l 571 300 l 574 294 l 569 286 l 564 278 q 552 260 557 269 q 534 292 547 270 l 534 247 q 514 207 526 229 q 530 208 521 208 l 543 208 l 543 216 l 544 223 q 545 237 544 231 q 565 233 556 235 q 558 227 562 231 l 552 220 q 577 202 566 216 l 586 190 q 595 180 591 183 q 608 185 600 182 l 614 189 l 621 191 m 408 100 l 447 103 q 486 109 471 104 l 505 112 l 524 115 q 561 123 548 119 l 564 132 l 568 138 q 574 152 572 147 q 543 169 563 169 q 528 167 536 169 l 524 159 l 522 152 l 509 156 l 496 159 q 487 160 492 160 q 463 153 476 160 l 456 149 l 448 144 q 433 139 440 140 q 427 144 431 142 l 422 149 l 415 142 l 408 135 q 409 100 408 112 l 407 102 l 399 95 l 402 92 l 406 96 l 408 100 m 573 1053 q 574 1055 573 1054 l 576 1058 l 814 1058 l 815 966 l 815 875 q 814 691 815 766 l 814 601 l 816 555 l 816 499 q 805 336 816 400 l 797 317 l 789 298 q 774 263 781 277 q 732 208 755 227 l 728 191 l 725 176 q 718 146 720 158 q 718 136 718 142 l 718 131 l 718 116 l 718 113 q 709 86 718 97 q 707 77 707 83 l 707 74 l 708 66 l 708 58 l 709 -68 q 707 -193 709 -142 q 712 -221 707 -204 l 716 -234 q 718 -248 718 -241 l 718 -251 q 718 -261 718 -255 l 717 -269 l 717 -277 q 728 -302 717 -293 l 733 -353 l 738 -402 q 674 -459 715 -450 l 665 -459 q 629 -452 640 -459 q 593 -408 615 -444 l 593 -399 q 601 -353 593 -370 q 604 -342 604 -349 l 603 -336 l 602 -329 q 602 -323 602 -326 q 608 -304 602 -311 q 610 -300 610 -302 l 611 -295 l 616 -232 l 621 -169 l 623 -146 l 626 -125 q 631 -81 629 -97 q 631 -37 631 -62 l 631 6 l 630 34 q 622 61 629 50 q 615 84 617 69 l 613 97 l 611 110 q 522 84 574 94 l 475 77 q 429 68 445 72 l 425 64 q 418 57 421 60 l 418 -37 q 418 -131 418 -92 q 422 -160 418 -141 l 425 -175 l 427 -189 q 428 -221 428 -202 l 428 -236 l 427 -252 q 404 -267 420 -265 l 374 -267 q 363 -254 370 -262 l 357 -247 q 351 -238 354 -242 q 371 -50 371 -140 q 361 77 371 15 q 345 81 354 81 l 336 81 l 328 81 l 323 81 q 297 91 306 81 q 281 1 281 59 q 279 -26 281 -11 l 276 -40 l 273 -53 q 271 -63 271 -58 q 275 -85 271 -73 l 280 -101 q 283 -117 283 -110 l 283 -132 l 283 -146 q 290 -177 285 -163 q 294 -209 294 -189 l 294 -218 l 293 -240 q 292 -262 292 -254 q 269 -285 281 -273 l 215 -285 l 206 -264 l 197 -242 q 208 -201 208 -229 l 208 -180 q 213 -158 208 -168 q 222 -116 220 -142 l 223 -94 l 224 -71 q 225 -24 225 -46 q 224 16 225 -3 q 218 60 222 34 l 214 83 l 211 108 q 186 131 201 117 l 160 155 q 107 204 129 184 q 31 347 62 246 q 21 395 24 369 q 20 420 20 406 l 21 1058 l 263 1058 l 262 454 q 295 355 262 393 q 378 312 325 321 l 393 309 l 408 305 q 424 304 416 304 q 437 305 431 304 q 456 311 444 308 l 475 315 q 513 332 498 321 q 572 406 542 355 l 573 1053 z "},"v":{"ha":948,"x_min":20,"x_max":928,"o":"m 582 252 l 572 252 l 572 250 l 582 250 l 582 252 m 378 540 l 389 540 l 389 543 l 378 543 l 378 540 m 515 405 l 517 395 l 518 385 q 526 391 522 388 l 533 397 q 546 406 541 403 l 538 411 l 531 415 q 513 425 521 420 l 515 405 m 649 484 q 623 498 631 497 l 623 498 q 609 487 614 498 q 621 477 613 484 l 626 471 l 633 465 q 641 475 636 469 l 649 484 m 515 258 q 530 256 523 256 q 553 273 548 256 q 554 281 554 277 q 530 305 554 298 q 526 296 528 302 l 521 286 l 515 291 l 515 258 m 393 251 q 390 239 391 245 l 389 235 l 387 231 l 397 227 l 401 225 l 404 224 l 401 211 l 401 203 l 399 195 q 418 203 408 197 l 427 208 l 436 213 q 452 217 444 217 q 473 209 463 217 l 479 216 l 486 224 q 471 256 481 235 l 441 256 l 433 241 q 425 227 429 233 q 393 251 403 243 m 570 176 l 515 184 l 513 178 q 512 170 513 173 q 502 175 509 171 l 496 178 q 489 181 492 180 l 485 172 l 480 163 q 473 148 475 153 l 487 133 q 498 121 495 125 l 551 121 l 570 176 m 296 302 q 284 279 288 288 q 281 262 281 271 q 282 253 281 258 q 283 248 283 250 q 279 228 283 239 l 276 216 q 273 204 274 209 l 271 183 q 269 161 269 170 l 269 157 q 275 123 269 136 q 279 103 278 115 l 279 83 q 292 47 279 59 l 292 45 q 300 -9 292 24 l 307 -37 q 311 -65 311 -53 q 316 -94 312 -77 l 323 -120 q 268 -181 298 -169 l 253 -180 l 237 -180 q 207 -176 218 -180 q 163 -134 176 -168 q 156 -98 156 -115 q 159 -75 156 -86 l 163 -64 q 165 -53 165 -58 l 165 -50 q 175 20 165 -25 l 182 57 q 185 94 185 77 q 197 125 197 104 l 196 134 l 196 143 q 199 160 196 153 q 205 192 204 173 l 205 209 l 204 226 q 200 258 203 239 l 195 290 l 195 304 l 195 319 l 195 321 q 186 349 195 338 q 184 358 184 352 l 184 361 l 184 370 l 185 378 l 185 544 q 151 692 185 598 l 125 766 l 98 840 l 71 911 l 45 982 l 33 1018 l 20 1054 l 22 1056 l 24 1057 q 28 1059 26 1059 l 276 1059 l 325 918 l 374 777 q 472 495 432 611 q 572 777 508 596 l 671 1058 l 928 1058 l 895 971 l 863 884 l 842 823 l 821 761 l 815 743 l 810 724 q 804 686 804 703 l 804 661 q 804 626 804 647 l 804 591 l 804 585 q 795 520 804 546 q 793 500 793 511 q 795 476 793 490 l 800 454 q 804 432 803 441 q 808 390 806 416 l 810 368 l 812 345 l 808 342 l 805 339 q 796 332 800 335 q 775 313 785 321 q 764 317 770 314 l 752 322 q 726 334 736 330 q 730 382 727 353 l 735 431 q 737 477 737 456 q 733 530 737 507 q 652 310 705 453 l 612 201 l 572 92 l 491 92 l 487 88 l 484 85 q 479 80 479 82 l 471 52 q 467 22 467 35 q 465 -45 465 -8 q 467 -123 465 -81 q 470 -147 467 -132 l 473 -159 l 475 -172 l 476 -183 l 477 -194 q 484 -217 479 -207 q 487 -239 487 -225 l 487 -244 l 486 -259 l 485 -275 l 465 -286 l 444 -298 l 421 -288 q 397 -275 407 -280 q 398 -260 398 -269 l 398 -243 l 397 -233 l 397 -230 q 408 -192 397 -206 l 412 -136 l 416 -81 q 418 -7 418 -41 q 418 31 418 13 q 408 60 409 42 l 408 75 q 407 91 408 85 l 374 91 q 334 197 356 138 l 315 250 l 296 302 z "}}}
